<svg xmlns="http://www.w3.org/2000/svg" width="1080" height="1080" viewBox="0 0 1080 1080">
  <defs>
    <linearGradient id="bg" x1="0%" y1="0%" x2="100%" y2="100%">
      <stop offset="0%" style="stop-color:#0d1117"/>
      <stop offset="100%" style="stop-color:#111118"/>
    </linearGradient>
  </defs>
  <rect width="1080" height="1080" fill="url(#bg)"/>
  <!-- Header -->
  <rect width="1080" height="80" fill="#111318"/>
  <text x="540" y="30" font-family="Arial,sans-serif" font-size="13" fill="#9ca3af" text-anchor="middle">AAPL · Apple M5 칩 + 가격 인상</text>
  <text x="540" y="62" font-family="Arial,sans-serif" font-size="26" font-weight="bold" fill="#e5e7eb" text-anchor="middle">Apple M5 엔트리 Mac + 가격 인상 발표 — 주가 -5%</text>
  <!-- Accent line -->
  <rect y="80" width="1080" height="3" fill="#94a3b8"/>
  <!-- Split visual divider -->
  <line x1="540" y1="90" x2="540" y2="700" stroke="#333" stroke-width="2"/>
  <!-- LEFT: M5 positive side -->
  <rect x="0" y="80" width="540" height="4" fill="#3b82f6" opacity="0.5"/>
  <text x="270" y="140" font-family="Arial,sans-serif" font-size="20" font-weight="bold" fill="#3b82f6" text-anchor="middle">✦ 긍정적</text>
  <!-- M5 chip icon -->
  <g transform="translate(170, 165)">
    <rect x="0" y="0" width="100" height="80" rx="6" fill="#1d4ed8" opacity="0.8"/>
    <rect x="8" y="8" width="84" height="64" rx="4" fill="#2563eb" opacity="0.5"/>
    <!-- Chip connections -->
    <line x1="0" y1="20" x2="-15" y2="20" stroke="#3b82f6" stroke-width="3"/>
    <line x1="0" y1="35" x2="-15" y2="35" stroke="#3b82f6" stroke-width="3"/>
    <line x1="0" y1="50" x2="-15" y2="50" stroke="#3b82f6" stroke-width="3"/>
    <line x1="0" y1="65" x2="-15" y2="65" stroke="#3b82f6" stroke-width="3"/>
    <line x1="100" y1="20" x2="115" y2="20" stroke="#3b82f6" stroke-width="3"/>
    <line x1="100" y1="35" x2="115" y2="35" stroke="#3b82f6" stroke-width="3"/>
    <line x1="100" y1="50" x2="115" y2="50" stroke="#3b82f6" stroke-width="3"/>
    <line x1="100" y1="65" x2="115" y2="65" stroke="#3b82f6" stroke-width="3"/>
    <line x1="20" y1="0" x2="20" y2="-15" stroke="#3b82f6" stroke-width="3"/>
    <line x1="40" y1="0" x2="40" y2="-15" stroke="#3b82f6" stroke-width="3"/>
    <line x1="60" y1="0" x2="60" y2="-15" stroke="#3b82f6" stroke-width="3"/>
    <line x1="80" y1="0" x2="80" y2="-15" stroke="#3b82f6" stroke-width="3"/>
    <text x="50" y="47" font-family="Arial,sans-serif" font-size="22" font-weight="bold" fill="#ffffff" text-anchor="middle">M5</text>
  </g>
  <text x="270" y="290" font-family="Arial,sans-serif" font-size="48" font-weight="bold" fill="#3b82f6" text-anchor="middle">M5 칩</text>
  <text x="270" y="335" font-family="Arial,sans-serif" font-size="18" fill="#e5e7eb" text-anchor="middle">엔트리 Mac 적용</text>
  <text x="270" y="365" font-family="Arial,sans-serif" font-size="16" fill="#9ca3af" text-anchor="middle">Mac 칩 전략 최대 변화</text>
  <!-- M5 benefits -->
  <rect x="30" y="390" width="480" height="55" rx="8" fill="#0d1f40" stroke="#3b82f6" stroke-width="1"/>
  <text x="270" y="418" font-family="Arial,sans-serif" font-size="15" fill="#3b82f6" text-anchor="middle">성능 대폭 향상</text>
  <text x="270" y="435" font-family="Arial,sans-serif" font-size="13" fill="#9ca3af" text-anchor="middle">AI 처리 능력 강화 · Neural Engine 업그레이드</text>
  <rect x="30" y="455" width="480" height="55" rx="8" fill="#0d1f40" stroke="#3b82f6" stroke-width="1"/>
  <text x="270" y="483" font-family="Arial,sans-serif" font-size="15" fill="#3b82f6" text-anchor="middle">엔트리 레벨 혁신</text>
  <text x="270" y="500" font-family="Arial,sans-serif" font-size="13" fill="#9ca3af" text-anchor="middle">보급형 Mac에도 최신 칩 탑재 — 생태계 확장</text>
  <rect x="30" y="520" width="480" height="55" rx="8" fill="#0d1f40" stroke="#3b82f6" stroke-width="1"/>
  <text x="270" y="548" font-family="Arial,sans-serif" font-size="15" fill="#3b82f6" text-anchor="middle">Apple Intelligence 강화</text>
  <text x="270" y="565" font-family="Arial,sans-serif" font-size="13" fill="#9ca3af" text-anchor="middle">온디바이스 AI 기능 크게 향상</text>
  <!-- RIGHT: Price hike negative side -->
  <rect x="540" y="80" width="540" height="4" fill="#ef4444" opacity="0.5"/>
  <text x="810" y="140" font-family="Arial,sans-serif" font-size="20" font-weight="bold" fill="#f87171" text-anchor="middle">⚠ 부정적</text>
  <!-- Money flying icon -->
  <g transform="translate(660, 160)">
    <rect x="0" y="20" width="80" height="50" rx="6" fill="#374151" stroke="#f87171" stroke-width="2"/>
    <text x="40" y="52" font-family="Arial,sans-serif" font-size="22" fill="#f87171" text-anchor="middle">$</text>
    <!-- Flying money -->
    <text x="90" y="15" font-family="Arial,sans-serif" font-size="30" fill="#f87171">💸</text>
    <text x="100" y="55" font-family="Arial,sans-serif" font-size="30" fill="#f87171">💸</text>
  </g>
  <text x="810" y="290" font-family="Arial,sans-serif" font-size="48" font-weight="bold" fill="#f87171" text-anchor="middle">가격 인상</text>
  <text x="810" y="335" font-family="Arial,sans-serif" font-size="18" fill="#e5e7eb" text-anchor="middle">Mac + iPad 동시 인상</text>
  <text x="810" y="365" font-family="Arial,sans-serif" font-size="16" fill="#f87171" text-anchor="middle">소비자 부담 증가</text>
  <!-- Price hike items -->
  <rect x="560" y="390" width="480" height="55" rx="8" fill="#2d0a0a" stroke="#f87171" stroke-width="1"/>
  <text x="800" y="418" font-family="Arial,sans-serif" font-size="15" fill="#f87171" text-anchor="middle">Mac 가격 인상</text>
  <text x="800" y="435" font-family="Arial,sans-serif" font-size="13" fill="#9ca3af" text-anchor="middle">주요 Mac 라인업 가격 상향 조정</text>
  <rect x="560" y="455" width="480" height="55" rx="8" fill="#2d0a0a" stroke="#f87171" stroke-width="1"/>
  <text x="800" y="483" font-family="Arial,sans-serif" font-size="15" fill="#f87171" text-anchor="middle">iPad 가격 인상</text>
  <text x="800" y="500" font-family="Arial,sans-serif" font-size="13" fill="#9ca3af" text-anchor="middle">iPad 라인업 가격 동시 인상</text>
  <rect x="560" y="520" width="480" height="55" rx="8" fill="#2d0a0a" stroke="#f87171" stroke-width="1"/>
  <text x="800" y="548" font-family="Arial,sans-serif" font-size="22" font-weight="bold" fill="#f87171" text-anchor="middle">주가 -5% 하락</text>
  <text x="800" y="565" font-family="Arial,sans-serif" font-size="13" fill="#9ca3af" text-anchor="middle">시장 부정적 반응 — 단기 조정</text>
  <!-- Stats row -->
  <rect x="40" y="718" width="220" height="110" rx="10" fill="#0d1f40" stroke="#3b82f6" stroke-width="1.5"/>
  <text x="150" y="753" font-family="Arial,sans-serif" font-size="13" fill="#9ca3af" text-anchor="middle">M5 성능</text>
  <text x="150" y="803" font-family="Arial,sans-serif" font-size="36" font-weight="bold" fill="#3b82f6" text-anchor="middle">향상 ↑</text>
  <rect x="280" y="718" width="220" height="110" rx="10" fill="#2d0a0a" stroke="#f87171" stroke-width="1.5"/>
  <text x="390" y="753" font-family="Arial,sans-serif" font-size="13" fill="#9ca3af" text-anchor="middle">Mac 가격</text>
  <text x="390" y="803" font-family="Arial,sans-serif" font-size="36" font-weight="bold" fill="#f87171" text-anchor="middle">인상 ↑</text>
  <rect x="520" y="718" width="220" height="110" rx="10" fill="#2d0a0a" stroke="#f87171" stroke-width="1.5"/>
  <text x="630" y="753" font-family="Arial,sans-serif" font-size="13" fill="#9ca3af" text-anchor="middle">iPad 가격</text>
  <text x="630" y="803" font-family="Arial,sans-serif" font-size="36" font-weight="bold" fill="#f87171" text-anchor="middle">인상 ↑</text>
  <rect x="760" y="718" width="280" height="110" rx="10" fill="#2d0a0a" stroke="#f87171" stroke-width="2"/>
  <text x="900" y="753" font-family="Arial,sans-serif" font-size="13" fill="#9ca3af" text-anchor="middle">주가 반응</text>
  <text x="900" y="803" font-family="Arial,sans-serif" font-size="52" font-weight="bold" fill="#f87171" text-anchor="middle">-5%</text>
  <!-- Summary -->
  <rect x="40" y="856" width="1002" height="65" rx="8" fill="#161b22" stroke="#94a3b8" stroke-width="1"/>
  <text x="540" y="882" font-family="Arial,sans-serif" font-size="15" fill="#e5e7eb" text-anchor="middle">M5 칩 혁신(긍정) vs 전제품 가격 인상(부정) — 단기 주가 조정 -5%</text>
  <text x="540" y="906" font-family="Arial,sans-serif" font-size="13" fill="#9ca3af" text-anchor="middle">장기: M5 생태계 강화 기대 · 단기: 가격 인상 소비자 반발 리스크</text>
  <!-- Footer -->
  <rect y="940" width="1080" height="80" fill="#111318"/>
  <rect y="940" width="1080" height="2" fill="#94a3b8"/>
  <text x="540" y="980" font-family="Arial,sans-serif" font-size="16" font-weight="bold" fill="#e5e7eb" text-anchor="middle">AAPL M5 + 가격 인상 — 혁신과 부담의 양면 전략</text>
  <text x="540" y="1004" font-family="Arial,sans-serif" font-size="12" fill="#9ca3af" text-anchor="middle">INVESTUS · 2026.06.26 · 투자 참고용</text>
  <rect y="1030" width="1080" height="50" fill="#0d1117"/>
  <text x="540" y="1062" font-family="Arial,sans-serif" font-size="13" fill="#94a3b8" text-anchor="middle">AAPL M5 Mac · iPad 가격 인상 · 주가 -5% 조정</text>
</svg>