<svg xmlns="http://www.w3.org/2000/svg" width="1080" height="1080" viewBox="0 0 1080 1080">
  <defs>
    <linearGradient id="bg" x1="0%" y1="0%" x2="100%" y2="100%">
      <stop offset="0%" style="stop-color:#0d1117"/>
      <stop offset="100%" style="stop-color:#111118"/>
    </linearGradient>
  </defs>
  <rect width="1080" height="1080" fill="url(#bg)"/>
  <!-- Header -->
  <rect width="1080" height="80" fill="#111318"/>
  <text x="540" y="30" font-family="Arial,sans-serif" font-size="13" fill="#9ca3af" text-anchor="middle">AAPL · Apple M5 Chip + Price Hike</text>
  <text x="540" y="62" font-family="Arial,sans-serif" font-size="26" font-weight="bold" fill="#e5e7eb" text-anchor="middle">Apple M5 for Entry Macs + Price Hikes Announced — Stock -5%</text>
  <!-- Accent line -->
  <rect y="80" width="1080" height="3" fill="#94a3b8"/>
  <!-- Split visual divider -->
  <line x1="540" y1="90" x2="540" y2="700" stroke="#333" stroke-width="2"/>
  <!-- LEFT: M5 positive side -->
  <rect x="0" y="80" width="540" height="4" fill="#3b82f6" opacity="0.5"/>
  <text x="270" y="140" font-family="Arial,sans-serif" font-size="20" font-weight="bold" fill="#3b82f6" text-anchor="middle">✦ Positive</text>
  <!-- M5 chip icon -->
  <g transform="translate(170, 165)">
    <rect x="0" y="0" width="100" height="80" rx="6" fill="#1d4ed8" opacity="0.8"/>
    <rect x="8" y="8" width="84" height="64" rx="4" fill="#2563eb" opacity="0.5"/>
    <line x1="0" y1="20" x2="-15" y2="20" stroke="#3b82f6" stroke-width="3"/>
    <line x1="0" y1="35" x2="-15" y2="35" stroke="#3b82f6" stroke-width="3"/>
    <line x1="0" y1="50" x2="-15" y2="50" stroke="#3b82f6" stroke-width="3"/>
    <line x1="0" y1="65" x2="-15" y2="65" stroke="#3b82f6" stroke-width="3"/>
    <line x1="100" y1="20" x2="115" y2="20" stroke="#3b82f6" stroke-width="3"/>
    <line x1="100" y1="35" x2="115" y2="35" stroke="#3b82f6" stroke-width="3"/>
    <line x1="100" y1="50" x2="115" y2="50" stroke="#3b82f6" stroke-width="3"/>
    <line x1="100" y1="65" x2="115" y2="65" stroke="#3b82f6" stroke-width="3"/>
    <line x1="20" y1="0" x2="20" y2="-15" stroke="#3b82f6" stroke-width="3"/>
    <line x1="40" y1="0" x2="40" y2="-15" stroke="#3b82f6" stroke-width="3"/>
    <line x1="60" y1="0" x2="60" y2="-15" stroke="#3b82f6" stroke-width="3"/>
    <line x1="80" y1="0" x2="80" y2="-15" stroke="#3b82f6" stroke-width="3"/>
    <text x="50" y="47" font-family="Arial,sans-serif" font-size="22" font-weight="bold" fill="#ffffff" text-anchor="middle">M5</text>
  </g>
  <text x="270" y="290" font-family="Arial,sans-serif" font-size="48" font-weight="bold" fill="#3b82f6" text-anchor="middle">M5 Chip</text>
  <text x="270" y="335" font-family="Arial,sans-serif" font-size="18" fill="#e5e7eb" text-anchor="middle">Entry-Level Mac Upgrade</text>
  <text x="270" y="365" font-family="Arial,sans-serif" font-size="16" fill="#9ca3af" text-anchor="middle">Biggest Mac Chip Strategy Change</text>
  <!-- M5 benefits -->
  <rect x="30" y="390" width="480" height="55" rx="8" fill="#0d1f40" stroke="#3b82f6" stroke-width="1"/>
  <text x="270" y="418" font-family="Arial,sans-serif" font-size="15" fill="#3b82f6" text-anchor="middle">Major Performance Uplift</text>
  <text x="270" y="435" font-family="Arial,sans-serif" font-size="13" fill="#9ca3af" text-anchor="middle">AI Processing Boost · Neural Engine Upgrade</text>
  <rect x="30" y="455" width="480" height="55" rx="8" fill="#0d1f40" stroke="#3b82f6" stroke-width="1"/>
  <text x="270" y="483" font-family="Arial,sans-serif" font-size="15" fill="#3b82f6" text-anchor="middle">Entry-Level Innovation</text>
  <text x="270" y="500" font-family="Arial,sans-serif" font-size="13" fill="#9ca3af" text-anchor="middle">Latest Chip on Budget Mac — Ecosystem Expansion</text>
  <rect x="30" y="520" width="480" height="55" rx="8" fill="#0d1f40" stroke="#3b82f6" stroke-width="1"/>
  <text x="270" y="548" font-family="Arial,sans-serif" font-size="15" fill="#3b82f6" text-anchor="middle">Apple Intelligence Enhanced</text>
  <text x="270" y="565" font-family="Arial,sans-serif" font-size="13" fill="#9ca3af" text-anchor="middle">On-Device AI Capabilities Significantly Improved</text>
  <!-- RIGHT: Price hike negative side -->
  <rect x="540" y="80" width="540" height="4" fill="#ef4444" opacity="0.5"/>
  <text x="810" y="140" font-family="Arial,sans-serif" font-size="20" font-weight="bold" fill="#f87171" text-anchor="middle">⚠ Negative</text>
  <!-- Money flying icon -->
  <g transform="translate(660, 160)">
    <rect x="0" y="20" width="80" height="50" rx="6" fill="#374151" stroke="#f87171" stroke-width="2"/>
    <text x="40" y="52" font-family="Arial,sans-serif" font-size="22" fill="#f87171" text-anchor="middle">$</text>
    <text x="90" y="15" font-family="Arial,sans-serif" font-size="30" fill="#f87171">💸</text>
    <text x="100" y="55" font-family="Arial,sans-serif" font-size="30" fill="#f87171">💸</text>
  </g>
  <text x="810" y="290" font-family="Arial,sans-serif" font-size="48" font-weight="bold" fill="#f87171" text-anchor="middle">Price Hike</text>
  <text x="810" y="335" font-family="Arial,sans-serif" font-size="18" fill="#e5e7eb" text-anchor="middle">Mac + iPad Simultaneously Raised</text>
  <text x="810" y="365" font-family="Arial,sans-serif" font-size="16" fill="#f87171" text-anchor="middle">Consumer Burden Increased</text>
  <!-- Price hike items -->
  <rect x="560" y="390" width="480" height="55" rx="8" fill="#2d0a0a" stroke="#f87171" stroke-width="1"/>
  <text x="800" y="418" font-family="Arial,sans-serif" font-size="15" fill="#f87171" text-anchor="middle">Mac Price Increase</text>
  <text x="800" y="435" font-family="Arial,sans-serif" font-size="13" fill="#9ca3af" text-anchor="middle">Key Mac Lineup Prices Raised</text>
  <rect x="560" y="455" width="480" height="55" rx="8" fill="#2d0a0a" stroke="#f87171" stroke-width="1"/>
  <text x="800" y="483" font-family="Arial,sans-serif" font-size="15" fill="#f87171" text-anchor="middle">iPad Price Increase</text>
  <text x="800" y="500" font-family="Arial,sans-serif" font-size="13" fill="#9ca3af" text-anchor="middle">iPad Lineup Simultaneously Raised</text>
  <rect x="560" y="520" width="480" height="55" rx="8" fill="#2d0a0a" stroke="#f87171" stroke-width="1"/>
  <text x="800" y="548" font-family="Arial,sans-serif" font-size="22" font-weight="bold" fill="#f87171" text-anchor="middle">Stock -5% Drop</text>
  <text x="800" y="565" font-family="Arial,sans-serif" font-size="13" fill="#9ca3af" text-anchor="middle">Market Negative Reaction — Short-Term Pullback</text>
  <!-- Stats row -->
  <rect x="40" y="718" width="220" height="110" rx="10" fill="#0d1f40" stroke="#3b82f6" stroke-width="1.5"/>
  <text x="150" y="753" font-family="Arial,sans-serif" font-size="13" fill="#9ca3af" text-anchor="middle">M5 Performance</text>
  <text x="150" y="803" font-family="Arial,sans-serif" font-size="36" font-weight="bold" fill="#3b82f6" text-anchor="middle">Up ↑</text>
  <rect x="280" y="718" width="220" height="110" rx="10" fill="#2d0a0a" stroke="#f87171" stroke-width="1.5"/>
  <text x="390" y="753" font-family="Arial,sans-serif" font-size="13" fill="#9ca3af" text-anchor="middle">Mac Price</text>
  <text x="390" y="803" font-family="Arial,sans-serif" font-size="36" font-weight="bold" fill="#f87171" text-anchor="middle">Raised ↑</text>
  <rect x="520" y="718" width="220" height="110" rx="10" fill="#2d0a0a" stroke="#f87171" stroke-width="1.5"/>
  <text x="630" y="753" font-family="Arial,sans-serif" font-size="13" fill="#9ca3af" text-anchor="middle">iPad Price</text>
  <text x="630" y="803" font-family="Arial,sans-serif" font-size="36" font-weight="bold" fill="#f87171" text-anchor="middle">Raised ↑</text>
  <rect x="760" y="718" width="280" height="110" rx="10" fill="#2d0a0a" stroke="#f87171" stroke-width="2"/>
  <text x="900" y="753" font-family="Arial,sans-serif" font-size="13" fill="#9ca3af" text-anchor="middle">Stock Reaction</text>
  <text x="900" y="803" font-family="Arial,sans-serif" font-size="52" font-weight="bold" fill="#f87171" text-anchor="middle">-5%</text>
  <!-- Summary -->
  <rect x="40" y="856" width="1002" height="65" rx="8" fill="#161b22" stroke="#94a3b8" stroke-width="1"/>
  <text x="540" y="882" font-family="Arial,sans-serif" font-size="15" fill="#e5e7eb" text-anchor="middle">M5 Chip Innovation (Positive) vs. Product Price Hikes (Negative) — Short-Term -5% Pullback</text>
  <text x="540" y="906" font-family="Arial,sans-serif" font-size="13" fill="#9ca3af" text-anchor="middle">Long-Term: M5 Ecosystem Upside · Short-Term: Price Hike Consumer Backlash Risk</text>
  <!-- Footer -->
  <rect y="940" width="1080" height="80" fill="#111318"/>
  <rect y="940" width="1080" height="2" fill="#94a3b8"/>
  <text x="540" y="980" font-family="Arial,sans-serif" font-size="16" font-weight="bold" fill="#e5e7eb" text-anchor="middle">AAPL M5 + Price Hike — Innovation vs Consumer Burden Dual Strategy</text>
  <text x="540" y="1004" font-family="Arial,sans-serif" font-size="12" fill="#9ca3af" text-anchor="middle">INVESTUS · 2026.06.26 · For Reference Only</text>
  <rect y="1030" width="1080" height="50" fill="#0d1117"/>
  <text x="540" y="1062" font-family="Arial,sans-serif" font-size="13" fill="#94a3b8" text-anchor="middle">AAPL M5 Mac · iPad Price Hike · Stock -5% Correction</text>
</svg>