<svg width="800" height="430" viewBox="0 0 800 430" xmlns="http://www.w3.org/2000/svg">
  <rect width="800" height="430" fill="#07091a"/>
  <rect x="0" y="0" width="800" height="3" fill="#00e5a0"/>
  <text x="30" y="30" font-family="Arial,sans-serif" font-size="10" fill="#00e5a0" font-weight="700" letter-spacing="2">INVESTUS · AMTX(ANTHROPIC) REPORT</text>
  <text x="30" y="58" font-family="Arial,sans-serif" font-size="18" fill="white" font-weight="700">Anthropic $65B 펀딩 확정 — 비상장 AI 기업 세계 최대</text>
  <text x="770" y="58" font-family="Arial,sans-serif" font-size="11" fill="#6b7280" text-anchor="end">2026.05.29</text>
  <line x1="30" y1="70" x2="770" y2="70" stroke="#1e2330" stroke-width="1"/>

  <!-- Big hero -->
  <rect x="30" y="84" width="360" height="140" rx="8" fill="#071208" stroke="#00e5a0" stroke-width="2"/>
  <text x="205" y="120" font-family="Arial,sans-serif" font-size="11" fill="#6b7280" text-anchor="middle">신규 펀딩 라운드</text>
  <text x="205" y="176" font-family="Arial,sans-serif" font-size="46" fill="#00e5a0" font-weight="900" text-anchor="middle">$65B</text>
  <text x="205" y="208" font-family="Arial,sans-serif" font-size="11" fill="white" text-anchor="middle">세계 최대 비상장 AI 기업 펀딩</text>

  <!-- ARR growth bars (right side) -->
  <text x="420" y="98" font-family="Arial,sans-serif" font-size="10" fill="#6b7280">ARR 성장 ($B)</text>
  <rect x="420" y="108" width="24" height="100" rx="3" fill="#1e2330"/>
  <text x="432" y="220" font-family="Arial,sans-serif" font-size="8" fill="#6b7280" text-anchor="middle">Q3'25</text>
  <text x="432" y="232" font-family="Arial,sans-serif" font-size="8" fill="#9ca3af" text-anchor="middle">$9B</text>

  <rect x="460" y="90" width="24" height="118" rx="3" fill="#00e5a0" fill-opacity="0.5"/>
  <text x="472" y="220" font-family="Arial,sans-serif" font-size="8" fill="#6b7280" text-anchor="middle">Q4'25</text>
  <text x="472" y="232" font-family="Arial,sans-serif" font-size="8" fill="#9ca3af" text-anchor="middle">$19B</text>

  <rect x="500" y="60" width="24" height="148" rx="3" fill="#00e5a0" fill-opacity="0.7"/>
  <text x="512" y="220" font-family="Arial,sans-serif" font-size="8" fill="#6b7280" text-anchor="middle">Q1'26</text>
  <text x="512" y="232" font-family="Arial,sans-serif" font-size="8" fill="#9ca3af" text-anchor="middle">$30B</text>

  <rect x="540" y="10" width="36" height="198" rx="3" fill="#00e5a0"/>
  <text x="558" y="220" font-family="Arial,sans-serif" font-size="9" fill="#00e5a0" text-anchor="middle" font-weight="700">May'26</text>
  <text x="558" y="232" font-family="Arial,sans-serif" font-size="9" fill="#00e5a0" text-anchor="middle" font-weight="700">$47B</text>
  <text x="558" y="8" font-family="Arial,sans-serif" font-size="9" fill="#00e5a0" text-anchor="middle" font-weight="700">⭐</text>
  <line x1="410" y1="208" x2="770" y2="208" stroke="#1e2330" stroke-width="1"/>

  <!-- Comparison -->
  <rect x="610" y="84" width="160" height="120" rx="8" fill="#0a0f1e" stroke="#1e2330" stroke-width="1"/>
  <text x="690" y="108" font-family="Arial,sans-serif" font-size="10" fill="#6b7280" text-anchor="middle">vs 타 유니콘</text>
  <text x="690" y="132" font-family="Arial,sans-serif" font-size="11" fill="#9ca3af" text-anchor="middle">Stripe $65B</text>
  <text x="690" y="152" font-family="Arial,sans-serif" font-size="11" fill="#9ca3af" text-anchor="middle">SpaceX $350B</text>
  <text x="690" y="176" font-family="Arial,sans-serif" font-size="13" fill="#00e5a0" font-weight="700" text-anchor="middle">Anthropic ARR</text>
  <text x="690" y="196" font-family="Arial,sans-serif" font-size="11" fill="#00e5a0" text-anchor="middle">세계 1위 임박</text>

  <rect x="30" y="238" width="740" height="60" rx="8" fill="#060b18" stroke="#00e5a0" stroke-width="1" stroke-opacity="0.4"/>
  <rect x="30" y="238" width="4" height="60" rx="2" fill="#00e5a0"/>
  <text x="50" y="260" font-family="Arial,sans-serif" font-size="11" fill="#00e5a0" font-weight="700">■ Amazon(AMZN) 간접 수혜</text>
  <text x="50" y="280" font-family="Arial,sans-serif" font-size="11" fill="white">최대 투자자 $4B+ · AWS 독점 배포 파트너 → Anthropic ARR 성장 = AWS AI 매출 직결</text>
  <text x="50" y="292" font-family="Arial,sans-serif" font-size="9" fill="#6b7280">Claude API 급성장 → AWS 클라우드 AI 수익 동반 상승</text>

  <rect x="30" y="310" width="354" height="76" rx="6" fill="#0a0f1e" stroke="#1e2330" stroke-width="1"/>
  <rect x="30" y="310" width="4" height="76" rx="2" fill="#00e5a0"/>
  <text x="50" y="332" font-family="Arial,sans-serif" font-size="10" fill="#6b7280">성장률</text>
  <text x="50" y="358" font-family="Arial,sans-serif" font-size="14" fill="white" font-weight="700">8개월 만에 ARR 5배 성장</text>
  <text x="50" y="378" font-family="Arial,sans-serif" font-size="10" fill="#9ca3af">$9B(Sep'25) → $47B(May'26)</text>

  <rect x="402" y="310" width="368" height="76" rx="6" fill="#0a0f1e" stroke="#1e2330" stroke-width="1"/>
  <rect x="402" y="310" width="4" height="76" rx="2" fill="#00e5a0"/>
  <text x="422" y="332" font-family="Arial,sans-serif" font-size="10" fill="#6b7280">투자 시사점</text>
  <text x="422" y="358" font-family="Arial,sans-serif" font-size="12" fill="#00e5a0" font-weight="700">AMZN = Anthropic 성장의 최대 수혜주</text>
  <text x="422" y="378" font-family="Arial,sans-serif" font-size="10" fill="#9ca3af">AWS AI 수익 직결 · 주가 디스카운트 해소 기대</text>

  <line x1="30" y1="400" x2="770" y2="400" stroke="#1e2330" stroke-width="1"/>
  <text x="30" y="416" font-family="Arial,sans-serif" font-size="8" fill="#374151">투자 참고용 · 투자 권유 아님</text>
  <text x="770" y="416" font-family="Arial,sans-serif" font-size="9" fill="#00e5a0" text-anchor="end" font-weight="700">SUNRYU Partners CIO</text>
</svg>
