<svg xmlns="http://www.w3.org/2000/svg" viewBox="0 0 1080 1080" width="1080" height="1080">
  <defs>
    <linearGradient id="bg" x1="0%" y1="0%" x2="100%" y2="100%">
      <stop offset="0%" style="stop-color:#0d1117"/>
      <stop offset="50%" style="stop-color:#051a0a"/>
      <stop offset="100%" style="stop-color:#0d1117"/>
    </linearGradient>
    <linearGradient id="greenLine" x1="0%" y1="0%" x2="100%" y2="0%">
      <stop offset="0%" style="stop-color:#22c55e"/>
      <stop offset="100%" style="stop-color:#4ade80"/>
    </linearGradient>
  </defs>

  <rect width="1080" height="1080" fill="url(#bg)"/>
  <circle cx="900" cy="200" r="280" fill="#4ade80" opacity="0.04"/>
  <circle cx="150" cy="800" r="220" fill="#22c55e" opacity="0.04"/>

  <rect x="0" y="0" width="1080" height="90" fill="#4ade80" opacity="0.08"/>
  <rect x="0" y="88" width="1080" height="2" fill="#4ade80" opacity="0.6"/>
  <text x="54" y="52" font-family="Arial,sans-serif" font-size="14" font-weight="700" fill="#4ade80" letter-spacing="4">INVESTUS DAILY REPORT</text>
  <rect x="870" y="26" width="160" height="36" rx="18" fill="#4ade80" opacity="0.15"/>
  <rect x="870" y="26" width="160" height="36" rx="18" fill="none" stroke="#4ade80" stroke-width="1.5"/>
  <text x="950" y="49" font-family="Arial,sans-serif" font-size="13" font-weight="700" fill="#4ade80" text-anchor="middle">2026.07.01</text>

  <text x="54" y="150" font-family="Arial,sans-serif" font-size="42" font-weight="900" fill="#ffffff">BLOOM ENERGY</text>
  <text x="54" y="196" font-family="Arial,sans-serif" font-size="24" font-weight="700" fill="#4ade80">AI Data Center Power Demand · Stock Surges</text>

  <rect x="54" y="216" width="380" height="38" rx="10" fill="#4ade80" opacity="0.15"/>
  <rect x="54" y="216" width="380" height="38" rx="10" fill="none" stroke="#4ade80" stroke-width="1.5"/>
  <text x="244" y="240" font-family="Arial,sans-serif" font-size="14" font-weight="900" fill="#4ade80" text-anchor="middle" letter-spacing="1">HIGHEST SINCE OCT 2025</text>

  <!-- Stock chart -->
  <rect x="54" y="278" width="972" height="300" rx="16" fill="#051a0a" stroke="#4ade80" stroke-width="1.5" stroke-opacity="0.5"/>
  <text x="100" y="315" font-family="Arial,sans-serif" font-size="12" fill="#6b7280" letter-spacing="2">BLOOM ENERGY · PRICE CHART</text>
  <line x1="90" y1="540" x2="990" y2="540" stroke="#1f2937" stroke-width="1"/>
  <line x1="90" y1="490" x2="990" y2="490" stroke="#1f2937" stroke-width="1"/>
  <line x1="90" y1="440" x2="990" y2="440" stroke="#1f2937" stroke-width="1"/>
  <line x1="90" y1="390" x2="990" y2="390" stroke="#1f2937" stroke-width="1"/>
  <polyline points="90,520 180,515 270,525 360,510 450,518 540,512 600,505 660,490 720,460 780,420 850,370 920,330 990,300"
    fill="none" stroke="url(#greenLine)" stroke-width="4" stroke-linejoin="round"/>
  <polygon points="90,520 180,515 270,525 360,510 450,518 540,512 600,505 660,490 720,460 780,420 850,370 920,330 990,300 990,550 90,550"
    fill="#4ade80" opacity="0.07"/>
  <circle cx="990" cy="300" r="8" fill="#4ade80"/>
  <text x="970" y="288" font-family="Arial,sans-serif" font-size="13" font-weight="700" fill="#4ade80" text-anchor="end">HIGH</text>
  <text x="90" y="565" font-family="Arial,sans-serif" font-size="10" fill="#6b7280" text-anchor="middle">Oct'25</text>
  <text x="360" y="565" font-family="Arial,sans-serif" font-size="10" fill="#6b7280" text-anchor="middle">Jan'26</text>
  <text x="660" y="565" font-family="Arial,sans-serif" font-size="10" fill="#6b7280" text-anchor="middle">Apr'26</text>
  <text x="990" y="565" font-family="Arial,sans-serif" font-size="10" fill="#4ade80" text-anchor="middle">Jul'26</text>

  <!-- Power flow -->
  <text x="540" y="636" font-family="Arial,sans-serif" font-size="13" font-weight="700" fill="#9ca3af" text-anchor="middle" letter-spacing="2">AI DATA CENTER POWER SUPPLY FLOW</text>

  <rect x="54" y="660" width="280" height="120" rx="14" fill="#0a1628" stroke="#60a5fa" stroke-width="1.5"/>
  <text x="194" y="706" font-family="Arial,sans-serif" font-size="32" text-anchor="middle">🖥️</text>
  <text x="194" y="742" font-family="Arial,sans-serif" font-size="15" font-weight="700" fill="#93c5fd" text-anchor="middle">AI DATA CENTER</text>
  <text x="194" y="762" font-family="Arial,sans-serif" font-size="11" fill="#6b7280" text-anchor="middle">Surging Power Demand</text>

  <text x="430" y="730" font-family="Arial,sans-serif" font-size="36" text-anchor="middle" fill="#4ade80">⚡→</text>

  <rect x="566" y="660" width="460" height="120" rx="14" fill="#051a0a" stroke="#4ade80" stroke-width="2"/>
  <text x="796" y="706" font-family="Arial,sans-serif" font-size="32" text-anchor="middle">⚡</text>
  <text x="796" y="742" font-family="Arial,sans-serif" font-size="15" font-weight="900" fill="#4ade80" text-anchor="middle">BLOOM ENERGY</text>
  <text x="796" y="762" font-family="Arial,sans-serif" font-size="11" fill="#86efac" text-anchor="middle">Distributed Power Solutions</text>

  <!-- Stats -->
  <rect x="54" y="820" width="972" height="100" rx="12" fill="#051a0a" stroke="#4ade80" stroke-width="1" stroke-opacity="0.3"/>
  <text x="270" y="860" font-family="Arial,sans-serif" font-size="13" font-weight="700" fill="#4ade80" text-anchor="middle">Stock Surge</text>
  <text x="270" y="895" font-family="Arial,sans-serif" font-size="11" fill="#6b7280" text-anchor="middle">AI demand catalyst</text>
  <line x1="450" y1="838" x2="450" y2="905" stroke="#4ade80" stroke-width="1" stroke-opacity="0.3"/>
  <text x="540" y="860" font-family="Arial,sans-serif" font-size="13" font-weight="700" fill="#4ade80" text-anchor="middle">Distributed Power</text>
  <text x="540" y="895" font-family="Arial,sans-serif" font-size="11" fill="#6b7280" text-anchor="middle">DC power supply role</text>
  <line x1="720" y1="838" x2="720" y2="905" stroke="#4ade80" stroke-width="1" stroke-opacity="0.3"/>
  <text x="865" y="860" font-family="Arial,sans-serif" font-size="13" font-weight="700" fill="#4ade80" text-anchor="middle">Post-Oct'25 High</text>
  <text x="865" y="895" font-family="Arial,sans-serif" font-size="11" fill="#6b7280" text-anchor="middle">Historic level retaken</text>

  <rect x="0" y="990" width="1080" height="90" fill="#4ade80" opacity="0.08"/>
  <rect x="0" y="990" width="1080" height="2" fill="#4ade80" opacity="0.5"/>
  <text x="540" y="1030" font-family="Arial,sans-serif" font-size="14" font-weight="700" fill="#4ade80" text-anchor="middle">AI Infrastructure Power Supply Role · Highest Since October 2025</text>
  <text x="540" y="1058" font-family="Arial,sans-serif" font-size="11" fill="#6b7280" text-anchor="middle">INVESTUS · 2026.07.01 · For Reference Only</text>
</svg>
