<svg xmlns="http://www.w3.org/2000/svg" viewBox="0 0 800 440" style="background:#0a0c10;font-family:'Helvetica Neue',Arial,sans-serif">
  <rect width="800" height="440" fill="#0a0c10"/>
  <defs>
    <linearGradient id="grn" x1="0" y1="0" x2="0" y2="1">
      <stop offset="0%" stop-color="#4ade80"/><stop offset="100%" stop-color="#16a34a"/>
    </linearGradient>
  </defs>
  <rect x="30" y="24" width="10" height="36" rx="3" fill="url(#grn)"/>
  <text x="50" y="42" fill="#4ade80" font-size="11" font-weight="700" letter-spacing="2">META PLATFORMS · 자본 조달</text>
  <text x="50" y="58" fill="white" font-size="19" font-weight="800">수십억 달러 신규 주식 발행 검토</text>
  <text x="700" y="44" fill="#4ade80" font-size="11" font-weight="600" text-anchor="end">2026.06.07</text>
  <line x1="30" y1="76" x2="770" y2="76" stroke="#ffffff" stroke-opacity="0.06" stroke-width="1"/>

  <!-- main card -->
  <rect x="30" y="90" width="460" height="100" rx="12" fill="#4ade80" fill-opacity="0.07" stroke="#4ade80" stroke-opacity="0.2"/>
  <text x="50" y="118" fill="#4ade80" font-size="11" font-weight="700">ar_investments 소식</text>
  <text x="50" y="152" fill="white" font-size="24" font-weight="900">"수십억 달러(tens of billions)"</text>
  <text x="50" y="177" fill="rgba(255,255,255,0.5)" font-size="13">META가 신규 주식 발행을 통해 대규모 자금 조달 검토 중</text>

  <rect x="510" y="90" width="260" height="100" rx="12" fill="rgba(255,255,255,0.03)" stroke="rgba(255,255,255,0.06)"/>
  <text x="524" y="118" fill="rgba(255,255,255,0.5)" font-size="11">현재 META 시가총액</text>
  <text x="524" y="148" fill="white" font-size="26" font-weight="800">~$1.7T</text>
  <text x="524" y="172" fill="rgba(255,255,255,0.4)" font-size="12">Zuckerberg 주도 AI 투자 확대</text>

  <!-- why raise -->
  <text x="30" y="224" fill="rgba(255,255,255,0.4)" font-size="11" font-weight="700" letter-spacing="1">조달 목적 (추정)</text>

  <rect x="30" y="234" width="220" height="72" rx="8" fill="rgba(255,255,255,0.04)" stroke="rgba(255,255,255,0.06)"/>
  <text x="50" y="256" fill="rgba(255,255,255,0.6)" font-size="11">🤖 AI 인프라 투자</text>
  <text x="50" y="278" fill="white" font-size="14" font-weight="700">CAPEX 확대</text>
  <text x="50" y="296" fill="rgba(255,255,255,0.35)" font-size="11">GPU 클러스터 · 데이터센터</text>

  <rect x="264" y="234" width="220" height="72" rx="8" fill="rgba(255,255,255,0.04)" stroke="rgba(255,255,255,0.06)"/>
  <text x="284" y="256" fill="rgba(255,255,255,0.6)" font-size="11">🥽 AR/VR 하드웨어</text>
  <text x="284" y="278" fill="white" font-size="14" font-weight="700">Orion AR 글래스</text>
  <text x="284" y="296" fill="rgba(255,255,255,0.35)" font-size="11">Ray-Ban 후속 제품 라인</text>

  <rect x="498" y="234" width="272" height="72" rx="8" fill="#4ade80" fill-opacity="0.05" stroke="#4ade80" stroke-opacity="0.12"/>
  <text x="518" y="256" fill="#4ade80" font-size="11">💼 M&amp;A / 전략적 투자</text>
  <text x="518" y="278" fill="white" font-size="14" font-weight="700">AI 스타트업 인수</text>
  <text x="518" y="296" fill="rgba(255,255,255,0.35)" font-size="11">Llama 생태계 강화</text>

  <!-- market impact -->
  <text x="30" y="336" fill="rgba(255,255,255,0.4)" font-size="11" font-weight="700" letter-spacing="1">시장 영향 분석</text>
  <rect x="30" y="348" width="350" height="58" rx="8" fill="rgba(255,77,109,0.06)" stroke="rgba(255,77,109,0.12)"/>
  <text x="50" y="370" fill="#ff4d6d" font-size="11" font-weight="700">단기 부정적</text>
  <text x="50" y="390" fill="rgba(255,255,255,0.5)" font-size="12">신주 발행 = 주당 희석 효과 → 단기 조정 압력</text>

  <rect x="400" y="348" width="370" height="58" rx="8" fill="#4ade80" fill-opacity="0.05" stroke="#4ade80" stroke-opacity="0.12"/>
  <text x="420" y="370" fill="#4ade80" font-size="11" font-weight="700">중장기 긍정적</text>
  <text x="420" y="390" fill="rgba(255,255,255,0.5)" font-size="12">AI 투자 확대 → 매출 성장 가속 → 주가 재평가</text>

  <text x="400" y="430" fill="rgba(255,255,255,0.2)" font-size="10" text-anchor="middle">Investus · investus.kr</text>
</svg>
