<svg xmlns="http://www.w3.org/2000/svg" viewBox="0 0 800 440" width="800" height="440" style="background:#0d1117;font-family:'SF Pro Display',Arial,sans-serif">
  <rect width="800" height="440" rx="12" fill="#0d1117"/>
  <text x="400" y="36" text-anchor="middle" fill="#60a5fa" font-size="13" font-weight="700">MU · Micron Technology</text>
  <text x="400" y="62" text-anchor="middle" fill="#e6edf3" font-size="20" font-weight="700">Micron Op. Income 2027E $157B — 120x Growth in 3 Years</text>
  <text x="400" y="84" text-anchor="middle" fill="#7d8590" font-size="13">AI memory demand explosion · HBM exclusive supply beneficiary</text>
  <line x1="40" y1="96" x2="760" y2="96" stroke="#21262d" stroke-width="1"/>

  <line x1="60" y1="310" x2="740" y2="310" stroke="#21262d" stroke-width="1"/>
  <line x1="60" y1="200" x2="740" y2="200" stroke="#21262d" stroke-width="1" stroke-dasharray="4,4"/>
  <text x="54" y="204" text-anchor="end" fill="#7d8590" font-size="10">$80K</text>
  <line x1="60" y1="160" x2="740" y2="160" stroke="#21262d" stroke-width="1" stroke-dasharray="4,4"/>
  <text x="54" y="164" text-anchor="end" fill="#7d8590" font-size="10">$100K</text>

  <rect x="80" y="306" width="80" height="4" rx="2" fill="#60a5fa" opacity="0.4"/>
  <text x="120" y="296" text-anchor="middle" fill="#7d8590" font-size="11">$1,304</text>
  <text x="120" y="328" text-anchor="middle" fill="#7d8590" font-size="11">Aug'24</text>

  <rect x="195" y="297" width="80" height="13" rx="2" fill="#60a5fa" opacity="0.5"/>
  <text x="235" y="287" text-anchor="middle" fill="#7d8590" font-size="11">$9,770</text>
  <text x="235" y="328" text-anchor="middle" fill="#7d8590" font-size="11">Aug'25</text>

  <rect x="310" y="271" width="80" height="39" rx="2" fill="#60a5fa" opacity="0.6"/>
  <text x="350" y="261" text-anchor="middle" fill="#7d8590" font-size="11">$28,094</text>
  <text x="350" y="328" text-anchor="middle" fill="#7d8590" font-size="11">LTM</text>

  <rect x="425" y="199" width="80" height="111" rx="2" fill="#60a5fa" opacity="0.75"/>
  <text x="465" y="189" text-anchor="middle" fill="#e6edf3" font-size="11" font-weight="600">$80,998</text>
  <text x="465" y="328" text-anchor="middle" fill="#e6edf3" font-size="11">Aug'26E</text>

  <rect x="540" y="94" width="80" height="216" rx="4" fill="#60a5fa"/>
  <text x="580" y="84" text-anchor="middle" fill="#60a5fa" font-size="14" font-weight="800">$157,198</text>
  <text x="580" y="328" text-anchor="middle" fill="#60a5fa" font-size="12" font-weight="700">Aug'27E</text>

  <rect x="650" y="110" width="140" height="100" rx="8" fill="#0a1628"/>
  <text x="720" y="138" text-anchor="middle" fill="#60a5fa" font-size="13" font-weight="600">Growth</text>
  <text x="720" y="162" text-anchor="middle" fill="#e6edf3" font-size="22" font-weight="800">+120x</text>
  <text x="720" y="184" text-anchor="middle" fill="#7d8590" font-size="12">vs Aug 2024</text>
  <text x="720" y="202" text-anchor="middle" fill="#7d8590" font-size="11">3-year op. income</text>

  <rect x="40" y="342" width="720" height="58" rx="8" fill="#0a1628"/>
  <text x="400" y="366" text-anchor="middle" fill="#60a5fa" font-size="13" font-weight="600">AI Memory's Biggest Beneficiary — HBM4 Likely Sole Supplier</text>
  <text x="400" y="386" text-anchor="middle" fill="#7d8590" font-size="12">NVIDIA Rubin Ultra adopts HBM4 → Direct MU revenue · AI training memory bottleneck resolved</text>

  <line x1="40" y1="412" x2="760" y2="412" stroke="#21262d" stroke-width="1"/>
  <text x="400" y="428" text-anchor="middle" fill="#444c56" font-size="10">Source: @StockSavvyShay / Fiscal.ai · investus.kr</text>
</svg>
