<svg xmlns="http://www.w3.org/2000/svg" viewBox="0 0 800 440" font-family="'Segoe UI',Arial,sans-serif">
  <rect width="800" height="440" fill="#0a0f1e"/>
  <rect x="0" y="0" width="800" height="52" fill="#111827"/>
  <text x="30" y="32" font-size="15" font-weight="700" fill="#76c442">🏛️ 펠로시 NVDA 매입 $219.31 — 규제 직전 포착</text>
  <text x="30" y="47" font-size="10" fill="#6b7280">Nancy Pelosi Stock Tracker · 2026.06.04</text>

  <!-- Pelosi card -->
  <rect x="30" y="65" width="300" height="175" rx="12" fill="#1a1a2e" stroke="#7c3aed" stroke-width="1.5"/>
  <!-- Capitol icon -->
  <rect x="130" y="82" width="60" height="35" rx="4" fill="#2d1b69"/>
  <rect x="140" y="70" width="40" height="15" rx="2" fill="#3b1f8c"/>
  <rect x="150" y="64" width="20" height="10" rx="2" fill="#5b21b6"/>
  <text x="160" y="78" font-size="8" fill="#c084fc" text-anchor="middle">🏛️</text>
  <text x="160" y="90" font-size="9" fill="#c084fc" text-anchor="middle">HOUSE</text>
  <text x="160" y="103" font-size="8" fill="#9ca3af" text-anchor="middle">Nancy Pelosi</text>
  <text x="160" y="118" font-size="8" fill="#6b7280" text-anchor="middle">D-California</text>

  <text x="160" y="148" font-size="11" fill="#9ca3af" text-anchor="middle">매입 단가</text>
  <text x="160" y="185" font-size="52" font-weight="900" fill="white" text-anchor="middle">$219</text>
  <text x="160" y="205" font-size="10" fill="#76c442" text-anchor="middle">.31 per share</text>
  <text x="160" y="225" font-size="8" fill="#6b7280" text-anchor="middle">NVDA 주식 매입</text>

  <!-- NVDA price context -->
  <rect x="345" y="65" width="415" height="175" rx="12" fill="#111827"/>
  <text x="553" y="90" font-size="11" font-weight="700" fill="#76c442" text-anchor="middle">NVDA 주가 vs 펠로시 매입가</text>

  <!-- Price bar chart simplified -->
  <rect x="365" y="105" width="375" height="120" rx="8" fill="#0d1117"/>
  <!-- Bars showing NVDA price context -->
  <text x="400" y="126" font-size="8" fill="#6b7280">Pelosi 매입가</text>
  <rect x="470" y="118" width="200" height="14" rx="3" fill="#7c3aed" opacity="0.6"/>
  <text x="676" y="129" font-size="9" font-weight="700" fill="#c084fc">$219.31</text>

  <text x="400" y="152" font-size="8" fill="#6b7280">이후 주가 (횡보)</text>
  <rect x="470" y="144" width="200" height="14" rx="3" fill="#76c442" opacity="0.6"/>
  <text x="676" y="155" font-size="9" font-weight="700" fill="#76c442">~$218 flat</text>

  <text x="400" y="178" font-size="8" fill="#6b7280">규제 논의 시작</text>
  <rect x="470" y="170" width="140" height="14" rx="3" fill="#ef4444" opacity="0.4"/>
  <text x="676" y="181" font-size="9" fill="#9ca3af">의회 규제 논의 중</text>

  <text x="400" y="204" font-size="8" fill="#6b7280">매입 직후 패턴</text>
  <rect x="470" y="196" width="200" height="14" rx="3" fill="#fbbf24" opacity="0.3"/>
  <text x="676" y="207" font-size="9" fill="#fbbf24">역사적 수익률 ↑</text>

  <text x="553" y="232" font-size="8" fill="#9ca3af" text-anchor="middle">* NVDA is practically flat since Pelosi bought</text>

  <!-- "Pelosi indicator" -->
  <rect x="30" y="255" width="740" height="88" rx="12" fill="#111827"/>
  <text x="400" y="277" font-size="11" font-weight="700" fill="#c084fc" text-anchor="middle">펠로시 지표 (Pelosi Indicator)</text>

  <rect x="50" y="288" width="330" height="43" rx="8" fill="#2d1b69" opacity="0.5"/>
  <text x="215" y="306" font-size="9" fill="#9ca3af" text-anchor="middle">👵 역사적 수익률</text>
  <text x="215" y="321" font-size="10" font-weight="700" fill="#c084fc" text-anchor="middle">펠로시 포트폴리오, S&amp;P500 수익률 지속 아웃퍼폼</text>
  <text x="215" y="333" font-size="8" fill="#9ca3af" text-anchor="middle">"PelosiTracker" 밈 투자 전략 유행</text>

  <rect x="400" y="288" width="350" height="43" rx="8" fill="#1a0a0a" opacity="0.8"/>
  <text x="575" y="306" font-size="9" fill="#9ca3af" text-anchor="middle">⚠️ 규제 압력</text>
  <text x="575" y="321" font-size="10" font-weight="700" fill="#ef4444" text-anchor="middle">의원 주식 거래 금지법 논의 中</text>
  <text x="575" y="333" font-size="8" fill="#9ca3af" text-anchor="middle">AI 규제 입법 직전 매입 — 타이밍 논란</text>

  <!-- Bottom quote -->
  <rect x="30" y="357" width="740" height="55" rx="12" fill="#111827"/>
  <text x="400" y="378" font-size="10" fill="#9ca3af" text-anchor="middle">NVDA 베어 측: "AI ROI 없다" vs 펠로시: NVDA 대규모 매입</text>
  <text x="400" y="396" font-size="10" fill="#9ca3af" text-anchor="middle">→ 내부 정보 우위 혹은 AI 장기 확신? 어느 쪽이든 시장 신호로 주목받는 중</text>
  <text x="400" y="412" font-size="8" fill="#6b7280" text-anchor="middle">출처: Nancy Pelosi Stock Tracker (@PelosiTracker)</text>

  <text x="770" y="430" font-size="9" fill="#6b7280">investus.kr</text>
</svg>
