<svg xmlns="http://www.w3.org/2000/svg" viewBox="0 0 600 440" width="600" height="440">
  <defs><linearGradient id="bge8" x1="0" y1="0" x2="0" y2="1"><stop offset="0%" stop-color="#0f1923"/><stop offset="100%" stop-color="#0a1018"/></linearGradient></defs>
  <rect width="600" height="440" fill="url(#bge8)" rx="16"/>
  <rect x="20" y="18" width="90" height="26" rx="6" fill="#60a5fa" opacity="0.2"/>
  <text x="65" y="36" text-anchor="middle" font-family="Arial,sans-serif" font-size="13" font-weight="700" fill="#60a5fa">NVDA</text>
  <text x="122" y="36" font-family="Arial,sans-serif" font-size="13" fill="#94a3b8">2026.06.16</text>
  <text x="300" y="76" text-anchor="middle" font-family="Arial,sans-serif" font-size="18" font-weight="700" fill="#f1f5f9">Google Turns to Samsung for AI Chip</text>
  <text x="300" y="100" text-anchor="middle" font-family="Arial,sans-serif" font-size="16" fill="#94a3b8">TSMC Capacity Full — 10th Gen TPU to Samsung</text>
  <rect x="40" y="114" width="520" height="1" fill="#1e293b" opacity="0.8"/>
  <rect x="40" y="130" width="140" height="70" rx="10" fill="#4285f4" opacity="0.12"/>
  <rect x="40" y="130" width="140" height="70" rx="10" fill="none" stroke="#4285f4" stroke-width="1.5" opacity="0.5"/>
  <text x="110" y="162" text-anchor="middle" font-family="Arial,sans-serif" font-size="16" font-weight="700" fill="#93c5fd">Google</text>
  <text x="110" y="180" text-anchor="middle" font-family="Arial,sans-serif" font-size="11" fill="#64748b">TPU Gen 10</text>
  <text x="110" y="194" text-anchor="middle" font-family="Arial,sans-serif" font-size="10" fill="#475569">Changing foundry</text>
  <line x1="180" y1="165" x2="240" y2="165" stroke="#475569" stroke-width="2" stroke-dasharray="5,3"/>
  <polygon points="240,160 252,165 240,170" fill="#475569"/>
  <rect x="190" y="148" width="48" height="18" rx="4" fill="#7f1d1d" opacity="0.7"/>
  <text x="214" y="161" text-anchor="middle" font-family="Arial,sans-serif" font-size="9" fill="#fca5a5">TSMC Full</text>
  <rect x="252" y="130" width="120" height="70" rx="10" fill="#1e293b" opacity="0.7"/>
  <rect x="252" y="130" width="120" height="70" rx="10" fill="none" stroke="#475569" stroke-width="1" opacity="0.4" stroke-dasharray="4,3"/>
  <text x="312" y="162" text-anchor="middle" font-family="Arial,sans-serif" font-size="14" fill="#475569">TSMC</text>
  <text x="312" y="180" text-anchor="middle" font-family="Arial,sans-serif" font-size="10" fill="#334155">Saturated by</text>
  <text x="312" y="193" text-anchor="middle" font-family="Arial,sans-serif" font-size="10" fill="#334155">NVDA &amp; Apple</text>
  <line x1="352" y1="133" x2="372" y2="153" stroke="#ef4444" stroke-width="2.5" opacity="0.7"/>
  <line x1="372" y1="133" x2="352" y2="153" stroke="#ef4444" stroke-width="2.5" opacity="0.7"/>
  <line x1="180" y1="165" x2="180" y2="220" stroke="#60a5fa" stroke-width="2"/>
  <line x1="180" y1="220" x2="420" y2="220" stroke="#60a5fa" stroke-width="2"/>
  <polygon points="415,215 427,220 415,225" fill="#60a5fa"/>
  <rect x="427" y="200" width="133" height="70" rx="10" fill="#60a5fa" opacity="0.12"/>
  <rect x="427" y="200" width="133" height="70" rx="10" fill="none" stroke="#60a5fa" stroke-width="1.5" opacity="0.5"/>
  <text x="493" y="232" text-anchor="middle" font-family="Arial,sans-serif" font-size="16" font-weight="700" fill="#60a5fa">Samsung</text>
  <text x="493" y="250" text-anchor="middle" font-family="Arial,sans-serif" font-size="11" fill="#94a3b8">Alt Foundry</text>
  <text x="493" y="264" text-anchor="middle" font-family="Arial,sans-serif" font-size="10" fill="#60a5fa">NVDA demand impact</text>
  <text x="40" y="298" font-family="Arial,sans-serif" font-size="12" font-weight="700" fill="#64748b">Market Implications</text>
  <rect x="40" y="304" width="520" height="1" fill="#1e293b"/>
  <rect x="40" y="312" width="4" height="16" rx="2" fill="#60a5fa"/>
  <text x="52" y="324" font-family="Arial,sans-serif" font-size="12" fill="#e2e8f0">TSMC at capacity = NVDA GPU demand dominating foundry</text>
  <rect x="40" y="336" width="4" height="16" rx="2" fill="#60a5fa"/>
  <text x="52" y="348" font-family="Arial,sans-serif" font-size="12" fill="#e2e8f0">Google TPU in-house development challenges NVDA long-term</text>
  <rect x="40" y="360" width="4" height="16" rx="2" fill="#60a5fa"/>
  <text x="52" y="372" font-family="Arial,sans-serif" font-size="12" fill="#e2e8f0">Samsung gaining AI chip foundry wins — narrowing tech gap</text>
  <rect x="40" y="384" width="4" height="16" rx="2" fill="#fbbf24"/>
  <text x="52" y="396" font-family="Arial,sans-serif" font-size="12" fill="#fbbf24">Near-term impact limited — NVDA H100/B200 demand dominant</text>
  <text x="300" y="428" text-anchor="middle" font-family="Arial,sans-serif" font-size="11" fill="#475569">Source: Google Turns to Samsung for Next AI Chip</text>
</svg>
