<svg xmlns="http://www.w3.org/2000/svg" viewBox="0 0 800 460" font-family="'Segoe UI',Arial,sans-serif">
  <rect width="800" height="460" fill="#0a0f1e"/>
  <rect x="0" y="0" width="800" height="52" fill="#111827"/>
  <text x="30" y="32" font-size="15" font-weight="700" fill="#60a5fa">🔵 NVIDIA — Celestial AI 인수 · 광학 인터커넥트 · AI 인프라 수직통합</text>
  <text x="30" y="47" font-size="10" fill="#6b7280">GPU → 인터커넥트 → ASIC → 엣지 4레이어 완전 지배 · FY2028 $37B 인터커넥트 시장</text>

  <!-- Left: AI Stack Pyramid/Layers -->
  <rect x="30" y="68" width="340" height="260" rx="10" fill="#111827"/>
  <text x="200" y="90" font-size="11" font-weight="700" fill="#60a5fa" text-anchor="middle">NVIDIA AI 인프라 스택</text>

  <!-- Layer 1: GPU (widest, bottom-ish, most important) -->
  <rect x="55" y="102" width="290" height="44" rx="6" fill="#1e40af"/>
  <text x="200" y="120" font-size="11" font-weight="700" fill="white" text-anchor="middle">① GPU</text>
  <text x="200" y="136" font-size="9" fill="#bfdbfe" text-anchor="middle">H100·H200·Blackwell·Rubin — AI 연산 핵심</text>

  <!-- Arrow down -->
  <line x1="200" y1="146" x2="200" y2="154" stroke="#60a5fa" stroke-width="1.5" stroke-dasharray="3,2"/>
  <polygon points="195,154 205,154 200,160" fill="#60a5fa"/>

  <!-- Layer 2: Interconnect (new!) -->
  <rect x="70" y="162" width="260" height="44" rx="6" fill="#1d4ed8"/>
  <text x="200" y="178" font-size="10" font-weight="700" fill="white" text-anchor="middle">② 광학 인터커넥트</text>
  <text x="200" y="194" font-size="9" fill="#bfdbfe" text-anchor="middle">NVLink + Celestial AI · 10x 대역폭 · 70% 전력↓</text>

  <!-- Arrow down -->
  <line x1="200" y1="206" x2="200" y2="214" stroke="#60a5fa" stroke-width="1.5" stroke-dasharray="3,2"/>
  <polygon points="195,214 205,214 200,220" fill="#60a5fa"/>

  <!-- Layer 3: ASIC Custom -->
  <rect x="85" y="222" width="230" height="40" rx="6" fill="#1e3a8a"/>
  <text x="200" y="238" font-size="10" font-weight="700" fill="#93c5fd" text-anchor="middle">③ ASIC 커스텀 칩</text>
  <text x="200" y="253" font-size="9" fill="#6b7280" text-anchor="middle">Trainium · TPU · Maia (Amazon·Google·MS)</text>

  <!-- Arrow down -->
  <line x1="200" y1="262" x2="200" y2="270" stroke="#60a5fa" stroke-width="1.5" stroke-dasharray="3,2"/>
  <polygon points="195,270 205,270 200,276" fill="#60a5fa"/>

  <!-- Layer 4: NXM Edge -->
  <rect x="100" y="278" width="200" height="36" rx="6" fill="#1e3a5f"/>
  <text x="200" y="293" font-size="10" font-weight="700" fill="#6b7280" text-anchor="middle">④ NXM 엣지 칩</text>
  <text x="200" y="308" font-size="9" fill="#6b7280" text-anchor="middle">소비자·엣지 AI 전용</text>

  <!-- Right: Celestial AI + Market -->
  <rect x="390" y="68" width="380" height="260" rx="10" fill="#111827"/>
  <text x="410" y="90" font-size="11" font-weight="700" fill="#60a5fa">Celestial AI 인수 — 무엇이 달라지나</text>

  <!-- Copper vs Optical comparison -->
  <text x="410" y="112" font-size="10" fill="#9ca3af">기존 구리 케이블</text>
  <rect x="410" y="118" width="120" height="16" rx="3" fill="#374151"/>
  <text x="538" y="130" font-size="9" fill="#9ca3af">1x 대역폭</text>

  <text x="410" y="148" font-size="10" font-weight="700" fill="#00e5a0">Celestial AI 광학</text>
  <rect x="410" y="154" width="280" height="16" rx="3" fill="#00e5a0" opacity="0.8"/>
  <text x="698" y="166" font-size="10" font-weight="700" fill="#00e5a0">10x 대역폭</text>

  <text x="410" y="186" font-size="9" fill="#6b7280">전력 소비 70% 절감 · GPU 병목 완전 해소</text>

  <!-- Market size big number -->
  <rect x="410" y="198" width="340" height="60" rx="8" fill="#0a1628"/>
  <text x="580" y="220" font-size="10" fill="#9ca3af" text-anchor="middle">FY2028 광학 인터커넥트 시장</text>
  <text x="580" y="248" font-size="38" font-weight="900" fill="#60a5fa" text-anchor="middle">$37B</text>

  <!-- Hyperscaler lock-in -->
  <text x="410" y="276" font-size="10" font-weight="700" fill="#e2e8f0">Hyperscaler 고객 구조</text>
  <rect x="410" y="283" width="75" height="22" rx="4" fill="#1e3a8a"/>
  <text x="447" y="298" font-size="9" fill="#93c5fd" text-anchor="middle">Amazon</text>
  <rect x="495" y="283" width="60" height="22" rx="4" fill="#1e3a8a"/>
  <text x="525" y="298" font-size="9" fill="#93c5fd" text-anchor="middle">Google</text>
  <rect x="565" y="283" width="70" height="22" rx="4" fill="#1e3a8a"/>
  <text x="600" y="298" font-size="9" fill="#93c5fd" text-anchor="middle">Microsoft</text>
  <rect x="645" y="283" width="55" height="22" rx="4" fill="#1e3a8a"/>
  <text x="672" y="298" font-size="9" fill="#93c5fd" text-anchor="middle">Meta</text>
  <text x="410" y="320" font-size="9" fill="#6b7280">→ 4사 합산 FY2026 매출 ~80% · GPU + 인터커넥트 = 대체 불가 솔루션</text>

  <!-- Bottom row: Revenue projection -->
  <rect x="30" y="342" width="740" height="96" rx="10" fill="#0a1628"/>
  <text x="50" y="362" font-size="11" font-weight="700" fill="#60a5fa">수익 구조 확장 전망</text>

  <!-- Revenue bars -->
  <text x="50" y="382" font-size="10" fill="#9ca3af">FY2026 GPU 매출</text>
  <rect x="170" y="372" width="280" height="14" rx="3" fill="#1e40af"/>
  <text x="458" y="383" font-size="10" font-weight="700" fill="#60a5fa">~$175B</text>

  <text x="50" y="402" font-size="10" fill="#9ca3af">FY2028 인터커넥트 추가</text>
  <rect x="170" y="392" width="80" height="14" rx="3" fill="#00e5a0" opacity="0.7"/>
  <text x="458" y="403" font-size="10" font-weight="700" fill="#00e5a0">+$37B</text>

  <text x="50" y="422" font-size="10" fill="#6b7280">FY2027 매출 추정</text>
  <rect x="170" y="412" width="340" height="14" rx="3" fill="#1d4ed8" opacity="0.5"/>
  <text x="458" y="423" font-size="10" font-weight="700" fill="#e2e8f0">~$308B (컨센서스)</text>
  <text x="710" y="432" font-size="9" fill="#6b7280">investus.kr</text>
</svg>
