<svg xmlns="http://www.w3.org/2000/svg" viewBox="0 0 1080 1080" width="1080" height="1080">
  <defs>
    <linearGradient id="bg" x1="0%" y1="0%" x2="100%" y2="100%"><stop offset="0%" style="stop-color:#0d1117"/><stop offset="100%" style="stop-color:#0a1628"/></linearGradient>
    <linearGradient id="g" x1="0%" y1="0%" x2="100%" y2="0%"><stop offset="0%" style="stop-color:#60a5fa"/><stop offset="100%" style="stop-color:#3b82f6"/></linearGradient>
  </defs>
  <rect width="1080" height="1080" fill="url(#bg)"/>
  <rect width="1080" height="1080" fill="none" stroke="#1f2937" stroke-width="2"/>
  <rect x="0" y="0" width="1080" height="5" fill="url(#g)"/>
  
  <rect x="40" y="20" width="110" height="38" rx="19" fill="#60a5fa30" stroke="#60a5fa" stroke-width="1.5"/>
  <text x="95" y="44" font-family="Arial Black,Arial" font-size="16" font-weight="900" fill="#60a5fa" text-anchor="middle">NVDA</text>
  <text x="540" y="46" font-family="Arial" font-size="13" fill="#6b7280" text-anchor="middle" letter-spacing="3">INVESTUS DAILY REPORT</text>
  <rect x="900" y="20" width="148" height="38" rx="19" fill="#1f2937" stroke="#374151"/>
  <text x="974" y="44" font-family="Arial" font-size="14" fill="#9ca3af" text-anchor="middle">2026.07.17</text>
  <text x="540" y="102" font-family="Arial Black,Arial" font-size="28" font-weight="900" fill="#f9fafb" text-anchor="middle">젠슨 황 — “AI 사이클은 이제 시작”</text>
  <line x1="80" y1="120" x2="1000" y2="120" stroke="#1f2937" stroke-width="1"/>
  
  <rect x="390" y="150" width="300" height="44" rx="22" fill="#60a5fa33" stroke="#60a5fa"/>
  <text x="540" y="180" font-family="Arial Black,Arial" font-size="18" fill="#60a5fa" text-anchor="middle">CEO COMMENT</text>
  <rect x="80" y="230" width="920" height="340" rx="20" fill="#0a1628" stroke="#60a5fa" stroke-width="2"/>
  <text x="540" y="320" font-family="Arial" font-size="48" text-anchor="middle">💬</text>
  <text x="120" y="400" font-family="Arial" font-size="26" fill="#e5e7eb">기술 사이클은 보통 10~15년 지속된 뒤 정체한다. AI 사이클은 이제 시작이다.</text>
  <text x="120" y="520" font-family="Arial" font-size="20" fill="#9ca3af">— Jensen Huang, NVIDIA CEO</text>
  
  <rect x="120" y="620" width="240" height="70" rx="35" fill="#0a1628" stroke="#60a5fa"/>
  <text x="240" y="664" font-family="Arial Black,Arial" font-size="22" fill="#60a5fa" text-anchor="middle">10–15년</text>
  <rect x="400" y="620" width="240" height="70" rx="35" fill="#0a1628" stroke="#60a5fa"/>
  <text x="520" y="664" font-family="Arial Black,Arial" font-size="22" fill="#60a5fa" text-anchor="middle">초기 국면</text>
  <rect x="680" y="620" width="240" height="70" rx="35" fill="#0a1628" stroke="#60a5fa"/>
  <text x="800" y="664" font-family="Arial Black,Arial" font-size="22" fill="#60a5fa" text-anchor="middle">장기 수요</text>
  <text x="100" y="760" font-family="Arial" font-size="18" fill="#6b7280">Source: Burry Tracker / NVIDIA · 2026.07.16</text>
  
  <text x="540" y="960" font-family="Arial" font-size="21" fill="#374151" text-anchor="middle">NVDA · Jensen AI Cycle 10–15Y · 2026.07.17</text>
  <rect x="0" y="1060" width="1080" height="20" fill="#60a5fa" opacity=".4"/>
  <text x="540" y="1074" font-family="Arial" font-size="11" fill="#6b7280" text-anchor="middle" letter-spacing="1.5">investus.kr SRP 최고투자책임자 발행</text>
</svg>
