<svg xmlns="http://www.w3.org/2000/svg" viewBox="0 0 600 400" width="600" height="400">
  <defs>
    <linearGradient id="bg9" x1="0" y1="0" x2="0" y2="1">
      <stop offset="0%" stop-color="#0f1923"/>
      <stop offset="100%" stop-color="#0a1018"/>
    </linearGradient>
  </defs>
  <rect width="600" height="400" fill="url(#bg9)" rx="16"/>

  <!-- Header -->
  <rect x="20" y="18" width="80" height="26" rx="6" fill="#fb923c" opacity="0.2"/>
  <text x="60" y="36" text-anchor="middle" font-family="Arial,sans-serif" font-size="13" font-weight="700" fill="#fb923c">매크로</text>
  <text x="112" y="36" font-family="Arial,sans-serif" font-size="13" fill="#94a3b8">2026.06.17 · 유가</text>

  <!-- Title -->
  <text x="300" y="76" text-anchor="middle" font-family="Arial,sans-serif" font-size="18" font-weight="700" fill="#f1f5f9">이란 유조선 호르무즈 해협 통과</text>
  <text x="300" y="100" text-anchor="middle" font-family="Arial,sans-serif" font-size="22" font-weight="900" fill="#fb923c">유가 $50 하회</text>
  <text x="300" y="120" text-anchor="middle" font-family="Arial,sans-serif" font-size="13" fill="#94a3b8">Trump "봉쇄 해제" — 예측대로 실현</text>

  <rect x="40" y="134" width="520" height="1" fill="#2a1000" opacity="0.8"/>

  <!-- What happened -->
  <rect x="40" y="148" width="4" height="16" rx="2" fill="#fb923c"/>
  <text x="52" y="160" font-family="Arial,sans-serif" font-size="12" fill="#e2e8f0">이란 유조선 1척, 호르무즈 해협 통과 — Trump 봉쇄 해제 직후</text>

  <rect x="40" y="172" width="4" height="16" rx="2" fill="#fb923c"/>
  <text x="52" y="184" font-family="Arial,sans-serif" font-size="12" fill="#e2e8f0">Trump "내가 예측한 대로 됐다" — 원유 공급 정상화 신호</text>

  <rect x="40" y="196" width="4" height="16" rx="2" fill="#fb923c"/>
  <text x="52" y="208" font-family="Arial,sans-serif" font-size="12" fill="#e2e8f0">WTI 유가 $50 하회 — 2024년 고점($90) 대비 44% 급락</text>

  <rect x="40" y="220" width="520" height="1" fill="#1e293b"/>

  <!-- Impact analysis -->
  <text x="40" y="244" font-family="Arial,sans-serif" font-size="13" font-weight="700" fill="#64748b">시장 영향</text>

  <!-- Winners -->
  <rect x="40" y="254" width="240" height="90" rx="10" fill="#00e5a0" opacity="0.05"/>
  <rect x="40" y="254" width="240" height="90" rx="10" fill="none" stroke="#00e5a0" stroke-width="1" opacity="0.2"/>
  <text x="160" y="276" text-anchor="middle" font-family="Arial,sans-serif" font-size="12" font-weight="700" fill="#00e5a0">수혜</text>
  <text x="60" y="298" font-family="Arial,sans-serif" font-size="11" fill="#94a3b8">✓ 항공·운송: 연료비 감소</text>
  <text x="60" y="316" font-family="Arial,sans-serif" font-size="11" fill="#94a3b8">✓ 소비자 물가 하락 → 금리 인하 기대</text>
  <text x="60" y="334" font-family="Arial,sans-serif" font-size="11" fill="#94a3b8">✓ EV 경쟁력 상대적 약화(단기)</text>

  <!-- Losers -->
  <rect x="320" y="254" width="240" height="90" rx="10" fill="#ef4444" opacity="0.05"/>
  <rect x="320" y="254" width="240" height="90" rx="10" fill="none" stroke="#ef4444" stroke-width="1" opacity="0.2"/>
  <text x="440" y="276" text-anchor="middle" font-family="Arial,sans-serif" font-size="12" font-weight="700" fill="#ef4444">피해</text>
  <text x="340" y="298" font-family="Arial,sans-serif" font-size="11" fill="#94a3b8">✗ XOM·CVX·COP 등 에너지주</text>
  <text x="340" y="316" font-family="Arial,sans-serif" font-size="11" fill="#94a3b8">✗ 사우디 아람코 수익 감소</text>
  <text x="340" y="334" font-family="Arial,sans-serif" font-size="11" fill="#94a3b8">✗ 셰일 기업 손익 분기점 위협</text>

  <text x="300" y="382" text-anchor="middle" font-family="Arial,sans-serif" font-size="11" fill="#475569">Source: Twitter Breaking News / WTI 선물 데이터 2026.06.17</text>
</svg>
