<svg xmlns="http://www.w3.org/2000/svg" width="1080" height="1080" viewBox="0 0 1080 1080">
  <defs>
    <linearGradient id="bg" x1="0%" y1="0%" x2="100%" y2="100%">
      <stop offset="0%" style="stop-color:#0d1117"/>
      <stop offset="100%" style="stop-color:#0a1810"/>
    </linearGradient>
  </defs>
  <rect width="1080" height="1080" fill="url(#bg)"/>
  <!-- Header -->
  <rect width="1080" height="80" fill="#111318"/>
  <text x="540" y="30" font-family="Arial,sans-serif" font-size="13" fill="#9ca3af" text-anchor="middle">OpenAI · IPO + Jalapeño Chip</text>
  <text x="540" y="62" font-family="Arial,sans-serif" font-size="26" font-weight="bold" fill="#e5e7eb" text-anchor="middle">OpenAI Leaning to DELAY IPO + Unveils Jalapeño Custom AI Chip</text>
  <!-- Accent line (split: red left, green right) -->
  <rect y="80" width="540" height="3" fill="#ef4444"/>
  <rect x="540" y="80" width="540" height="3" fill="#4ade80"/>
  <!-- Split divider -->
  <line x1="540" y1="90" x2="540" y2="710" stroke="#333" stroke-width="2"/>
  <!-- LEFT: IPO DELAYED -->
  <text x="270" y="145" font-family="Arial,sans-serif" font-size="22" font-weight="bold" fill="#f87171" text-anchor="middle">🚫 IPO Delayed</text>
  <!-- Warning triangle -->
  <polygon points="270,175 200,295 340,295" fill="#ef4444" opacity="0.2" stroke="#ef4444" stroke-width="2"/>
  <text x="270" y="255" font-family="Arial,sans-serif" font-size="48" fill="#ef4444" text-anchor="middle">⚠</text>
  <text x="270" y="318" font-family="Arial,sans-serif" font-size="52" font-weight="bold" fill="#f87171" text-anchor="middle">DELAYED</text>
  <text x="270" y="358" font-family="Arial,sans-serif" font-size="20" fill="#e5e7eb" text-anchor="middle">IPO Delay Likely</text>
  <!-- IPO details -->
  <rect x="30" y="378" width="480" height="65" rx="8" fill="#2d0a0a" stroke="#f87171" stroke-width="1"/>
  <text x="270" y="404" font-family="Arial,sans-serif" font-size="15" fill="#f87171" text-anchor="middle">Reason: SpaceX IPO Changed Landscape</text>
  <text x="270" y="425" font-family="Arial,sans-serif" font-size="13" fill="#9ca3af" text-anchor="middle">Market Saturation + Investor Preference Shift</text>
  <rect x="30" y="453" width="480" height="55" rx="8" fill="#2d0a0a" stroke="#f87171" stroke-width="1"/>
  <text x="270" y="480" font-family="Arial,sans-serif" font-size="15" fill="#e5e7eb" text-anchor="middle">$1T Valuation Target Maintained</text>
  <text x="270" y="498" font-family="Arial,sans-serif" font-size="13" fill="#9ca3af" text-anchor="middle">Goal Unchanged — Only Timing Adjusted</text>
  <rect x="30" y="518" width="480" height="55" rx="8" fill="#2d0a0a" stroke="#f87171" stroke-width="1"/>
  <text x="270" y="545" font-family="Arial,sans-serif" font-size="15" fill="#e5e7eb" text-anchor="middle">2026 IPO → Under Review</text>
  <text x="270" y="563" font-family="Arial,sans-serif" font-size="13" fill="#9ca3af" text-anchor="middle">Original 2026 Plan → Now Delayed Direction</text>
  <rect x="30" y="583" width="480" height="55" rx="8" fill="#2d0a0a" stroke="#ef4444" stroke-width="1"/>
  <text x="270" y="610" font-family="Arial,sans-serif" font-size="15" fill="#f87171" text-anchor="middle">SpaceX IPO Impact</text>
  <text x="270" y="628" font-family="Arial,sans-serif" font-size="13" fill="#9ca3af" text-anchor="middle">SPCX Listing Intensifies AI IPO Market Competition</text>
  <!-- RIGHT: Jalapeño Chip -->
  <text x="810" y="145" font-family="Arial,sans-serif" font-size="22" font-weight="bold" fill="#4ade80" text-anchor="middle">✅ Jalapeño Chip</text>
  <!-- Chip icon -->
  <g transform="translate(690, 175)">
    <rect x="0" y="0" width="120" height="100" rx="8" fill="#14532d" stroke="#4ade80" stroke-width="2.5"/>
    <rect x="10" y="10" width="100" height="80" rx="4" fill="#166534" opacity="0.6"/>
    <line x1="0" y1="20" x2="-12" y2="20" stroke="#4ade80" stroke-width="3"/>
    <line x1="0" y1="35" x2="-12" y2="35" stroke="#4ade80" stroke-width="3"/>
    <line x1="0" y1="50" x2="-12" y2="50" stroke="#4ade80" stroke-width="3"/>
    <line x1="0" y1="65" x2="-12" y2="65" stroke="#4ade80" stroke-width="3"/>
    <line x1="0" y1="80" x2="-12" y2="80" stroke="#4ade80" stroke-width="3"/>
    <line x1="120" y1="20" x2="132" y2="20" stroke="#4ade80" stroke-width="3"/>
    <line x1="120" y1="35" x2="132" y2="35" stroke="#4ade80" stroke-width="3"/>
    <line x1="120" y1="50" x2="132" y2="50" stroke="#4ade80" stroke-width="3"/>
    <line x1="120" y1="65" x2="132" y2="65" stroke="#4ade80" stroke-width="3"/>
    <line x1="120" y1="80" x2="132" y2="80" stroke="#4ade80" stroke-width="3"/>
    <line x1="25" y1="0" x2="25" y2="-12" stroke="#4ade80" stroke-width="3"/>
    <line x1="45" y1="0" x2="45" y2="-12" stroke="#4ade80" stroke-width="3"/>
    <line x1="65" y1="0" x2="65" y2="-12" stroke="#4ade80" stroke-width="3"/>
    <line x1="85" y1="0" x2="85" y2="-12" stroke="#4ade80" stroke-width="3"/>
    <line x1="105" y1="0" x2="105" y2="-12" stroke="#4ade80" stroke-width="3"/>
    <text x="60" y="58" font-family="Arial,sans-serif" font-size="22" fill="#4ade80" text-anchor="middle">🌶</text>
  </g>
  <text x="810" y="315" font-family="Arial,sans-serif" font-size="46" font-weight="bold" fill="#4ade80" text-anchor="middle">Jalapeño</text>
  <text x="810" y="358" font-family="Arial,sans-serif" font-size="20" fill="#e5e7eb" text-anchor="middle">OpenAI's First Custom AI Chip</text>
  <!-- Jalapeño details -->
  <rect x="560" y="378" width="480" height="65" rx="8" fill="#0a2010" stroke="#4ade80" stroke-width="1"/>
  <text x="800" y="404" font-family="Arial,sans-serif" font-size="15" fill="#4ade80" text-anchor="middle">Development Time: Only 9 Months</text>
  <text x="800" y="425" font-family="Arial,sans-serif" font-size="13" fill="#9ca3af" text-anchor="middle">Ultra-Fast Development Completed with Apple's Help</text>
  <rect x="560" y="453" width="480" height="55" rx="8" fill="#0a2010" stroke="#4ade80" stroke-width="1"/>
  <text x="800" y="480" font-family="Arial,sans-serif" font-size="15" fill="#e5e7eb" text-anchor="middle">Co-Developed with Apple</text>
  <text x="800" y="498" font-family="Arial,sans-serif" font-size="13" fill="#9ca3af" text-anchor="middle">Joint Design with Apple Engineering Team</text>
  <rect x="560" y="518" width="480" height="55" rx="8" fill="#0a2010" stroke="#4ade80" stroke-width="1"/>
  <text x="800" y="545" font-family="Arial,sans-serif" font-size="15" fill="#e5e7eb" text-anchor="middle">NVIDIA Independence Strategy</text>
  <text x="800" y="563" font-family="Arial,sans-serif" font-size="13" fill="#9ca3af" text-anchor="middle">Own AI Inference Chip → GPU Cost Dramatically Cut</text>
  <rect x="560" y="583" width="480" height="55" rx="8" fill="#0a2010" stroke="#4ade80" stroke-width="1"/>
  <text x="800" y="610" font-family="Arial,sans-serif" font-size="15" fill="#4ade80" text-anchor="middle">AI Inference Optimized</text>
  <text x="800" y="628" font-family="Arial,sans-serif" font-size="13" fill="#9ca3af" text-anchor="middle">GPT Inference-Specific Design — Cost Efficiency Max</text>
  <!-- Stats row -->
  <rect x="40" y="730" width="230" height="110" rx="10" fill="#2d0a0a" stroke="#f87171" stroke-width="1.5"/>
  <text x="155" y="765" font-family="Arial,sans-serif" font-size="13" fill="#9ca3af" text-anchor="middle">IPO Status</text>
  <text x="155" y="820" font-family="Arial,sans-serif" font-size="32" font-weight="bold" fill="#f87171" text-anchor="middle">Delayed</text>
  <rect x="290" y="730" width="230" height="110" rx="10" fill="#2d0a0a" stroke="#f87171" stroke-width="1.5"/>
  <text x="405" y="765" font-family="Arial,sans-serif" font-size="13" fill="#9ca3af" text-anchor="middle">Valuation Target</text>
  <text x="405" y="820" font-family="Arial,sans-serif" font-size="32" font-weight="bold" fill="#e5e7eb" text-anchor="middle">$1T</text>
  <rect x="540" y="730" width="230" height="110" rx="10" fill="#0a2010" stroke="#4ade80" stroke-width="1.5"/>
  <text x="655" y="765" font-family="Arial,sans-serif" font-size="13" fill="#9ca3af" text-anchor="middle">Jalapeño Dev Time</text>
  <text x="655" y="820" font-family="Arial,sans-serif" font-size="32" font-weight="bold" fill="#4ade80" text-anchor="middle">9 Months</text>
  <rect x="790" y="730" width="250" height="110" rx="10" fill="#0a2010" stroke="#4ade80" stroke-width="2"/>
  <text x="915" y="765" font-family="Arial,sans-serif" font-size="13" fill="#9ca3af" text-anchor="middle">Own Chip Strategy</text>
  <text x="915" y="820" font-family="Arial,sans-serif" font-size="28" font-weight="bold" fill="#4ade80" text-anchor="middle">Independent ↑</text>
  <!-- Summary -->
  <rect x="40" y="866" width="1002" height="60" rx="8" fill="#161b22" stroke="#333" stroke-width="1"/>
  <text x="540" y="890" font-family="Arial,sans-serif" font-size="15" fill="#e5e7eb" text-anchor="middle">IPO Delay (Negative) ↔ Jalapeño Custom Chip (Positive) — Independence Strategy Accelerates</text>
  <text x="540" y="912" font-family="Arial,sans-serif" font-size="13" fill="#9ca3af" text-anchor="middle">NVIDIA Dependency Reduction + Cost Structure Improvement → Long-Term Profitability Enhanced</text>
  <!-- Footer -->
  <rect y="950" width="1080" height="80" fill="#111318"/>
  <rect y="950" width="540" height="2" fill="#ef4444"/>
  <rect x="540" y="950" width="540" height="2" fill="#4ade80"/>
  <text x="540" y="990" font-family="Arial,sans-serif" font-size="16" font-weight="bold" fill="#e5e7eb" text-anchor="middle">OpenAI IPO Delay + Jalapeño Chip — Independence &amp; Self-Reliance Accelerate</text>
  <text x="540" y="1014" font-family="Arial,sans-serif" font-size="12" fill="#9ca3af" text-anchor="middle">INVESTUS · 2026.06.26 · For Reference Only</text>
  <rect y="1040" width="1080" height="40" fill="#0d1117"/>
  <text x="540" y="1066" font-family="Arial,sans-serif" font-size="12" fill="#9ca3af" text-anchor="middle">OpenAI · IPO Delayed · Jalapeño 9-Month Build · Apple Collaboration</text>
</svg>