<svg xmlns="http://www.w3.org/2000/svg" viewBox="0 0 1080 1080" width="1080" height="1080">
  <defs>
    <linearGradient id="bg" x1="0%" y1="0%" x2="100%" y2="100%"><stop offset="0%" style="stop-color:#0d1117"/><stop offset="100%" style="stop-color:#0a1628"/></linearGradient>
    <linearGradient id="g" x1="0%" y1="0%" x2="100%" y2="0%"><stop offset="0%" style="stop-color:#60a5fa"/><stop offset="100%" style="stop-color:#3b82f6"/></linearGradient>
  </defs>
  <rect width="1080" height="1080" fill="url(#bg)"/>
  <rect width="1080" height="1080" fill="none" stroke="#1f2937" stroke-width="2"/>
  <rect x="0" y="0" width="1080" height="5" fill="url(#g)"/>
  
  <rect x="40" y="20" width="110" height="38" rx="19" fill="#60a5fa30" stroke="#60a5fa" stroke-width="1.5"/>
  <text x="95" y="44" font-family="Arial Black,Arial" font-size="16" font-weight="900" fill="#60a5fa" text-anchor="middle">QQQ</text>
  <text x="540" y="46" font-family="Arial" font-size="13" fill="#6b7280" text-anchor="middle" letter-spacing="3">INVESTUS DAILY REPORT</text>
  <rect x="900" y="20" width="148" height="38" rx="19" fill="#1f2937" stroke="#374151"/>
  <text x="974" y="44" font-family="Arial" font-size="14" fill="#9ca3af" text-anchor="middle">2026.07.17</text>
  <text x="540" y="102" font-family="Arial Black,Arial" font-size="28" font-weight="900" fill="#f9fafb" text-anchor="middle">Nasdaq 100 — ±1% Moves in 20 of 26 Days</text>
  <line x1="80" y1="120" x2="1000" y2="120" stroke="#1f2937" stroke-width="1"/>
  
  <rect x="400" y="145" width="280" height="42" rx="21" fill="#ef444433" stroke="#ef4444"/>
  <text x="540" y="174" font-family="Arial Black,Arial" font-size="18" fill="#f87171" text-anchor="middle">BREAKING</text>
  <text x="540" y="240" font-family="Arial" font-size="44" text-anchor="middle">⚡</text>
  <text x="540" y="320" font-family="Arial Black,Arial" font-size="72" font-weight="900" fill="#60a5fa" text-anchor="middle">20 / 26</text>
  <text x="540" y="370" font-family="Arial" font-size="20" fill="#9ca3af" text-anchor="middle">20 of last 26 sessions moved ≥1% either way</text>
  
  <rect x="80" y="420" width="440" height="75" rx="14" fill="#0a1628" stroke="#60a5fa" stroke-width="1.5"/>
  <text x="300" y="466" font-family="Arial Black,Arial" font-size="22" fill="#f9fafb" text-anchor="middle">COVID-19</text>
  <rect x="540" y="420" width="440" height="75" rx="14" fill="#0a1628" stroke="#60a5fa" stroke-width="1.5"/>
  <text x="760" y="466" font-family="Arial Black,Arial" font-size="22" fill="#f9fafb" text-anchor="middle">2022 Bear</text>
  <rect x="80" y="510" width="440" height="75" rx="14" fill="#0a1628" stroke="#60a5fa" stroke-width="1.5"/>
  <text x="300" y="556" font-family="Arial Black,Arial" font-size="22" fill="#f9fafb" text-anchor="middle">GFC</text>
  <rect x="540" y="510" width="440" height="75" rx="14" fill="#0a1628" stroke="#60a5fa" stroke-width="1.5"/>
  <text x="760" y="556" font-family="Arial Black,Arial" font-size="22" fill="#f9fafb" text-anchor="middle">Dot-com</text>
  
  <rect x="60" y="620" width="960" height="180" rx="16" fill="#0f172a" stroke="#374151"/>
  <text x="540" y="664" font-family="Arial" font-size="20" fill="#6b7280" text-anchor="middle" letter-spacing="2">Historical Context</text>
  <text x="100" y="710" font-family="Arial" font-size="24" fill="#e5e7eb">📉 This volatility cluster is rare outside crisis/bubble regimes</text>
<text x="100" y="752" font-family="Arial" font-size="24" fill="#e5e7eb">👀 Frequency of ‘big days’ itself is a risk signal</text>
  <text x="100" y="772" font-family="Arial" font-size="18" fill="#6b7280">Source: Barchart / Bloomberg · 2026.07.16</text>
  
  <text x="540" y="960" font-family="Arial" font-size="21" fill="#374151" text-anchor="middle">QQQ · Nasdaq 100 Volatility 20/26 · 2026.07.17</text>
  <rect x="0" y="1060" width="1080" height="20" fill="#60a5fa" opacity=".4"/>
  <text x="540" y="1074" font-family="Arial" font-size="11" fill="#6b7280" text-anchor="middle" letter-spacing="1.5">investus.kr SRP Chief Investment Officer</text>
</svg>
