<svg xmlns="http://www.w3.org/2000/svg" viewBox="0 0 800 450" width="800" height="450">
  <defs>
    <linearGradient id="bg" x1="0" y1="0" x2="1" y2="1"><stop offset="0%" stop-color="#0a0f1e"/><stop offset="100%" stop-color="#0f1a2e"/></linearGradient>
    <linearGradient id="spx" x1="0" y1="1" x2="0" y2="0"><stop offset="0%" stop-color="#00b580"/><stop offset="100%" stop-color="#00e5a0"/></linearGradient>
  </defs>
  <rect width="800" height="450" fill="url(#bg)"/>
  <text x="400" y="35" text-anchor="middle" fill="#00e5a0" font-size="12" font-family="Arial" font-weight="bold" letter-spacing="3">S&amp;P 500 · 역사적 신고가</text>
  <text x="400" y="60" text-anchor="middle" fill="#e2e8f0" font-size="20" font-family="Arial" font-weight="bold">ATH 경신 +0.96% — CPI·이란 리스크 병존</text>
  <!-- Mini chart -->
  <text x="55" y="92" fill="#94a3b8" font-size="11" font-family="Arial" font-weight="bold">S&amp;P 500 주간 추이</text>
  <line x1="100" y1="100" x2="560" y2="100" stroke="rgba(255,255,255,0.04)" stroke-width="1"/>
  <line x1="100" y1="150" x2="560" y2="150" stroke="rgba(255,255,255,0.04)" stroke-width="1"/>
  <line x1="100" y1="200" x2="560" y2="200" stroke="rgba(255,255,255,0.04)" stroke-width="1"/>
  <line x1="100" y1="250" x2="560" y2="250" stroke="rgba(255,255,255,0.04)" stroke-width="1"/>
  <text x="92" y="103" text-anchor="end" fill="#475569" font-size="9" font-family="Arial">6,000</text>
  <text x="92" y="153" text-anchor="end" fill="#475569" font-size="9" font-family="Arial">5,800</text>
  <text x="92" y="203" text-anchor="end" fill="#475569" font-size="9" font-family="Arial">5,600</text>
  <text x="92" y="253" text-anchor="end" fill="#475569" font-size="9" font-family="Arial">5,400</text>
  <polyline points="110,230 170,210 230,200 290,180 350,160 410,130 470,110 530,102" stroke="#00e5a0" stroke-width="2.5" fill="none"/>
  <polygon points="110,230 170,210 230,200 290,180 350,160 410,130 470,110 530,102 530,280 110,280" fill="rgba(0,229,160,0.07)"/>
  <!-- ATH label -->
  <circle cx="530" cy="102" r="7" fill="rgba(0,229,160,0.3)" stroke="#00e5a0" stroke-width="2"/>
  <text x="530" y="90" text-anchor="middle" fill="#00e5a0" font-size="10" font-family="Arial" font-weight="bold">ATH ↑</text>
  <!-- X labels -->
  <text x="110" y="300" text-anchor="middle" fill="#64748b" font-size="10" font-family="Arial">4/26</text>
  <text x="230" y="300" text-anchor="middle" fill="#64748b" font-size="10" font-family="Arial">4/29</text>
  <text x="350" y="300" text-anchor="middle" fill="#64748b" font-size="10" font-family="Arial">5/06</text>
  <text x="470" y="300" text-anchor="middle" fill="#64748b" font-size="10" font-family="Arial">5/12</text>
  <text x="530" y="300" text-anchor="middle" fill="#64748b" font-size="10" font-family="Arial">5/14</text>
  <!-- Right panel: Stats -->
  <rect x="585" y="88" width="195" height="220" rx="10" fill="rgba(0,229,160,0.05)" stroke="rgba(0,229,160,0.2)" stroke-width="1"/>
  <text x="683" y="112" text-anchor="middle" fill="#00e5a0" font-size="12" font-family="Arial" font-weight="bold">주간 핵심 지표</text>
  <line x1="600" y1="120" x2="765" y2="120" stroke="rgba(0,229,160,0.15)" stroke-width="1"/>
  <text x="600" y="140" fill="#94a3b8" font-size="10" font-family="Arial">S&amp;P 500 주간 수익</text>
  <text x="765" y="140" text-anchor="end" fill="#00e5a0" font-size="11" font-family="Arial" font-weight="bold">+0.96%</text>
  <text x="600" y="160" fill="#94a3b8" font-size="10" font-family="Arial">시총 주간 증가</text>
  <text x="765" y="160" text-anchor="end" fill="#00e5a0" font-size="11" font-family="Arial" font-weight="bold">+$350B</text>
  <text x="600" y="180" fill="#94a3b8" font-size="10" font-family="Arial">EPS 상회 비율</text>
  <text x="765" y="180" text-anchor="end" fill="#60a5fa" font-size="11" font-family="Arial" font-weight="bold">74%</text>
  <text x="600" y="200" fill="#94a3b8" font-size="10" font-family="Arial">ATH 연속 행진</text>
  <text x="765" y="200" text-anchor="end" fill="#60a5fa" font-size="11" font-family="Arial" font-weight="bold">2019.07 이후 最長</text>
  <line x1="600" y1="212" x2="765" y2="212" stroke="rgba(239,68,68,0.2)" stroke-width="1"/>
  <text x="600" y="230" fill="#ef4444" font-size="10" font-family="Arial" font-weight="bold">⚠ 리스크</text>
  <text x="600" y="248" fill="#fca5a5" font-size="10" font-family="Arial">CPI 예상: +3.7%</text>
  <text x="600" y="265" fill="#fca5a5" font-size="10" font-family="Arial">미-이란 호르무즈 긴장</text>
  <text x="600" y="282" fill="#fca5a5" font-size="10" font-family="Arial">SOXX RSI 81 과매수</text>
  <!-- Bottom -->
  <rect x="55" y="340" width="490" height="52" rx="8" fill="rgba(255,255,255,0.02)" stroke="rgba(255,255,255,0.06)" stroke-width="1"/>
  <text x="300" y="359" text-anchor="middle" fill="#94a3b8" font-size="11" font-family="Arial" font-weight="bold">섹터별 리더</text>
  <text x="110" y="379" text-anchor="middle" fill="#00e5a0" font-size="10" font-family="Arial">광학통신 LITE·COHR</text>
  <text x="280" y="379" text-anchor="middle" fill="#60a5fa" font-size="10" font-family="Arial">AI칩 Cerebras IPO↑</text>
  <text x="440" y="379" text-anchor="middle" fill="#fbbf24" font-size="10" font-family="Arial">스테이블코인 Circle</text>
  <text x="400" y="430" text-anchor="middle" fill="#334155" font-size="10" font-family="Arial">SUNRYU Partners CIO · 2026.05.14</text>
</svg>
