<svg xmlns="http://www.w3.org/2000/svg" viewBox="0 0 600 440" width="600" height="440">
  <defs><linearGradient id="bge14" x1="0" y1="0" x2="0" y2="1"><stop offset="0%" stop-color="#0f1923"/><stop offset="100%" stop-color="#0a1018"/></linearGradient></defs>
  <rect width="600" height="440" fill="url(#bge14)" rx="16"/>
  <rect x="20" y="18" width="90" height="26" rx="6" fill="#f87171" opacity="0.2"/>
  <text x="65" y="36" text-anchor="middle" font-family="Arial,sans-serif" font-size="13" font-weight="700" fill="#f87171">Geopolit.</text>
  <text x="122" y="36" font-family="Arial,sans-serif" font-size="13" fill="#94a3b8">2026.06.16</text>
  <text x="600" y="36" text-anchor="end" font-family="Arial,sans-serif" font-size="11" fill="#f87171">Polymarket</text>
  <text x="300" y="76" text-anchor="middle" font-family="Arial,sans-serif" font-size="17" font-weight="700" fill="#f1f5f9">US Military Action Against Cuba</text>
  <text x="300" y="100" text-anchor="middle" font-family="Arial,sans-serif" font-size="19" font-weight="900" fill="#f87171">63% (+23pp) — Polymarket</text>
  <rect x="40" y="114" width="520" height="1" fill="#2a0f0f" opacity="0.8"/>
  <rect x="180" y="126" width="240" height="80" rx="12" fill="#f87171" opacity="0.08"/>
  <rect x="180" y="126" width="240" height="80" rx="12" fill="none" stroke="#f87171" stroke-width="1.5" opacity="0.4"/>
  <text x="300" y="158" text-anchor="middle" font-family="Arial,sans-serif" font-size="46" font-weight="900" fill="#f87171">63%</text>
  <text x="300" y="182" text-anchor="middle" font-family="Arial,sans-serif" font-size="12" fill="#94a3b8">Dec 31, 2026 deadline | +23pp surge</text>
  <text x="300" y="200" text-anchor="middle" font-family="Arial,sans-serif" font-size="11" fill="#64748b">Volume: $6,073,821</text>
  <text x="40" y="226" font-family="Arial,sans-serif" font-size="12" font-weight="700" fill="#64748b">1-Week Probability Trend (Jun 9 → Jun 16)</text>
  <rect x="40" y="232" width="520" height="1" fill="#1e293b"/>
  <rect x="40" y="240" width="520" height="90" rx="6" fill="#0d1a26" opacity="0.6"/>
  <text x="38" y="254" text-anchor="end" font-family="Arial,sans-serif" font-size="9" fill="#475569">65%</text>
  <text x="38" y="290" text-anchor="end" font-family="Arial,sans-serif" font-size="9" fill="#475569">40%</text>
  <line x1="45" y1="251" x2="555" y2="251" stroke="#1e293b" stroke-width="1" stroke-dasharray="3,3"/>
  <line x1="45" y1="287" x2="555" y2="287" stroke="#1e293b" stroke-width="1" stroke-dasharray="3,3"/>
  <polyline points="55,280 120,278 190,276 255,274 320,270 390,260 460,248 545,248" fill="none" stroke="#f87171" stroke-width="2.5" opacity="0.8"/>
  <polyline points="460,268 490,255 520,248 545,248" fill="none" stroke="#f87171" stroke-width="3"/>
  <polygon points="55,280 120,278 190,276 255,274 320,270 390,260 460,248 545,248 545,325 55,325" fill="#f87171" opacity="0.1"/>
  <text x="55" y="338" text-anchor="middle" font-family="Arial,sans-serif" font-size="9" fill="#475569">6/9</text>
  <text x="190" y="338" text-anchor="middle" font-family="Arial,sans-serif" font-size="9" fill="#475569">6/11</text>
  <text x="320" y="338" text-anchor="middle" font-family="Arial,sans-serif" font-size="9" fill="#475569">6/13</text>
  <text x="460" y="338" text-anchor="middle" font-family="Arial,sans-serif" font-size="9" fill="#475569">6/15</text>
  <text x="545" y="338" font-family="Arial,sans-serif" font-size="9" fill="#f87171" font-weight="700">6/16</text>
  <rect x="40" y="352" width="520" height="52" rx="10" fill="#2a0f0f" opacity="0.8"/>
  <text x="300" y="371" text-anchor="middle" font-family="Arial,sans-serif" font-size="13" font-weight="700" fill="#f87171">Military Action → SPCX Potential Beneficiary</text>
  <text x="300" y="391" text-anchor="middle" font-family="Arial,sans-serif" font-size="11" fill="#94a3b8">Starlink military comms · SpaceX govt contracts surge scenario</text>
  <text x="300" y="425" text-anchor="middle" font-family="Arial,sans-serif" font-size="10" fill="#475569">Source: Polymarket | US Military Action Against Cuba (by Dec 31, 2026)</text>
</svg>
