<svg xmlns="http://www.w3.org/2000/svg" viewBox="0 0 600 440" width="600" height="440">
  <defs><linearGradient id="bge11" x1="0" y1="0" x2="0" y2="1"><stop offset="0%" stop-color="#0f1923"/><stop offset="100%" stop-color="#0a1018"/></linearGradient></defs>
  <rect width="600" height="440" fill="url(#bge11)" rx="16"/>
  <rect x="20" y="18" width="90" height="26" rx="6" fill="#c084fc" opacity="0.2"/>
  <text x="65" y="36" text-anchor="middle" font-family="Arial,sans-serif" font-size="13" font-weight="700" fill="#c084fc">SPCX</text>
  <text x="122" y="36" font-family="Arial,sans-serif" font-size="13" fill="#94a3b8">2026.06.16</text>
  <text x="600" y="36" text-anchor="end" font-family="Arial,sans-serif" font-size="12" fill="#c084fc">$179.02</text>
  <text x="300" y="76" text-anchor="middle" font-family="Arial,sans-serif" font-size="19" font-weight="700" fill="#f1f5f9">SpaceX IPO Total Raised</text>
  <text x="300" y="100" text-anchor="middle" font-family="Arial,sans-serif" font-size="21" font-weight="900" fill="#c084fc">$85.7 Billion Confirmed</text>
  <rect x="40" y="114" width="520" height="1" fill="#2a1a40" opacity="0.8"/>
  <rect x="150" y="126" width="300" height="90" rx="14" fill="#c084fc" opacity="0.08"/>
  <rect x="150" y="126" width="300" height="90" rx="14" fill="none" stroke="#c084fc" stroke-width="1.5" opacity="0.4"/>
  <text x="300" y="183" text-anchor="middle" font-family="Arial,sans-serif" font-size="52" font-weight="900" fill="#c084fc">$85.7B</text>
  <text x="300" y="205" text-anchor="middle" font-family="Arial,sans-serif" font-size="12" fill="#94a3b8">Largest IPO ever — confirmed</text>
  <text x="40" y="236" font-family="Arial,sans-serif" font-size="12" font-weight="700" fill="#64748b">Historical IPO Size Comparison ($B)</text>
  <rect x="40" y="242" width="520" height="1" fill="#1e293b"/>
  <text x="40" y="264" font-family="Arial,sans-serif" font-size="12" fill="#c084fc" font-weight="700">SpaceX 2026</text>
  <rect x="160" y="252" width="360" height="20" rx="4" fill="#c084fc" opacity="0.75"/>
  <rect x="160" y="252" width="360" height="20" rx="4" fill="none" stroke="#c084fc" stroke-width="1"/>
  <text x="524" y="266" text-anchor="end" font-family="Arial,sans-serif" font-size="12" font-weight="700" fill="#c084fc">$85.7B</text>
  <text x="40" y="292" font-family="Arial,sans-serif" font-size="12" fill="#64748b">Saudi Aramco 2019</text>
  <rect x="160" y="280" width="233" height="20" rx="4" fill="#475569" opacity="0.6"/>
  <text x="524" y="294" text-anchor="end" font-family="Arial,sans-serif" font-size="12" fill="#64748b">$29.4B</text>
  <text x="40" y="320" font-family="Arial,sans-serif" font-size="12" fill="#64748b">Alibaba 2014</text>
  <rect x="160" y="308" width="186" height="20" rx="4" fill="#475569" opacity="0.5"/>
  <text x="524" y="322" text-anchor="end" font-family="Arial,sans-serif" font-size="12" fill="#64748b">$25.0B</text>
  <rect x="40" y="342" width="4" height="16" rx="2" fill="#c084fc"/>
  <text x="52" y="354" font-family="Arial,sans-serif" font-size="12" fill="#e2e8f0">SpaceX 2025 revenue $18.7B — IPO raise is 4.6x annual revenue</text>
  <rect x="40" y="366" width="4" height="16" rx="2" fill="#c084fc"/>
  <text x="52" y="378" font-family="Arial,sans-serif" font-size="12" fill="#e2e8f0">$4B+ directly to SpaceX for R&amp;D and Starship programs</text>
  <rect x="40" y="390" width="4" height="16" rx="2" fill="#c084fc"/>
  <text x="52" y="402" font-family="Arial,sans-serif" font-size="12" fill="#e2e8f0">Stock at $179.02 — above IPO-day close of $172.68</text>
  <text x="300" y="428" text-anchor="middle" font-family="Arial,sans-serif" font-size="11" fill="#475569">Source: SpaceX IPO Filing / Market Data 2026.06.16</text>
</svg>
