<svg xmlns="http://www.w3.org/2000/svg" viewBox="0 0 480 480">
  <rect width="480" height="480" fill="#0a0c10"/>
  <rect x="0" y="0" width="480" height="64" fill="#111318"/>
  <rect x="0" y="60" width="480" height="2" fill="#c084fc" opacity="0.3"/>
  <text x="24" y="26" font-family="Arial,sans-serif" font-size="11" fill="#c084fc" font-weight="bold">SPCX · 종목분석</text>
  <text x="24" y="46" font-family="Arial,sans-serif" font-size="14" fill="#e5e7eb" font-weight="bold">상장 첫날 선물 $167.07 — +23.7%</text>

  <!-- Price comparison -->
  <text x="24" y="100" font-family="Arial,sans-serif" font-size="12" fill="#6b7280" font-weight="bold">■ Hyperliquid 선물 가격 vs 공모가</text>

  <!-- IPO bar -->
  <text x="24" y="128" font-family="Arial,sans-serif" font-size="11" fill="#9ca3af">공모가 (IPO)</text>
  <rect x="24" y="134" width="276" height="28" rx="6" fill="rgba(192,132,252,0.2)"/>
  <rect x="24" y="134" width="276" height="28" rx="6" fill="none" stroke="#c084fc" stroke-width="1" opacity="0.4"/>
  <text x="36" y="153" font-family="Arial,sans-serif" font-size="14" fill="#c084fc" font-weight="bold">$135.00</text>
  <text x="310" y="153" font-family="Arial,sans-serif" font-size="13" fill="#c084fc">기준점</text>

  <!-- Futures bar -->
  <text x="24" y="186" font-family="Arial,sans-serif" font-size="11" fill="#9ca3af">Hyperliquid 선물</text>
  <rect x="24" y="192" width="340" height="28" rx="6" fill="rgba(0,229,160,0.2)"/>
  <rect x="24" y="192" width="340" height="28" rx="6" fill="none" stroke="#00e5a0" stroke-width="1" opacity="0.4"/>
  <text x="36" y="211" font-family="Arial,sans-serif" font-size="14" fill="#00e5a0" font-weight="bold">$167.07</text>
  <text x="374" y="211" font-family="Arial,sans-serif" font-size="13" fill="#00e5a0">+23.7%</text>

  <!-- Premium highlight -->
  <rect x="24" y="238" width="432" height="64" rx="12" fill="#0d1f14"/>
  <rect x="24" y="238" width="432" height="64" rx="12" fill="none" stroke="#00e5a0" stroke-width="1" opacity="0.5"/>
  <text x="240" y="262" font-family="Arial,sans-serif" font-size="13" fill="#9ca3af" text-anchor="middle">상장 첫날 프리미엄</text>
  <text x="240" y="291" font-family="Arial,sans-serif" font-size="30" fill="#00e5a0" text-anchor="middle" font-weight="bold">+$32.07 (+23.7%)</text>

  <!-- Details -->
  <text x="24" y="330" font-family="Arial,sans-serif" font-size="12" fill="#6b7280" font-weight="bold">■ 상장일 주요 지표</text>

  <rect x="24" y="342" width="136" height="56" rx="8" fill="#111318"/>
  <text x="92" y="363" font-family="Arial,sans-serif" font-size="11" fill="#9ca3af" text-anchor="middle">공모가</text>
  <text x="92" y="386" font-family="Arial,sans-serif" font-size="18" fill="#c084fc" text-anchor="middle" font-weight="bold">$135</text>

  <rect x="172" y="342" width="136" height="56" rx="8" fill="#111318"/>
  <text x="240" y="363" font-family="Arial,sans-serif" font-size="11" fill="#9ca3af" text-anchor="middle">선물 가격</text>
  <text x="240" y="386" font-family="Arial,sans-serif" font-size="18" fill="#00e5a0" text-anchor="middle" font-weight="bold">$167.07</text>

  <rect x="320" y="342" width="136" height="56" rx="8" fill="#111318"/>
  <text x="388" y="363" font-family="Arial,sans-serif" font-size="11" fill="#9ca3af" text-anchor="middle">상승률</text>
  <text x="388" y="386" font-family="Arial,sans-serif" font-size="18" fill="#00e5a0" text-anchor="middle" font-weight="bold">+23.7%</text>

  <!-- Context -->
  <rect x="24" y="414" width="432" height="44" rx="10" fill="#111318"/>
  <text x="240" y="432" font-family="Arial,sans-serif" font-size="11" fill="#9ca3af" text-anchor="middle">Hyperliquid은 탈중앙화 선물 거래소 — 상장 전후 시장 기대 반영</text>
  <text x="240" y="450" font-family="Arial,sans-serif" font-size="10" fill="#6b7280" text-anchor="middle">실제 나스닥 개장가는 선물과 다를 수 있음</text>

  <text x="240" y="472" font-family="Arial,sans-serif" font-size="10" fill="#4b5563" text-anchor="middle">2026.06.12 · Investus · 투자 참고용</text>
</svg>
