<svg xmlns="http://www.w3.org/2000/svg" viewBox="0 0 800 440" width="800" height="440" style="background:#0d1117;font-family:'SF Pro Display',Arial,sans-serif">
  <rect width="800" height="440" rx="12" fill="#0d1117"/>
  <text x="400" y="36" text-anchor="middle" fill="#c084fc" font-size="13" font-weight="700">SPCX · SpaceX</text>
  <text x="400" y="62" text-anchor="middle" fill="#e6edf3" font-size="20" font-weight="700">SpaceX $2.29B Space Force Contract — National Security Backbone</text>
  <text x="400" y="84" text-anchor="middle" fill="#7d8590" font-size="13">Starlink → US military core infrastructure · Space Operations Network</text>
  <line x1="40" y1="96" x2="760" y2="96" stroke="#21262d" stroke-width="1"/>

  <rect x="240" y="112" width="320" height="90" rx="10" fill="#1c1026"/>
  <rect x="240" y="112" width="320" height="4" rx="2" fill="#c084fc"/>
  <text x="400" y="155" text-anchor="middle" fill="#c084fc" font-size="42" font-weight="800">$2.29B</text>
  <text x="400" y="185" text-anchor="middle" fill="#7d8590" font-size="12">Space Force Contract · Space Operations Network Backbone</text>

  <rect x="40" y="216" width="340" height="120" rx="8" fill="#161b22"/>
  <text x="210" y="244" text-anchor="middle" fill="#c084fc" font-size="13" font-weight="600">Contract Scope</text>
  <text x="60" y="268" fill="#e6edf3" font-size="13">Contract Type</text><text x="360" y="268" text-anchor="end" fill="#c084fc" font-size="13">Space Ops Network Backbone</text>
  <text x="60" y="292" fill="#e6edf3" font-size="13">Client</text><text x="360" y="292" text-anchor="end" fill="#7d8590" font-size="13">US Space Force</text>
  <text x="60" y="316" fill="#e6edf3" font-size="13">Service</text><text x="360" y="316" text-anchor="end" fill="#7d8590" font-size="13">Starlink satellite comms + data</text>

  <rect x="420" y="216" width="340" height="120" rx="8" fill="#161b22"/>
  <text x="590" y="244" text-anchor="middle" fill="#c084fc" font-size="13" font-weight="600">Cumulative Gov't Contracts</text>
  <text x="440" y="268" fill="#7d8590" font-size="12">NASA Commercial Crew</text><text x="740" y="268" text-anchor="end" fill="#c084fc" font-size="12">$4.93B</text>
  <text x="440" y="292" fill="#7d8590" font-size="12">NSSL Phase 3</text><text x="740" y="292" text-anchor="end" fill="#c084fc" font-size="12">$11.5B</text>
  <text x="440" y="316" fill="#7d8590" font-size="12">Space Force New</text><text x="740" y="316" text-anchor="end" fill="#c084fc" font-size="12">$2.29B</text>

  <rect x="40" y="350" width="720" height="58" rx="8" fill="#1c1026"/>
  <text x="400" y="374" text-anchor="middle" fill="#c084fc" font-size="13" font-weight="600">SpaceX = Center of US Military Space Infrastructure</text>
  <text x="400" y="394" text-anchor="middle" fill="#7d8590" font-size="12">Starlink handles critical US military data relay · Generational dependency lock-in</text>

  <line x1="40" y1="420" x2="760" y2="420" stroke="#21262d" stroke-width="1"/>
  <text x="400" y="434" text-anchor="middle" fill="#444c56" font-size="10">Source: America News / Space Force · investus.kr</text>
</svg>
