<svg xmlns="http://www.w3.org/2000/svg" viewBox="0 0 800 500" width="800" height="500" style="background:#0d1117;font-family:'Arial',sans-serif">
  <rect width="800" height="500" rx="12" fill="#0d1117"/>
  <text x="400" y="36" text-anchor="middle" fill="#c084fc" font-size="13" font-weight="700">SPCX · SpaceX</text>
  <text x="400" y="62" text-anchor="middle" fill="#e6edf3" font-size="20" font-weight="700">Cash: $34.7B → $100.8B — 3x Surge</text>
  <text x="400" y="84" text-anchor="middle" fill="#7d8590" font-size="13">Current vs FY2025 end · Context for bond issuance push</text>
  <line x1="40" y1="96" x2="760" y2="96" stroke="#21262d" stroke-width="1"/>

  <!-- Bar chart -->
  <text x="60" y="128" fill="#7d8590" font-size="12">FY25 End</text>
  <rect x="150" y="110" width="193" height="36" rx="4" fill="#4b2d6b"/>
  <text x="353" y="133" fill="#c084fc" font-size="13" font-weight="700">$34.7B</text>

  <text x="60" y="180" fill="#c084fc" font-size="12" font-weight="700">Current</text>
  <rect x="150" y="162" width="560" height="36" rx="4" fill="#c084fc"/>
  <text x="720" y="185" fill="#e6edf3" font-size="14" font-weight="800">$100.8B</text>

  <!-- Growth -->
  <text x="400" y="230" text-anchor="middle" fill="#c084fc" font-size="22" font-weight="800">+$66.1B (+190%)</text>
  <text x="400" y="252" text-anchor="middle" fill="#7d8590" font-size="12">Cash tripled in ~6 months</text>

  <!-- 2 boxes -->
  <rect x="40" y="270" width="348" height="140" rx="8" fill="#161b22"/>
  <rect x="40" y="270" width="348" height="4" rx="2" fill="#c084fc"/>
  <text x="214" y="298" text-anchor="middle" fill="#c084fc" font-size="13" font-weight="600">Why Cash Surged</text>
  <text x="60" y="322" fill="#e6edf3" font-size="12">Starlink subscription revenue growth</text>
  <text x="60" y="344" fill="#e6edf3" font-size="12">Gov. contracts (Space Force etc.)</text>
  <text x="60" y="366" fill="#7d8590" font-size="11">Pre-IPO capital raise completed</text>
  <text x="60" y="388" fill="#7d8590" font-size="11">Bond proceeds to be included</text>

  <rect x="412" y="270" width="348" height="140" rx="8" fill="#161b22"/>
  <rect x="412" y="270" width="348" height="4" rx="2" fill="#c084fc"/>
  <text x="586" y="298" text-anchor="middle" fill="#c084fc" font-size="13" font-weight="600">How It Will Be Used</text>
  <text x="432" y="322" fill="#e6edf3" font-size="12">Repay bridge loan (replace w/ bonds)</text>
  <text x="432" y="344" fill="#e6edf3" font-size="12">Starlink V3 satellite capex</text>
  <text x="432" y="366" fill="#7d8590" font-size="11">Colossus AI infrastructure build-out</text>
  <text x="432" y="388" fill="#7d8590" font-size="11">General corporate purposes</text>

  <line x1="40" y1="422" x2="760" y2="422" stroke="#21262d" stroke-width="1"/>
  <text x="400" y="438" text-anchor="middle" fill="#444c56" font-size="10">Source: SpaceX filings / @InvestingVisuals · investus.kr</text>

  <rect x="40" y="450" width="720" height="34" rx="6" fill="#1c1026"/>
  <text x="400" y="472" text-anchor="middle" fill="#c084fc" font-size="12">$100B+ cash = SpaceX can self-fund Starlink &amp; AI infra without external debt</text>
</svg>
