<svg xmlns="http://www.w3.org/2000/svg" viewBox="0 0 1080 560" width="1080" height="560">
  <rect width="1080" height="560" fill="#0d1117"/>
  <rect x="0" y="0" width="1080" height="64" fill="#111318"/>
  <rect x="0" y="62" width="1080" height="2" fill="#c084fc" opacity="0.7"/>
  <text x="28" y="26" font-family="Arial,sans-serif" font-size="13" fill="#c084fc" font-weight="700">SPCX Starlink · Subscriber Count</text>
  <text x="28" y="50" font-family="Arial,sans-serif" font-size="14" fill="#e5e7eb" font-weight="700">92 Million Subscribers · On Track to Become World's Largest Paid Subscription Service</text>

  <rect x="24" y="78" width="1032" height="100" rx="12" fill="#1a0a24" stroke="#c084fc" stroke-width="1.5"/>
  <text x="540" y="128" font-family="Arial,sans-serif" font-size="52" fill="#c084fc" font-weight="700" text-anchor="middle">92,000,000</text>
  <text x="540" y="164" font-family="Arial,sans-serif" font-size="16" fill="#9ca3af" text-anchor="middle">Starlink cumulative subscribers · Current count</text>

  <rect x="24" y="194" width="540" height="270" rx="10" fill="#111318"/>
  <text x="294" y="222" font-family="Arial,sans-serif" font-size="15" fill="#e5e7eb" font-weight="700" text-anchor="middle">Paid Subscription Service Scale Comparison</text>

  <rect x="44" y="260" width="60" height="180" rx="4" fill="#444c56"/>
  <text x="74" y="452" font-family="Arial,sans-serif" font-size="10" fill="#6b7280" text-anchor="middle">Netflix</text>
  <text x="74" y="250" font-family="Arial,sans-serif" font-size="10" fill="#9ca3af" text-anchor="middle">302M</text>

  <rect x="124" y="284" width="60" height="156" rx="4" fill="#444c56"/>
  <text x="154" y="452" font-family="Arial,sans-serif" font-size="10" fill="#6b7280" text-anchor="middle">Spotify</text>
  <text x="154" y="274" font-family="Arial,sans-serif" font-size="10" fill="#9ca3af" text-anchor="middle">260M</text>

  <rect x="204" y="320" width="60" height="120" rx="4" fill="#444c56"/>
  <text x="234" y="452" font-family="Arial,sans-serif" font-size="10" fill="#6b7280" text-anchor="middle">Disney+</text>
  <text x="234" y="310" font-family="Arial,sans-serif" font-size="10" fill="#9ca3af" text-anchor="middle">200M</text>

  <rect x="284" y="368" width="60" height="72" rx="4" fill="#444c56"/>
  <text x="314" y="452" font-family="Arial,sans-serif" font-size="10" fill="#6b7280" text-anchor="middle">iQIYI</text>
  <text x="314" y="358" font-family="Arial,sans-serif" font-size="10" fill="#9ca3af" text-anchor="middle">~120M</text>

  <rect x="364" y="380" width="60" height="60" rx="4" fill="#444c56"/>
  <text x="394" y="452" font-family="Arial,sans-serif" font-size="10" fill="#6b7280" text-anchor="middle">Disney</text>
  <text x="394" y="370" font-family="Arial,sans-serif" font-size="10" fill="#9ca3af" text-anchor="middle">~100M</text>

  <rect x="444" y="385" width="60" height="55" rx="4" fill="#c084fc" opacity="0.9"/>
  <text x="474" y="452" font-family="Arial,sans-serif" font-size="10" fill="#c084fc" font-weight="700" text-anchor="middle">Starlink</text>
  <text x="474" y="375" font-family="Arial,sans-serif" font-size="11" fill="#c084fc" font-weight="700" text-anchor="middle">92M</text>

  <line x1="34" y1="440" x2="520" y2="440" stroke="#374151" stroke-width="1"/>

  <line x1="474" y1="385" x2="474" y2="270" stroke="#c084fc" stroke-width="2" stroke-dasharray="4,3"/>
  <polygon points="466,278 474,256 482,278" fill="#c084fc"/>
  <text x="490" y="268" font-family="Arial,sans-serif" font-size="11" fill="#c084fc" font-weight="600">Growth →</text>

  <rect x="580" y="194" width="476" height="270" rx="10" fill="#111318"/>
  <text x="818" y="222" font-family="Arial,sans-serif" font-size="15" fill="#e5e7eb" font-weight="700" text-anchor="middle">Starlink Growth Analysis</text>

  <rect x="596" y="234" width="444" height="72" rx="8" fill="#1a0a24"/>
  <text x="818" y="258" font-family="Arial,sans-serif" font-size="14" fill="#c084fc" font-weight="700" text-anchor="middle">World's Largest Recurring Subscription</text>
  <text x="818" y="280" font-family="Arial,sans-serif" font-size="12" fill="#9ca3af" text-anchor="middle">Teslaconomics: "One day Starlink will be the world's</text>
  <text x="818" y="298" font-family="Arial,sans-serif" font-size="12" fill="#9ca3af" text-anchor="middle">largest recurring paid subscription business" — Elon retweeted</text>

  <rect x="596" y="316" width="214" height="80" rx="8" fill="#161b22"/>
  <text x="703" y="338" font-family="Arial,sans-serif" font-size="12" fill="#9ca3af" text-anchor="middle">Monthly ARPU</text>
  <text x="703" y="362" font-family="Arial,sans-serif" font-size="24" fill="#c084fc" font-weight="700" text-anchor="middle">$120+</text>
  <text x="703" y="386" font-family="Arial,sans-serif" font-size="11" fill="#6b7280" text-anchor="middle">Consumer plan</text>

  <rect x="826" y="316" width="214" height="80" rx="8" fill="#161b22"/>
  <text x="933" y="338" font-family="Arial,sans-serif" font-size="12" fill="#9ca3af" text-anchor="middle">Annualized ARR</text>
  <text x="933" y="362" font-family="Arial,sans-serif" font-size="24" fill="#c084fc" font-weight="700" text-anchor="middle">$13B+</text>
  <text x="933" y="386" font-family="Arial,sans-serif" font-size="11" fill="#6b7280" text-anchor="middle">92M × $120 × 12mo</text>

  <rect x="596" y="406" width="444" height="48" rx="8" fill="#0a1528"/>
  <text x="818" y="428" font-family="Arial,sans-serif" font-size="13" fill="#60a5fa" text-anchor="middle">Massive Starlink Billboard in Las Vegas — Brand Expansion</text>
  <text x="818" y="446" font-family="Arial,sans-serif" font-size="11" fill="#9ca3af" text-anchor="middle">Future Tesla FSD + Starlink = autonomous driving + IoT infrastructure</text>

  <rect x="24" y="480" width="1032" height="56" rx="10" fill="#1a0a24" stroke="#c084fc" stroke-width="1"/>
  <text x="540" y="506" font-family="Arial,sans-serif" font-size="15" fill="#c084fc" font-weight="700" text-anchor="middle">92M → 300M+ = Starlink's Goal: A Subscription Empire Bigger Than Netflix</text>
  <text x="540" y="526" font-family="Arial,sans-serif" font-size="12" fill="#9ca3af" text-anchor="middle">SpaceX ARR $13B+ · Starship lowers satellite costs → exponential subscriber growth ahead</text>

  <text x="540" y="552" font-family="Arial,sans-serif" font-size="10" fill="#4b5563" text-anchor="middle">Source: Teslaconomics · Elon Musk X · 2026.06.24 · Investus</text>
</svg>
