<svg xmlns="http://www.w3.org/2000/svg" viewBox="0 0 800 490" width="800" height="490" style="background:#0d1117;font-family:'Apple SD Gothic Neo',sans-serif">
  <rect width="800" height="490" rx="12" fill="#0d1117"/>
  <text x="400" y="36" text-anchor="middle" fill="#c084fc" font-size="13" font-weight="700">SPCX · SpaceX</text>
  <text x="400" y="62" text-anchor="middle" fill="#e6edf3" font-size="20" font-weight="700">3대 신용평가사 투자등급 동시 획득</text>
  <text x="400" y="84" text-anchor="middle" fill="#7d8590" font-size="13">Moody's · Fitch · S&amp;P — 우주기업 최초 투자적격 3관왕</text>
  <line x1="40" y1="96" x2="760" y2="96" stroke="#21262d" stroke-width="1"/>

  <!-- 3 rating cards -->
  <rect x="40" y="112" width="220" height="140" rx="8" fill="#161b22"/>
  <rect x="40" y="112" width="220" height="4" rx="2" fill="#c084fc"/>
  <text x="150" y="142" text-anchor="middle" fill="#c084fc" font-size="13" font-weight="600">Moody's</text>
  <text x="150" y="186" text-anchor="middle" fill="#e6edf3" font-size="40" font-weight="800">Baa1</text>
  <text x="150" y="214" text-anchor="middle" fill="#7d8590" font-size="12">투자등급 (BBB+ 동급)</text>
  <text x="150" y="236" text-anchor="middle" fill="#7d8590" font-size="11">Outlook: Stable</text>

  <rect x="290" y="112" width="220" height="140" rx="8" fill="#161b22"/>
  <rect x="290" y="112" width="220" height="4" rx="2" fill="#c084fc"/>
  <text x="400" y="142" text-anchor="middle" fill="#c084fc" font-size="13" font-weight="600">Fitch</text>
  <text x="400" y="186" text-anchor="middle" fill="#e6edf3" font-size="40" font-weight="800">BBB+</text>
  <text x="400" y="214" text-anchor="middle" fill="#7d8590" font-size="12">투자등급</text>
  <text x="400" y="236" text-anchor="middle" fill="#7d8590" font-size="11">Outlook: Stable</text>

  <rect x="540" y="112" width="220" height="140" rx="8" fill="#161b22"/>
  <rect x="540" y="112" width="220" height="4" rx="2" fill="#c084fc"/>
  <text x="650" y="142" text-anchor="middle" fill="#c084fc" font-size="13" font-weight="600">S&amp;P Global</text>
  <text x="650" y="186" text-anchor="middle" fill="#e6edf3" font-size="40" font-weight="800">BBB+</text>
  <text x="650" y="214" text-anchor="middle" fill="#7d8590" font-size="12">투자등급</text>
  <text x="650" y="236" text-anchor="middle" fill="#7d8590" font-size="11">Outlook: Stable</text>

  <!-- Significance box -->
  <rect x="40" y="268" width="720" height="82" rx="8" fill="#1c1026"/>
  <text x="400" y="294" text-anchor="middle" fill="#c084fc" font-size="13" font-weight="600">투자적격 등급의 의미</text>
  <text x="400" y="316" text-anchor="middle" fill="#e6edf3" font-size="12">연기금·보험사·국부펀드 등 기관투자자 SPCX 매입 조건 충족</text>
  <text x="400" y="334" text-anchor="middle" fill="#7d8590" font-size="12">채권 발행 금리 ↓ · 자본 조달 비용 절감 · 기업 신뢰도 급상승</text>

  <!-- Impact bar: scale -->
  <rect x="40" y="364" width="720" height="82" rx="8" fill="#161b22"/>
  <text x="60" y="386" fill="#e6edf3" font-size="12" font-weight="600">투자등급 효과 — 자본 조달 옵션 확대</text>
  <text x="60" y="408" fill="#7d8590" font-size="11">투기등급(BB) : 고금리 채권 발행만 가능 · 기관 매수 제한</text>
  <text x="60" y="426" fill="#c084fc" font-size="11">투자등급(BBB+) : 저금리 채권 + 기관 대규모 매수 가능 → SPCX 수요 급증</text>

  <line x1="40" y1="458" x2="760" y2="458" stroke="#21262d" stroke-width="1"/>
  <text x="400" y="474" text-anchor="middle" fill="#444c56" font-size="10">출처: Moody's / Fitch / S&amp;P Global 공식 발표 · investus.kr</text>
</svg>
