<svg width="800" height="580" viewBox="0 0 800 580" xmlns="http://www.w3.org/2000/svg">
  <rect width="800" height="580" fill="#07091a"/>
  <rect x="0" y="0" width="800" height="3" fill="#00e5a0"/>

  <text x="30" y="30" font-family="Arial,sans-serif" font-size="10" fill="#00e5a0" font-weight="700" letter-spacing="2">INVESTUS · DAILY BRIEF</text>
  <text x="30" y="54" font-family="Arial,sans-serif" font-size="20" fill="white" font-weight="700">5/29 오늘의 핵심 6가지</text>
  <text x="770" y="54" font-family="Arial,sans-serif" font-size="11" fill="#6b7280" text-anchor="end">2026.05.29</text>
  <line x1="30" y1="66" x2="770" y2="66" stroke="#1e2330" stroke-width="1"/>

  <!-- Row 1 Left: TSLA AVO -->
  <rect x="30" y="76" width="358" height="92" rx="8" fill="#071208" stroke="#00e5a0" stroke-width="1.2" stroke-opacity="0.5"/>
  <rect x="30" y="76" width="4" height="92" rx="2" fill="#00e5a0"/>
  <text x="48" y="100" font-family="Arial,sans-serif" font-size="11" fill="#00e5a0" font-weight="700">Tesla Robotaxi AVO 인가</text>
  <text x="48" y="132" font-family="Arial,sans-serif" font-size="30" fill="#00e5a0" font-weight="700">Austin</text>
  <text x="48" y="152" font-family="Arial,sans-serif" font-size="11" fill="white">Texas 상업 운행 공식 허가</text>
  <text x="48" y="162" font-family="Arial,sans-serif" font-size="10" fill="#6b7280">Cybercab Q2 유료 서비스 · Robotaxi 수익화 전환점</text>

  <!-- Row 1 Right: SPCX IPO -->
  <rect x="412" y="76" width="358" height="92" rx="8" fill="#0d0a1a" stroke="#c084fc" stroke-width="1.2" stroke-opacity="0.5"/>
  <rect x="412" y="76" width="4" height="92" rx="2" fill="#c084fc"/>
  <text x="430" y="100" font-family="Arial,sans-serif" font-size="11" fill="#c084fc" font-weight="700">SpaceX S-1 · TAM $28.5T</text>
  <text x="430" y="132" font-family="Arial,sans-serif" font-size="30" fill="#c084fc" font-weight="700">$350B</text>
  <text x="430" y="152" font-family="Arial,sans-serif" font-size="11" fill="white">역대 최대 IPO · 나스닥 상장 추진</text>
  <text x="430" y="162" font-family="Arial,sans-serif" font-size="10" fill="#6b7280">3개 사업부 공개 · Starlink Q1 $1B 영업이익</text>

  <!-- Row 2 Left: FSD 27M -->
  <rect x="30" y="178" width="358" height="92" rx="8" fill="#071208" stroke="#00e5a0" stroke-width="1.2" stroke-opacity="0.5"/>
  <rect x="30" y="178" width="4" height="92" rx="2" fill="#00e5a0"/>
  <text x="48" y="202" font-family="Arial,sans-serif" font-size="11" fill="#00e5a0" font-weight="700">Tesla FSD 누적 주행</text>
  <text x="48" y="246" font-family="Arial,sans-serif" font-size="38" fill="#00e5a0" font-weight="700">+44%</text>
  <text x="48" y="260" font-family="Arial,sans-serif" font-size="9" fill="#6b7280">주간 주행 급등 · 누적 2,670만 마일 돌파</text>

  <!-- Row 2 Right: AMTX $65B -->
  <rect x="412" y="178" width="358" height="92" rx="8" fill="#071208" stroke="#00e5a0" stroke-width="1.2" stroke-opacity="0.4"/>
  <rect x="412" y="178" width="4" height="92" rx="2" fill="#00e5a0"/>
  <text x="430" y="202" font-family="Arial,sans-serif" font-size="11" fill="#00e5a0" font-weight="700">Anthropic 신규 펀딩</text>
  <text x="591" y="240" font-family="Arial,sans-serif" font-size="36" fill="#00e5a0" font-weight="700" text-anchor="middle">$65B</text>
  <text x="430" y="257" font-family="Arial,sans-serif" font-size="10" fill="white">비상장 AI 세계 최대 · ARR $47B 목표</text>
  <text x="430" y="264" font-family="Arial,sans-serif" font-size="9" fill="#6b7280">AMZN 최대 투자자 · AWS AI 매출 직결</text>

  <!-- Row 3 Left: META $14 -->
  <rect x="30" y="280" width="358" height="92" rx="8" fill="#060b18" stroke="#60a5fa" stroke-width="1.2" stroke-opacity="0.35"/>
  <rect x="30" y="280" width="4" height="92" rx="2" fill="#60a5fa"/>
  <text x="48" y="304" font-family="Arial,sans-serif" font-size="11" fill="#60a5fa" font-weight="700">META 구독 출시</text>
  <text x="48" y="340" font-family="Arial,sans-serif" font-size="30" fill="#60a5fa" font-weight="700">$14/월</text>
  <text x="48" y="360" font-family="Arial,sans-serif" font-size="10" fill="white">Meta Blue · 광고 없는 프리미엄 플랜</text>
  <text x="48" y="366" font-family="Arial,sans-serif" font-size="9" fill="#6b7280">광고 외 반복 수익 모델 · 목표주가 $314</text>

  <!-- Row 3 Right: CBDC Ban -->
  <rect x="412" y="280" width="358" height="92" rx="8" fill="#0d0b05" stroke="#fb923c" stroke-width="1.2" stroke-opacity="0.4"/>
  <rect x="412" y="280" width="4" height="92" rx="2" fill="#fb923c"/>
  <text x="430" y="304" font-family="Arial,sans-serif" font-size="11" fill="#fb923c" font-weight="700">CBDC 폐지 · BTC 정책 수혜</text>
  <text x="430" y="340" font-family="Arial,sans-serif" font-size="14" fill="white" font-weight="700">디지털 달러 없음 공식 확인</text>
  <text x="430" y="360" font-family="Arial,sans-serif" font-size="10" fill="white">Bessent 재무장관 입법 추진 선언</text>
  <text x="430" y="366" font-family="Arial,sans-serif" font-size="9" fill="#6b7280">IBIT·COIN·MSTR 정책 수혜 확정</text>

  <!-- Key insight footer -->
  <rect x="30" y="382" width="740" height="72" rx="8" fill="#060b18" stroke="#00e5a0" stroke-width="1" stroke-opacity="0.25"/>
  <rect x="30" y="382" width="4" height="72" rx="2" fill="#00e5a0"/>
  <text x="48" y="403" font-family="Arial,sans-serif" font-size="11" fill="#00e5a0" font-weight="700">핵심 투자 포인트</text>
  <text x="48" y="421" font-family="Arial,sans-serif" font-size="10" fill="#e5e7eb">TSLA AVO 인가 = Robotaxi 수익화 전환점 · SpaceX S-1 = $350B 밸류에이션 근거 공개</text>
  <text x="48" y="438" font-family="Arial,sans-serif" font-size="10" fill="#e5e7eb">Anthropic $65B = AMZN AWS AI 수익 직결 · META $14 구독 = 광고 의존도 감소</text>
  <text x="48" y="448" font-family="Arial,sans-serif" font-size="9" fill="#6b7280">CBDC 폐지 공식화 = BTC 민간 화폐 지위 강화 · 이란 협상 = XLE 단기 조정 경보</text>

  <line x1="30" y1="466" x2="770" y2="466" stroke="#1e2330" stroke-width="1"/>
  <text x="30" y="482" font-family="Arial,sans-serif" font-size="9" fill="#6b7280">투자 참고용. 투자 판단 및 결과에 대한 책임은 투자자 본인에게 있습니다.</text>
  <text x="770" y="482" font-family="Arial,sans-serif" font-size="10" fill="#00e5a0" text-anchor="end" font-weight="600">INVESTUS · SUNRYU Partners CIO</text>
</svg>
