<svg xmlns="http://www.w3.org/2000/svg" viewBox="0 0 600 680" width="600" height="680">
  <defs>
    <linearGradient id="bgsum18" x1="0" y1="0" x2="0" y2="1">
      <stop offset="0%" stop-color="#0b1220"/>
      <stop offset="100%" stop-color="#080e18"/>
    </linearGradient>
  </defs>
  <rect width="600" height="680" fill="url(#bgsum18)" rx="16"/>

  <!-- Title bar -->
  <rect x="0" y="0" width="600" height="56" rx="16" fill="#1e293b" opacity="0.7"/>
  <rect x="0" y="40" width="600" height="16" fill="#1e293b" opacity="0.7"/>
  <text x="300" y="26" text-anchor="middle" font-family="Arial,sans-serif" font-size="16" font-weight="800" fill="#f1f5f9">6/18 시장 한장 요약</text>
  <text x="300" y="46" text-anchor="middle" font-family="Arial,sans-serif" font-size="11" fill="#64748b">이란합의 · 메모리부족 · NVDA · Tesla FSD · 연준 · SPCX</text>

  <!-- Section 1: 이란 핵합의 -->
  <rect x="16" y="66" width="568" height="4" rx="2" fill="#fb923c" opacity="0.6"/>
  <rect x="16" y="70" width="70" height="20" rx="4" fill="#fb923c" opacity="0.2"/>
  <text x="51" y="85" text-anchor="middle" font-family="Arial,sans-serif" font-size="12" font-weight="700" fill="#fb923c">이란합의</text>
  <text x="94" y="85" font-family="Arial,sans-serif" font-size="11" fill="#94a3b8">오늘 서명 임박 — 제재 해제, 호르무즈 원유 재개</text>
  <rect x="22" y="96" width="3" height="14" rx="1" fill="#fb923c"/>
  <text x="30" y="107" font-family="Arial,sans-serif" font-size="11" fill="#e2e8f0">U.S.-이란 핵합의 오늘(6/18) 전자서명 가능 — 제재 즉시 해제 예정</text>
  <rect x="22" y="114" width="3" height="14" rx="1" fill="#fb923c"/>
  <text x="30" y="125" font-family="Arial,sans-serif" font-size="11" fill="#e2e8f0">호르무즈 봉쇄 해제 · 이란 원유 수출 재개 → 유가 추가 하락 압력</text>

  <line x1="16" y1="142" x2="584" y2="142" stroke="#1e293b" stroke-width="1"/>

  <!-- Section 2: 메모리 부족 -->
  <rect x="16" y="150" width="568" height="4" rx="2" fill="#60a5fa" opacity="0.6"/>
  <rect x="16" y="154" width="70" height="20" rx="4" fill="#60a5fa" opacity="0.2"/>
  <text x="51" y="169" text-anchor="middle" font-family="Arial,sans-serif" font-size="12" font-weight="700" fill="#60a5fa">메모리</text>
  <text x="94" y="169" font-family="Arial,sans-serif" font-size="11" fill="#94a3b8">Micron·SanDisk CEO 동시 경고 "HBM·DRAM 부족"</text>
  <rect x="22" y="180" width="3" height="14" rx="1" fill="#60a5fa"/>
  <text x="30" y="191" font-family="Arial,sans-serif" font-size="11" fill="#e2e8f0">Micron CEO "메모리 부족 상황" — SanDisk CEO도 동일 경고 동시 발표</text>
  <rect x="22" y="198" width="3" height="14" rx="1" fill="#60a5fa"/>
  <text x="30" y="209" font-family="Arial,sans-serif" font-size="11" fill="#e2e8f0">HBM 수요 NVDA AI 서버 확장으로 급증 → $MU·$SNDK 공급 부족 사이클</text>

  <line x1="16" y1="226" x2="584" y2="226" stroke="#1e293b" stroke-width="1"/>

  <!-- Section 3: NVDA -->
  <rect x="16" y="234" width="568" height="4" rx="2" fill="#00e5a0" opacity="0.6"/>
  <rect x="16" y="238" width="48" height="20" rx="4" fill="#00e5a0" opacity="0.2"/>
  <text x="40" y="253" text-anchor="middle" font-family="Arial,sans-serif" font-size="12" font-weight="700" fill="#00e5a0">NVDA</text>
  <text x="72" y="253" font-family="Arial,sans-serif" font-size="11" fill="#94a3b8">$25B 첫 회사채 — 자회사 $25B 추가 주문 · PE 24x</text>
  <rect x="22" y="264" width="3" height="14" rx="1" fill="#00e5a0"/>
  <text x="30" y="275" font-family="Arial,sans-serif" font-size="11" fill="#e2e8f0">NVIDIA 5년 만에 첫 채권 $25B 발행 — 자회사가 추가 $25B 주문 (2배 초과)</text>
  <rect x="22" y="282" width="3" height="14" rx="1" fill="#00e5a0"/>
  <text x="30" y="293" font-family="Arial,sans-serif" font-size="11" fill="#e2e8f0">현재 Forward PE 24x — 조정 PE 기준 2022년 이후 최저 · AI 성장 대비 저평가</text>

  <line x1="16" y1="310" x2="584" y2="310" stroke="#1e293b" stroke-width="1"/>

  <!-- Section 4: Tesla FSD Europe -->
  <rect x="16" y="318" width="568" height="4" rx="2" fill="#c084fc" opacity="0.6"/>
  <rect x="16" y="322" width="48" height="20" rx="4" fill="#c084fc" opacity="0.2"/>
  <text x="40" y="337" text-anchor="middle" font-family="Arial,sans-serif" font-size="12" font-weight="700" fill="#c084fc">TSLA</text>
  <text x="72" y="337" font-family="Arial,sans-serif" font-size="11" fill="#94a3b8">FSD 유럽 RDW 공식 승인 · Q2 유럽 판매 +20.5%</text>
  <rect x="22" y="348" width="3" height="14" rx="1" fill="#c084fc"/>
  <text x="30" y="359" font-family="Arial,sans-serif" font-size="11" fill="#e2e8f0">네덜란드 RDW, FSD Full Self-Driving 유럽 최초 공식 승인 · 1,000+ 통제 테스트</text>
  <rect x="22" y="366" width="3" height="14" rx="1" fill="#c084fc"/>
  <text x="30" y="377" font-family="Arial,sans-serif" font-size="11" fill="#e2e8f0">유럽 Q2 판매 4,000대 +20.5% YTD · Austin 로보택시 플릿 운영 중</text>

  <line x1="16" y1="394" x2="584" y2="394" stroke="#1e293b" stroke-width="1"/>

  <!-- Section 5: 연준 -->
  <rect x="16" y="402" width="568" height="4" rx="2" fill="#f87171" opacity="0.6"/>
  <rect x="16" y="406" width="48" height="20" rx="4" fill="#f87171" opacity="0.2"/>
  <text x="40" y="421" text-anchor="middle" font-family="Arial,sans-serif" font-size="12" font-weight="700" fill="#f87171">연준</text>
  <text x="72" y="421" font-family="Arial,sans-serif" font-size="11" fill="#94a3b8">12-0 금리동결 · S&amp;P500 1994 이후 최악의 Fed Day</text>
  <rect x="22" y="432" width="3" height="14" rx="1" fill="#f87171"/>
  <text x="30" y="443" font-family="Arial,sans-serif" font-size="11" fill="#e2e8f0">연준 만장일치 12-0 금리 동결 — Powell "몇 달 뒤 결정" 포워드 가이던스 철회</text>
  <rect x="22" y="450" width="3" height="14" rx="1" fill="#f87171"/>
  <text x="30" y="461" font-family="Arial,sans-serif" font-size="11" fill="#e2e8f0">S&amp;P500 Fed Day 최악 낙폭(1994 이후) — 불확실성 프리미엄 반영</text>

  <line x1="16" y1="478" x2="584" y2="478" stroke="#1e293b" stroke-width="1"/>

  <!-- Section 6: Tesla vs SpaceX + Optimus -->
  <rect x="16" y="486" width="568" height="4" rx="2" fill="#a3e635" opacity="0.6"/>
  <rect x="16" y="490" width="70" height="20" rx="4" fill="#a3e635" opacity="0.2"/>
  <text x="51" y="505" text-anchor="middle" font-family="Arial,sans-serif" font-size="12" font-weight="700" fill="#a3e635">재무/생산</text>
  <text x="94" y="505" font-family="Arial,sans-serif" font-size="11" fill="#94a3b8">Tesla -$590M vs SpaceX +$1.62B · Giga TX Optimus 3층</text>
  <rect x="22" y="516" width="3" height="14" rx="1" fill="#a3e635"/>
  <text x="30" y="527" font-family="Arial,sans-serif" font-size="11" fill="#e2e8f0">Q1 2026: SpaceX 순이익 +$1.62B — Tesla 순손실 -$590M · 머스크 두 기업 재무 역전</text>
  <rect x="22" y="534" width="3" height="14" rx="1" fill="#a3e635"/>
  <text x="30" y="545" font-family="Arial,sans-serif" font-size="11" fill="#e2e8f0">Giga Texas Optimus 공장: 철골 3층 완성 — 10M/year 휴머노이드 로봇 목표</text>

  <!-- Footer -->
  <rect x="0" y="638" width="600" height="42" rx="16" fill="#1e293b" opacity="0.5"/>
  <rect x="0" y="638" width="600" height="16" fill="#1e293b" opacity="0.5"/>
  <text x="300" y="664" text-anchor="middle" font-family="Arial,sans-serif" font-size="11" fill="#475569">investus.kr — 2026.06.18 시장 한장 요약</text>
</svg>
