<svg xmlns="http://www.w3.org/2000/svg" viewBox="0 0 600 640" width="600" height="640">
  <defs>
    <linearGradient id="bgsum17" x1="0" y1="0" x2="0" y2="1">
      <stop offset="0%" stop-color="#0b1220"/>
      <stop offset="100%" stop-color="#080e18"/>
    </linearGradient>
  </defs>
  <rect width="600" height="640" fill="url(#bgsum17)" rx="16"/>

  <!-- Title bar -->
  <rect x="0" y="0" width="600" height="56" rx="16" fill="#1e293b" opacity="0.7"/>
  <rect x="0" y="40" width="600" height="16" fill="#1e293b" opacity="0.7"/>
  <text x="300" y="26" text-anchor="middle" font-family="Arial,sans-serif" font-size="16" font-weight="800" fill="#f1f5f9">6/17 시장 한장 요약</text>
  <text x="300" y="46" text-anchor="middle" font-family="Arial,sans-serif" font-size="11" fill="#64748b">SPCX · TSLA · AMD · 유가 · TSMC</text>

  <!-- SPCX Section -->
  <rect x="16" y="66" width="568" height="4" rx="2" fill="#c084fc" opacity="0.5"/>
  <rect x="16" y="70" width="48" height="20" rx="4" fill="#c084fc" opacity="0.2"/>
  <text x="40" y="85" text-anchor="middle" font-family="Arial,sans-serif" font-size="12" font-weight="700" fill="#c084fc">SPCX</text>
  <text x="72" y="85" font-family="Arial,sans-serif" font-size="11" fill="#94a3b8">Ron Baron $1B 매수 · Cursor $9B 인수 · 재무 $18.9B</text>

  <rect x="22" y="96" width="3" height="14" rx="1" fill="#c084fc"/>
  <text x="30" y="107" font-family="Arial,sans-serif" font-size="11" fill="#e2e8f0">Ron Baron, Goldman 통해 SpaceX $1B 매수 — "수천억 달러 수익 가능"</text>

  <rect x="22" y="114" width="3" height="14" rx="1" fill="#c084fc"/>
  <text x="30" y="125" font-family="Arial,sans-serif" font-size="11" fill="#e2e8f0">SpaceX, Cursor 개발사 Anysphere $9B에 인수 — 3Q26 완료 예정</text>

  <rect x="22" y="132" width="3" height="14" rx="1" fill="#c084fc"/>
  <text x="30" y="143" font-family="Arial,sans-serif" font-size="11" fill="#e2e8f0">2025 전체 재무: 매출 $18.9B(+33%) · 순손실 $2.6B · Starlink 60%</text>

  <rect x="22" y="150" width="3" height="14" rx="1" fill="#c084fc"/>
  <text x="30" y="161" font-family="Arial,sans-serif" font-size="11" fill="#e2e8f0">IPO 후 인덱스 편입: S&amp;P500·NASDAQ100·Russell1000 트리거 총정리</text>

  <line x1="16" y1="178" x2="584" y2="178" stroke="#1e293b" stroke-width="1"/>

  <!-- TSLA Section -->
  <rect x="16" y="186" width="568" height="4" rx="2" fill="#00e5a0" opacity="0.5"/>
  <rect x="16" y="190" width="48" height="20" rx="4" fill="#00e5a0" opacity="0.2"/>
  <text x="40" y="205" text-anchor="middle" font-family="Arial,sans-serif" font-size="12" font-weight="700" fill="#00e5a0">TSLA</text>
  <text x="72" y="205" font-family="Arial,sans-serif" font-size="11" fill="#94a3b8">Ron Baron $5T · 로보택시 725대 · Goldman Q2 42-43만 · FSD 대만</text>

  <rect x="22" y="214" width="3" height="14" rx="1" fill="#00e5a0"/>
  <text x="30" y="225" font-family="Arial,sans-serif" font-size="11" fill="#e2e8f0">Ron Baron: Tesla 10년 내 $4~5조 기업 — "머스크 = 레오나르도 다빈치"</text>

  <rect x="22" y="232" width="3" height="14" rx="1" fill="#00e5a0"/>
  <text x="30" y="243" font-family="Arial,sans-serif" font-size="11" fill="#e2e8f0">로보택시 725대 오스틴·댈러스·휴스턴·샌안토니오 운영 중</text>

  <rect x="22" y="250" width="3" height="14" rx="1" fill="#00e5a0"/>
  <text x="30" y="261" font-family="Arial,sans-serif" font-size="11" fill="#e2e8f0">Goldman Sachs Q2 인도 전망 42~43만대 — 컨센서스 상회</text>

  <rect x="22" y="268" width="3" height="14" rx="1" fill="#00e5a0"/>
  <text x="30" y="279" font-family="Arial,sans-serif" font-size="11" fill="#e2e8f0">FSD Supervised 대만 공식 규제 제출 — SAI Level 2 분류</text>

  <line x1="16" y1="296" x2="584" y2="296" stroke="#1e293b" stroke-width="1"/>

  <!-- AMD Section -->
  <rect x="16" y="304" width="568" height="4" rx="2" fill="#f87171" opacity="0.5"/>
  <rect x="16" y="308" width="48" height="20" rx="4" fill="#f87171" opacity="0.2"/>
  <text x="40" y="323" text-anchor="middle" font-family="Arial,sans-serif" font-size="12" font-weight="700" fill="#f87171">AMD</text>
  <text x="72" y="323" font-family="Arial,sans-serif" font-size="11" fill="#94a3b8">NVIDIA 클라우드 $2,800/월 vs Mac Mini 로컬 추론 대결</text>

  <rect x="22" y="332" width="3" height="14" rx="1" fill="#f87171"/>
  <text x="30" y="343" font-family="Arial,sans-serif" font-size="11" fill="#e2e8f0">AMD CEO Lisa Su: $4,499 Mac Mini로 NVIDIA 클라우드 AI 대체 시연</text>

  <rect x="22" y="350" width="3" height="14" rx="1" fill="#f87171"/>
  <text x="30" y="361" font-family="Arial,sans-serif" font-size="11" fill="#e2e8f0">NVIDIA 생태계: 사용자당 $2,800/월 클라우드 구독료 — AMD 영구 차단</text>

  <line x1="16" y1="378" x2="584" y2="378" stroke="#1e293b" stroke-width="1"/>

  <!-- 유가 + TSMC Section -->
  <rect x="16" y="386" width="568" height="4" rx="2" fill="#fb923c" opacity="0.5"/>
  <rect x="16" y="390" width="70" height="20" rx="4" fill="#fb923c" opacity="0.2"/>
  <text x="51" y="405" text-anchor="middle" font-family="Arial,sans-serif" font-size="12" font-weight="700" fill="#fb923c">매크로</text>
  <text x="94" y="405" font-family="Arial,sans-serif" font-size="11" fill="#94a3b8">유가 $50 + TSMC·AMKOR 10년 파트너십 + 미국 시장 vs 세계 GDP</text>

  <rect x="22" y="414" width="3" height="14" rx="1" fill="#fb923c"/>
  <text x="30" y="425" font-family="Arial,sans-serif" font-size="11" fill="#e2e8f0">이란 탱커 호르무즈 해협 통과 — Trump 봉쇄 해제 · 유가 $50 하회</text>

  <rect x="22" y="432" width="3" height="14" rx="1" fill="#fb923c"/>
  <text x="30" y="443" font-family="Arial,sans-serif" font-size="11" fill="#e2e8f0">TSMC + AMKOR 10년 파트너십 체결 — 미국 내 어드밴스드 패키징</text>

  <rect x="22" y="450" width="3" height="14" rx="1" fill="#fb923c"/>
  <text x="30" y="461" font-family="Arial,sans-serif" font-size="11" fill="#e2e8f0">미국 Top 10 기업 시총 = 세계 2위 경제국(중국) 전체 시장 초과</text>

  <!-- Footer -->
  <rect x="0" y="598" width="600" height="42" rx="16" fill="#1e293b" opacity="0.5"/>
  <rect x="0" y="598" width="600" height="16" fill="#1e293b" opacity="0.5"/>
  <text x="300" y="624" text-anchor="middle" font-family="Arial,sans-serif" font-size="11" fill="#475569">investus.kr — 2026.06.17 시장 한장 요약</text>
</svg>
