<svg xmlns="http://www.w3.org/2000/svg" viewBox="0 0 1080 1080" width="1080" height="1080">
  <defs>
    <linearGradient id="bg" x1="0%" y1="0%" x2="100%" y2="100%"><stop offset="0%" style="stop-color:#0d1117"/><stop offset="100%" style="stop-color:#0a0f1a"/></linearGradient>
    <linearGradient id="flow" x1="0%" y1="0%" x2="100%" y2="0%"><stop offset="0%" style="stop-color:#4ade80"/><stop offset="25%" style="stop-color:#60a5fa"/><stop offset="50%" style="stop-color:#f59e0b"/><stop offset="75%" style="stop-color:#ff4d6d"/><stop offset="100%" style="stop-color:#c084fc"/></linearGradient>
  </defs>
  <rect width="1080" height="1080" fill="url(#bg)"/>
  <rect width="1080" height="1080" fill="none" stroke="#1f2937" stroke-width="2"/>
  <rect x="0" y="0" width="1080" height="5" fill="url(#flow)"/>

  <text x="540" y="52" font-family="Arial" font-size="13" fill="#6b7280" text-anchor="middle" letter-spacing="3">INVESTUS DAILY REPORT</text>
  <text x="540" y="96" font-family="Arial Black,Arial" font-size="38" font-weight="900" fill="#f9fafb" text-anchor="middle">2026.07.16 Daily Snapshot</text>
  <line x1="80" y1="114" x2="1000" y2="114" stroke="#1f2937" stroke-width="1"/>

  <rect x="60" y="130" width="960" height="120" rx="14" fill="#061209" stroke="#4ade80" stroke-width="2"/>
  <rect x="60" y="130" width="8" height="120" rx="4" fill="#4ade80"/>
  <text x="116" y="178" font-family="Arial Black,Arial" font-size="26" font-weight="900" fill="#4ade80">💶 ASML Beats + TeraFab Collab w/ Musk</text>
  <text x="116" y="216" font-family="Arial" font-size="22" fill="#9ca3af">Revenue €9.33B · FY26 guidance raised to €43-45B</text>
  <text x="960" y="200" font-family="Arial Black,Arial" font-size="34" font-weight="900" fill="#4ade80" text-anchor="end">€9.33B</text>

  <rect x="60" y="266" width="960" height="120" rx="14" fill="#0a0f1a" stroke="#60a5fa" stroke-width="2"/>
  <rect x="60" y="266" width="8" height="120" rx="4" fill="#60a5fa"/>
  <text x="116" y="314" font-family="Arial Black,Arial" font-size="26" font-weight="900" fill="#60a5fa">📈 GOOGL +34% Since Berkshire Stake</text>
  <text x="116" y="352" font-family="Arial" font-size="22" fill="#9ca3af">$371.81 · Buffett: "I personally led it"</text>
  <text x="960" y="336" font-family="Arial Black,Arial" font-size="38" font-weight="900" fill="#60a5fa" text-anchor="end">+34%</text>

  <rect x="60" y="402" width="960" height="120" rx="14" fill="#1a0a0a" stroke="#ff4d6d" stroke-width="2"/>
  <rect x="60" y="402" width="8" height="120" rx="4" fill="#ff4d6d"/>
  <text x="116" y="450" font-family="Arial Black,Arial" font-size="26" font-weight="900" fill="#ff4d6d">📉 SpaceX Falls Below $135 IPO Price</text>
  <text x="116" y="488" font-family="Arial" font-size="22" fill="#9ca3af">$133.18 · YTD -27.77% · Intraday +17.25%</text>
  <text x="960" y="472" font-family="Arial Black,Arial" font-size="34" font-weight="900" fill="#ff4d6d" text-anchor="end">$133</text>

  <rect x="60" y="538" width="960" height="120" rx="14" fill="#061209" stroke="#4ade80" stroke-width="2"/>
  <rect x="60" y="538" width="8" height="120" rx="4" fill="#4ade80"/>
  <text x="116" y="586" font-family="Arial Black,Arial" font-size="26" font-weight="900" fill="#4ade80">🤖 Optimus Production Lines Scale Up</text>
  <text x="116" y="624" font-family="Arial" font-size="22" fill="#9ca3af">Fremont 1M units · Giga Texas 10M units</text>
  <text x="960" y="608" font-family="Arial Black,Arial" font-size="38" font-weight="900" fill="#4ade80" text-anchor="end">10M</text>

  <rect x="60" y="674" width="960" height="120" rx="14" fill="#1a1000" stroke="#f59e0b" stroke-width="2"/>
  <rect x="60" y="674" width="8" height="120" rx="4" fill="#f59e0b"/>
  <text x="116" y="722" font-family="Arial Black,Arial" font-size="26" font-weight="900" fill="#f59e0b">💬 Buffett — "Even 2% Inflation Too High"</text>
  <text x="116" y="760" font-family="Arial" font-size="22" fill="#9ca3af">Market is gambling · Hard to find value</text>
  <text x="960" y="744" font-family="Arial Black,Arial" font-size="38" font-weight="900" fill="#f59e0b" text-anchor="end">0%</text>

  <rect x="60" y="810" width="960" height="120" rx="14" fill="#1a0a0a" stroke="#ff4d6d" stroke-width="2"/>
  <rect x="60" y="810" width="8" height="120" rx="4" fill="#ff4d6d"/>
  <text x="116" y="858" font-family="Arial Black,Arial" font-size="26" font-weight="900" fill="#ff4d6d">🚨 BofA Cash Falls to 3.6% — Sell Signal</text>
  <text x="116" y="896" font-family="Arial" font-size="22" fill="#9ca3af">Avg fund manager cash, near century lows</text>
  <text x="960" y="880" font-family="Arial Black,Arial" font-size="38" font-weight="900" fill="#ff4d6d" text-anchor="end">3.6%</text>

  <rect x="60" y="940" width="464" height="85" rx="14" fill="#061209" stroke="#4ade80" stroke-width="1"/>
  <rect x="60" y="940" width="8" height="85" rx="4" fill="#4ade80"/>
  <text x="112" y="972" font-family="Arial Black,Arial" font-size="20" font-weight="900" fill="#4ade80">📊 Tesla Price Cuts Slow</text>
  <text x="112" y="1002" font-family="Arial" font-size="16" fill="#9ca3af">-2.1% vs EV market -4.5%</text>

  <rect x="556" y="940" width="464" height="85" rx="14" fill="#061209" stroke="#4ade80" stroke-width="1"/>
  <rect x="556" y="940" width="8" height="85" rx="4" fill="#4ade80"/>
  <text x="608" y="972" font-family="Arial Black,Arial" font-size="20" font-weight="900" fill="#4ade80">🚕 Robotaxi Texas Economics</text>
  <text x="608" y="1002" font-family="Arial" font-size="16" fill="#9ca3af">$7M revenue vs $4.3M cost per unit</text>

  <text x="540" y="1044" font-family="Arial" font-size="18" fill="#6b7280" text-anchor="middle">TSLA · SPCX · NVDA · AAPL · GOOGL · ASML | Top 16 Stories Today</text>

  <rect x="0" y="1060" width="1080" height="20" fill="url(#flow)" opacity=".4"/>
  <text x="540" y="1073" font-family="Arial" font-size="11" fill="#6b7280" text-anchor="middle" letter-spacing="2">investus.kr SRP Chief Investment Officer</text>
</svg>
