<svg xmlns="http://www.w3.org/2000/svg" viewBox="0 0 840 575" width="840" height="575" style="background:#0d1117;font-family:'SF Pro Display',Arial,sans-serif">
  <rect x="0" y="0" width="840" height="575" rx="12" fill="#0d1117"/>
  <text x="420" y="38" text-anchor="middle" fill="#e6edf3" font-size="22" font-weight="700">Jun 22 Market Snapshot</text>
  <text x="420" y="56" text-anchor="middle" fill="#7d8590" font-size="12">2026.06.22 | Today's Key News</text>
  <line x1="40" y1="66" x2="800" y2="66" stroke="#21262d" stroke-width="1"/>

  <!-- Card 1: SPCX Cursor Acquisition -->
  <rect x="30" y="76" width="780" height="78" rx="8" fill="#1c1f26"/>
  <rect x="30" y="76" width="5" height="78" rx="3" fill="#c084fc"/>
  <text x="52" y="101" fill="#c084fc" font-size="13" font-weight="700">SPCX</text>
  <text x="52" y="120" fill="#e6edf3" font-size="14" font-weight="600">SpaceX Acquires Cursor AI for $80B — Largest VC-Backed Deal Ever</text>
  <text x="52" y="141" fill="#7d8590" font-size="12">All-stock deal · Prev. record: IBM/Red Hat $34B · Folds into xAI · Close Q3 2026</text>
  <text x="790" y="127" text-anchor="end" fill="#c084fc" font-size="24" font-weight="800">$80B</text>

  <!-- Card 2: TSLA FSD Spain + Subs -->
  <rect x="30" y="162" width="780" height="78" rx="8" fill="#1c1f26"/>
  <rect x="30" y="162" width="5" height="78" rx="3" fill="#00e5a0"/>
  <text x="52" y="187" fill="#00e5a0" font-size="13" font-weight="700">TSLA</text>
  <text x="52" y="206" fill="#e6edf3" font-size="14" font-weight="600">FSD Spain: 275,471 km Zero Incidents · Subs Cross 1.42M</text>
  <text x="52" y="227" fill="#7d8590" font-size="12">Certified by Spain DGT · Q1 1,280,000 → Q2 1,420,800 forecast (+11%)</text>
  <text x="790" y="213" text-anchor="end" fill="#00e5a0" font-size="20" font-weight="800">275K km</text>

  <!-- Card 3: TSLA Optimus + MEGAPOD -->
  <rect x="30" y="248" width="780" height="78" rx="8" fill="#1c1f26"/>
  <rect x="30" y="248" width="5" height="78" rx="3" fill="#00e5a0"/>
  <text x="52" y="273" fill="#00e5a0" font-size="13" font-weight="700">TSLA</text>
  <text x="52" y="292" fill="#e6edf3" font-size="14" font-weight="600">Optimus Final Stage · MEGAPOD Trademark · Grok+FSD in 3 Months</text>
  <text x="52" y="313" fill="#7d8590" font-size="12">Elon: "Mass production next year" · MEGAPOD = AI DC module · NL FSD soon</text>
  <text x="790" y="299" text-anchor="end" fill="#00e5a0" font-size="17" font-weight="800">3 Catalysts</text>

  <!-- Card 4: AMZN + Cloud Backlog -->
  <rect x="30" y="334" width="780" height="78" rx="8" fill="#1c1f26"/>
  <rect x="30" y="334" width="5" height="78" rx="3" fill="#fb923c"/>
  <text x="52" y="359" fill="#fb923c" font-size="13" font-weight="700">AMZN</text>
  <text x="52" y="378" fill="#e6edf3" font-size="14" font-weight="600">Amazon #1 US Company $717B — Ends Walmart's 13-Year Streak</text>
  <text x="52" y="399" fill="#7d8590" font-size="12">AWS backlog $480B · Azure +215% · GCP $260B · Cloud supply constrained</text>
  <text x="790" y="385" text-anchor="end" fill="#fb923c" font-size="20" font-weight="800">$717B</text>

  <!-- Card 5: MU + Nasdaq100 -->
  <rect x="30" y="420" width="780" height="78" rx="8" fill="#1c1f26"/>
  <rect x="30" y="420" width="5" height="78" rx="3" fill="#60a5fa"/>
  <text x="52" y="445" fill="#60a5fa" font-size="13" font-weight="700">MU / NASDAQ</text>
  <text x="52" y="464" fill="#e6edf3" font-size="14" font-weight="600">Micron Op. Income 2027E $157B · Nasdaq100 Adds CRWV, RKLB, ALAB</text>
  <text x="52" y="485" fill="#7d8590" font-size="12">MU: $1.3B (Aug24) → $157B (Aug27E) · NDX: removes $100B, adds $350B</text>
  <text x="790" y="471" text-anchor="end" fill="#60a5fa" font-size="18" font-weight="800">$157B E</text>

  <line x1="40" y1="510" x2="800" y2="510" stroke="#21262d" stroke-width="1"/>
  <text x="420" y="528" text-anchor="middle" fill="#7d8590" font-size="11">SPCX · TSLA · AMZN · MU · NASDAQ100 · INTC · GOOGL · META</text>
  <text x="420" y="545" text-anchor="middle" fill="#444c56" font-size="10">For informational purposes only. Not investment advice.</text>
  <text x="420" y="562" text-anchor="middle" fill="#444c56" font-size="10">investus.kr</text>
</svg>
