<svg xmlns="http://www.w3.org/2000/svg" viewBox="0 0 1080 1350" width="1080" height="1350">
  <defs>
    <linearGradient id="bg" x1="0%" y1="0%" x2="100%" y2="100%">
      <stop offset="0%" style="stop-color:#040a14"/>
      <stop offset="100%" style="stop-color:#0a1020"/>
    </linearGradient>
    <linearGradient id="topBar" x1="0%" y1="0%" x2="100%" y2="0%">
      <stop offset="0%" style="stop-color:#60a5fa"/>
      <stop offset="33%" style="stop-color:#00e5a0"/>
      <stop offset="66%" style="stop-color:#c084fc"/>
      <stop offset="100%" style="stop-color:#60a5fa"/>
    </linearGradient>
  </defs>
  <rect width="1080" height="1350" fill="url(#bg)"/>
  <rect x="60" y="60" width="960" height="6" fill="url(#topBar)" rx="3"/>

  <text x="540" y="128" font-family="Arial Black, Arial" font-weight="900" font-size="18" fill="#6b7280" text-anchor="middle">2026.07.09</text>
  <text x="540" y="186" font-family="Arial Black, Arial" font-weight="900" font-size="48" fill="#ffffff" text-anchor="middle">Daily Summary</text>
  <text x="540" y="230" font-family="Arial, sans-serif" font-size="17" fill="#9ca3af" text-anchor="middle">TSLA · xAI · AAPL · NVDA · BO · COST · JPY</text>

  <rect x="64" y="262" width="952" height="80" rx="14" fill="#071a10" stroke="#00e5a0" stroke-width="1.5"/>
  <rect x="64" y="262" width="6" height="80" rx="3" fill="#00e5a0"/>
  <text x="96" y="298" font-family="Arial Black, Arial" font-weight="900" font-size="16" fill="#00e5a0">1. TSLA Net-Zero 2040 — Operations 100% Renewable by 2026</text>
  <text x="96" y="324" font-family="Arial, sans-serif" font-size="14" fill="#9ca3af">Full value chain: suppliers, manufacturing, use, end-of-life · Giga Berlin already 100% (3rd year)</text>

  <rect x="64" y="358" width="952" height="80" rx="14" fill="#071a10" stroke="#00e5a0" stroke-width="1.5"/>
  <rect x="64" y="358" width="6" height="80" rx="3" fill="#00e5a0"/>
  <text x="96" y="394" font-family="Arial Black, Arial" font-weight="900" font-size="16" fill="#00e5a0">2. TSLA Battery Recycling — 14,000 tons in 2025, +20% YoY</text>
  <text x="96" y="420" font-family="Arial, sans-serif" font-size="14" fill="#9ca3af">= 46,000 long-range battery packs · in-house processing + third-party partners</text>

  <rect x="64" y="454" width="952" height="80" rx="14" fill="#071a10" stroke="#00e5a0" stroke-width="1.5"/>
  <rect x="64" y="454" width="6" height="80" rx="3" fill="#00e5a0"/>
  <text x="96" y="490" font-family="Arial Black, Arial" font-weight="900" font-size="16" fill="#00e5a0">3. TSLA Cybercab Design — 2-seat, 4680 cells, 48V, Steer-by-Wire</text>
  <text x="96" y="516" font-family="Arial, sans-serif" font-size="14" fill="#9ca3af">90% of ride-hailing trips carry 1-2 people · no wheel, no pedals · freed cabin space</text>

  <rect x="64" y="550" width="952" height="80" rx="14" fill="#071a10" stroke="#00e5a0" stroke-width="1.5"/>
  <rect x="64" y="550" width="6" height="80" rx="3" fill="#00e5a0"/>
  <text x="96" y="586" font-family="Arial Black, Arial" font-weight="900" font-size="16" fill="#00e5a0">4. TSLA Robotaxi Florida Summer Launch — Statewide Footprint Push</text>
  <text x="96" y="612" font-family="Arial, sans-serif" font-size="14" fill="#9ca3af">Florida = ultimate proving ground · target: dozen states by end-2026 (GoJo)</text>

  <rect x="64" y="646" width="952" height="80" rx="14" fill="#0a1a2e" stroke="#60a5fa" stroke-width="1.5"/>
  <rect x="64" y="646" width="6" height="80" rx="3" fill="#60a5fa"/>
  <text x="96" y="682" font-family="Arial Black, Arial" font-weight="900" font-size="16" fill="#60a5fa">5. Waymo 4-City Expansion — Denver·Las Vegas·San Diego·Culver City</text>
  <text x="96" y="708" font-family="Arial, sans-serif" font-size="14" fill="#9ca3af">Fully autonomous ride-hails now live · direct competition with Tesla Robotaxi</text>

  <rect x="64" y="742" width="952" height="80" rx="14" fill="#0e0a1e" stroke="#c084fc" stroke-width="1.5"/>
  <rect x="64" y="742" width="6" height="80" rx="3" fill="#c084fc"/>
  <text x="96" y="778" font-family="Arial Black, Arial" font-weight="900" font-size="16" fill="#c084fc">6. xAI Grok 4.5 — $2/M in · $6/M out · 80 TPS · 4.5x cheaper than Opus 4.8</text>
  <text x="96" y="804" font-family="Arial, sans-serif" font-size="14" fill="#9ca3af">4.2x fewer tokens (15,954 vs 67,020) · fast-model speed with retained intelligence</text>

  <rect x="64" y="838" width="952" height="80" rx="14" fill="#0a1a2e" stroke="#60a5fa" stroke-width="1.5"/>
  <rect x="64" y="838" width="6" height="80" rx="3" fill="#60a5fa"/>
  <text x="96" y="874" font-family="Arial Black, Arial" font-weight="900" font-size="16" fill="#60a5fa">7. AAPL × AVGO Multi-Year Deal — Fort Collins CO Expansion, Billions in US Chips</text>
  <text x="96" y="900" font-family="Arial, sans-serif" font-size="14" fill="#9ca3af">Apple deepens US manufacturing investment · Broadcom custom silicon partnership</text>

  <rect x="64" y="934" width="952" height="80" rx="14" fill="#1a0a0a" stroke="#f87171" stroke-width="1.5"/>
  <rect x="64" y="934" width="6" height="80" rx="3" fill="#f87171"/>
  <text x="96" y="970" font-family="Arial Black, Arial" font-weight="900" font-size="16" fill="#f87171">8. NVDA China Talks — top AI firms request approval for limited H200 GPUs</text>
  <text x="96" y="996" font-family="Arial, sans-serif" font-size="14" fill="#9ca3af">Aim: ease training chip shortage · inference stays on domestic processors (Boloor · PBOC)</text>

  <rect x="64" y="1030" width="952" height="80" rx="14" fill="#0e0a1e" stroke="#c084fc" stroke-width="1.5"/>
  <rect x="64" y="1030" width="6" height="80" rx="3" fill="#c084fc"/>
  <text x="96" y="1066" font-family="Arial Black, Arial" font-weight="900" font-size="16" fill="#c084fc">9. Blue Origin Cap Raise — NYT: $2.9~3.5B · $29 share price (Bezos scales space)</text>
  <text x="96" y="1092" font-family="Arial, sans-serif" font-size="14" fill="#9ca3af">SPCX competition confirmed · space capital cycle reignited</text>

  <rect x="64" y="1126" width="474" height="80" rx="14" fill="#0a1a2e" stroke="#60a5fa" stroke-width="1.5"/>
  <rect x="64" y="1126" width="6" height="80" rx="3" fill="#60a5fa"/>
  <text x="96" y="1162" font-family="Arial Black, Arial" font-weight="900" font-size="15" fill="#60a5fa">10. COST June sales $29.24B</text>
  <text x="96" y="1188" font-family="Arial, sans-serif" font-size="13" fill="#9ca3af">+10.6% YoY · Digital +20.9%</text>

  <rect x="546" y="1126" width="470" height="80" rx="14" fill="#1a0d00" stroke="#fb923c" stroke-width="1.5"/>
  <rect x="546" y="1126" width="6" height="80" rx="3" fill="#fb923c"/>
  <text x="578" y="1162" font-family="Arial Black, Arial" font-weight="900" font-size="15" fill="#fb923c">11. JPY shorts most bearish since 2007</text>
  <text x="578" y="1188" font-family="Arial, sans-serif" font-size="13" fill="#9ca3af">CFTC hedge fund net short at extreme</text>

  <rect x="0" y="1290" width="1080" height="60" fill="#020810"/>
  <text x="540" y="1326" font-family="Arial, sans-serif" font-size="13" fill="#374151" text-anchor="middle">INVESTUS · 2026.07.09 · investus.kr SRP Chief Investment Officer</text>
</svg>
