<svg xmlns="http://www.w3.org/2000/svg" viewBox="0 0 1080 1080" width="1080" height="1080">
  <defs>
    <linearGradient id="bg" x1="0%" y1="0%" x2="100%" y2="100%"><stop offset="0%" style="stop-color:#0d1117"/><stop offset="100%" style="stop-color:#0a0f1a"/></linearGradient>
    <linearGradient id="flow" x1="0%" y1="0%" x2="100%" y2="0%"><stop offset="0%" style="stop-color:#ef4444"/><stop offset="25%" style="stop-color:#f59e0b"/><stop offset="50%" style="stop-color:#4ade80"/><stop offset="75%" style="stop-color:#60a5fa"/><stop offset="100%" style="stop-color:#c084fc"/></linearGradient>
  </defs>
  <rect width="1080" height="1080" fill="url(#bg)"/>
  <rect width="1080" height="1080" fill="none" stroke="#1f2937" stroke-width="2"/>
  <rect x="0" y="0" width="1080" height="5" fill="url(#flow)"/>
  <text x="540" y="48" font-family="Arial" font-size="13" fill="#6b7280" text-anchor="middle" letter-spacing="3">INVESTUS DAILY REPORT</text>
  <text x="540" y="92" font-family="Arial Black,Arial" font-size="34" font-weight="900" fill="#f9fafb" text-anchor="middle">2026.09.23 한국주식 한장 요약</text>
  <line x1="80" y1="108" x2="1000" y2="108" stroke="#1f2937" stroke-width="1"/>
  <rect x="60" y="122" width="960" height="165" rx="14" fill="#061520" stroke="#38bdf8" stroke-width="2"/>
  <rect x="60" y="122" width="8" height="165" rx="4" fill="#38bdf8"/>
  <text x="116" y="181" font-family="Arial Black,Arial" font-size="23" font-weight="900" fill="#38bdf8">코스피가 7,153.99로 열려 장중 7,100을 내주며 추석 전날 숨을…</text>
  <text x="116" y="217" font-family="Arial" font-size="17" fill="#9ca3af">전일 종가는 7,017.91입니다. 시가 1.94% 상승 뒤 차익 실현이 나왔습니다.</text>
  <text x="985" y="207" font-family="Arial Black,Arial" font-size="20" font-weight="900" fill="#38bdf8" text-anchor="end">7,153.99</text>
  <rect x="60" y="297" width="960" height="165" rx="14" fill="#0a1420" stroke="#60a5fa" stroke-width="2"/>
  <rect x="60" y="297" width="8" height="165" rx="4" fill="#60a5fa"/>
  <text x="116" y="356" font-family="Arial Black,Arial" font-size="23" font-weight="900" fill="#60a5fa">삼성전자가 장중 28만4,000원까지 오르며 28만 원대를 다시…</text>
  <text x="116" y="392" font-family="Arial" font-size="17" fill="#9ca3af">전일 27만6,500원에서 +2.71%입니다. 한때 28만5,000원이었습니다.</text>
  <text x="985" y="382" font-family="Arial Black,Arial" font-size="20" font-weight="900" fill="#60a5fa" text-anchor="end">28만4,000원</text>
  <rect x="60" y="472" width="960" height="165" rx="14" fill="#1a1205" stroke="#f59e0b" stroke-width="2"/>
  <rect x="60" y="472" width="8" height="165" rx="4" fill="#f59e0b"/>
  <text x="116" y="531" font-family="Arial Black,Arial" font-size="23" font-weight="900" fill="#f59e0b">SK하이닉스가 장중 190만 원까지 오르며 전날 약세를…</text>
  <text x="116" y="567" font-family="Arial" font-size="17" fill="#9ca3af">전일 약 184만 원에서 장중 +1.79%, 고가 +3.26%입니다.</text>
  <text x="985" y="557" font-family="Arial Black,Arial" font-size="20" font-weight="900" fill="#f59e0b" text-anchor="end">190만 원</text>
  <rect x="60" y="647" width="960" height="165" rx="14" fill="#06171c" stroke="#22d3ee" stroke-width="2"/>
  <rect x="60" y="647" width="8" height="165" rx="4" fill="#22d3ee"/>
  <text x="116" y="706" font-family="Arial Black,Arial" font-size="23" font-weight="900" fill="#22d3ee">삼성바이오로직스 노사가 10월 1일 3차 조정에 나섭니다</text>
  <text x="116" y="742" font-family="Arial" font-size="17" fill="#9ca3af">22일 2차 조정에서 회사안이 없었고, 노조는 단체행동을 준비합니다.</text>
  <text x="985" y="732" font-family="Arial Black,Arial" font-size="20" font-weight="900" fill="#22d3ee" text-anchor="end">10월 1일</text>
  <rect x="60" y="822" width="960" height="165" rx="14" fill="#061520" stroke="#38bdf8" stroke-width="2"/>
  <rect x="60" y="822" width="8" height="165" rx="4" fill="#38bdf8"/>
  <text x="116" y="881" font-family="Arial Black,Arial" font-size="23" font-weight="900" fill="#38bdf8">LG에너지솔루션이 장중 약 1.71% 오르며 전날 약세에서 숨…</text>
  <text x="116" y="917" font-family="Arial" font-size="17" fill="#9ca3af">21일 −3.3% 뒤 추석 전날 순환의 한 칸입니다.</text>
  <text x="985" y="907" font-family="Arial Black,Arial" font-size="20" font-weight="900" fill="#38bdf8" text-anchor="end">+1.71%</text>
  <text x="540" y="1010" font-family="Arial" font-size="16" fill="#6b7280" text-anchor="middle">더 볼 것: 시가 7,153.99 · 삼성 28만4,000원 · 하이닉스 190만 원 · 바이오 10/1 · 엔솔 +1.71%</text>
  <rect x="0" y="1060" width="1080" height="20" fill="url(#flow)" opacity=".4"/>
  <text x="540" y="1073" font-family="Arial" font-size="11" fill="#6b7280" text-anchor="middle" letter-spacing="2">investus.kr SRP 최고투자책임자 발행 · NOT FINANCIAL ADVICE</text>
</svg>