<svg xmlns="http://www.w3.org/2000/svg" viewBox="0 0 1080 1080" width="1080" height="1080">
  <defs>
    <linearGradient id="bg" x1="0%" y1="0%" x2="100%" y2="100%"><stop offset="0%" style="stop-color:#0d1117"/><stop offset="100%" style="stop-color:#0a0f1a"/></linearGradient>
    <linearGradient id="flow" x1="0%" y1="0%" x2="100%" y2="0%"><stop offset="0%" style="stop-color:#60a5fa"/><stop offset="33%" style="stop-color:#00e5a0"/><stop offset="66%" style="stop-color:#c084fc"/><stop offset="100%" style="stop-color:#ef4444"/></linearGradient>
  </defs>
  <rect width="1080" height="1080" fill="url(#bg)"/>
  <rect width="1080" height="1080" fill="none" stroke="#1f2937" stroke-width="2"/>
  <rect x="0" y="0" width="1080" height="5" fill="url(#flow)"/>

  <text x="540" y="52" font-family="Arial" font-size="13" fill="#6b7280" text-anchor="middle" letter-spacing="3">INVESTUS DAILY REPORT</text>
  <text x="540" y="96" font-family="Arial Black,Arial" font-size="42" font-weight="900" fill="#f9fafb" text-anchor="middle">2026.07.15 Daily Snapshot</text>
  <text x="540" y="128" font-family="Arial" font-size="18" fill="#9ca3af" text-anchor="middle">Top 6 headlines</text>
  <line x1="80" y1="146" x2="1000" y2="146" stroke="#1f2937" stroke-width="1"/>

  <rect x="60" y="166" width="960" height="118" rx="14" fill="#0a0f1a" stroke="#60a5fa" stroke-width="2"/>
  <rect x="60" y="166" width="8" height="118" rx="4" fill="#60a5fa"/>
  <text x="116" y="214" font-family="Arial Black,Arial" font-size="28" font-weight="900" fill="#60a5fa">June CPI Plunge</text>
  <text x="116" y="254" font-family="Arial" font-size="22" fill="#9ca3af">Core 2.6% · Hassett “best in ~6 years”</text>
  <text x="960" y="248" font-family="Arial Black,Arial" font-size="44" font-weight="900" fill="#60a5fa" text-anchor="end">−0.4%</text>

  <rect x="60" y="300" width="960" height="118" rx="14" fill="#0a0a14" stroke="#c084fc" stroke-width="2"/>
  <rect x="60" y="300" width="8" height="118" rx="4" fill="#c084fc"/>
  <text x="116" y="348" font-family="Arial Black,Arial" font-size="28" font-weight="900" fill="#c084fc">Chamath · SPCX→TSLA Thesis</text>
  <text x="116" y="388" font-family="Arial" font-size="22" fill="#9ca3af">50% premium · combo ~$2.25T</text>
  <text x="960" y="382" font-family="Arial Black,Arial" font-size="44" font-weight="900" fill="#c084fc" text-anchor="end">$600</text>

  <rect x="60" y="434" width="960" height="118" rx="14" fill="#0a1a0a" stroke="#00e5a0" stroke-width="2"/>
  <rect x="60" y="434" width="8" height="118" rx="4" fill="#00e5a0"/>
  <text x="116" y="482" font-family="Arial Black,Arial" font-size="28" font-weight="900" fill="#00e5a0">Tesla Robotaxi Fleet</text>
  <text x="116" y="522" font-family="Arial" font-size="22" fill="#9ca3af">+4 · Unsupervised 39 · Austin 28</text>
  <text x="960" y="516" font-family="Arial Black,Arial" font-size="44" font-weight="900" fill="#00e5a0" text-anchor="end">765</text>

  <rect x="60" y="568" width="960" height="118" rx="14" fill="#1a0505" stroke="#ef4444" stroke-width="2"/>
  <rect x="60" y="568" width="8" height="118" rx="4" fill="#ef4444"/>
  <text x="116" y="616" font-family="Arial Black,Arial" font-size="28" font-weight="900" fill="#ef4444">IBM Q2 Miss</text>
  <text x="116" y="656" font-family="Arial" font-size="22" fill="#fca5a5">Rev $17.2B · ~$65B mcap ↓ · CHIPS $1B</text>
  <text x="960" y="650" font-family="Arial Black,Arial" font-size="44" font-weight="900" fill="#ef4444" text-anchor="end">−28%</text>

  <rect x="60" y="702" width="464" height="130" rx="14" fill="#0a0f1a" stroke="#60a5fa" stroke-width="2"/>
  <rect x="60" y="702" width="8" height="130" rx="4" fill="#60a5fa"/>
  <text x="112" y="752" font-family="Arial Black,Arial" font-size="24" font-weight="900" fill="#60a5fa">GOOGL Steel River</text>
  <text x="112" y="794" font-family="Arial" font-size="20" fill="#9ca3af">100% offtake</text>
  <text x="480" y="800" font-family="Arial Black,Arial" font-size="36" font-weight="900" fill="#60a5fa" text-anchor="end">1.6GW</text>

  <rect x="556" y="702" width="464" height="130" rx="14" fill="#0a0f1a" stroke="#60a5fa" stroke-width="2"/>
  <rect x="556" y="702" width="8" height="130" rx="4" fill="#60a5fa"/>
  <text x="608" y="752" font-family="Arial Black,Arial" font-size="24" font-weight="900" fill="#60a5fa">TSMC TTM Revenue</text>
  <text x="608" y="794" font-family="Arial" font-size="20" fill="#9ca3af">+31% YoY</text>
  <text x="980" y="800" font-family="Arial Black,Arial" font-size="36" font-weight="900" fill="#60a5fa" text-anchor="end">$140B</text>

  <rect x="0" y="860" width="1080" height="2" fill="url(#flow)" opacity=".5"/>
  <text x="540" y="910" font-family="Arial" font-size="20" fill="#6b7280" text-anchor="middle">More in individual reports · SPCX · NFLX · JPM · FSD…</text>

  <rect x="0" y="1060" width="1080" height="20" fill="url(#flow)" opacity=".4"/>
  <text x="540" y="1073" font-family="Arial" font-size="11" fill="#6b7280" text-anchor="middle" letter-spacing="2">INVESTUS · 2026.07.15 · NOT FINANCIAL ADVICE</text>
</svg>
