<svg xmlns="http://www.w3.org/2000/svg" viewBox="0 0 1080 1100" width="1080" height="1100">
  <defs>
    <linearGradient id="bg" x1="0%" y1="0%" x2="100%" y2="100%">
      <stop offset="0%" style="stop-color:#040a14"/>
      <stop offset="100%" style="stop-color:#0a1020"/>
    </linearGradient>
    <linearGradient id="topBar" x1="0%" y1="0%" x2="100%" y2="0%">
      <stop offset="0%" style="stop-color:#60a5fa"/>
      <stop offset="33%" style="stop-color:#00e5a0"/>
      <stop offset="66%" style="stop-color:#c084fc"/>
      <stop offset="100%" style="stop-color:#60a5fa"/>
    </linearGradient>
  </defs>
  <rect width="1080" height="1100" fill="url(#bg)"/>
  <rect x="60" y="60" width="960" height="6" fill="url(#topBar)" rx="3"/>
  <text x="540" y="128" font-family="Arial Black, Arial" font-weight="900" font-size="18" fill="#6b7280" text-anchor="middle">2026.07.14</text>
  <text x="540" y="186" font-family="Arial Black, Arial" font-weight="900" font-size="48" fill="#ffffff" text-anchor="middle">Daily Summary</text>
  <text x="540" y="230" font-family="Arial, sans-serif" font-size="17" fill="#9ca3af" text-anchor="middle">TSLA · SPCX · TSM · META · NVDA</text>

  <rect x="64" y="262" width="952" height="80" rx="14" fill="#071a10" stroke="#00e5a0" stroke-width="1.5"/>
  <rect x="64" y="262" width="6" height="80" rx="3" fill="#00e5a0"/>
  <text x="96" y="298" font-family="Arial Black, Arial" font-weight="900" font-size="16" fill="#00e5a0">1. BofA TSLA BUY reiterated · PT $460 — Robotaxi ~52% of value</text>
  <text x="96" y="324" font-family="Arial, sans-serif" font-size="14" fill="#9ca3af">Crash every 101k miles (~90% below humans) · Optimus RaaS $30B · Capex $25B AI/robotics</text>

  <rect x="64" y="358" width="952" height="80" rx="14" fill="#071a10" stroke="#00e5a0" stroke-width="1.5"/>
  <rect x="64" y="358" width="6" height="80" rx="3" fill="#00e5a0"/>
  <text x="96" y="394" font-family="Arial Black, Arial" font-weight="900" font-size="16" fill="#00e5a0">2. Jefferies raises TSLA PT to $400 (from $375) — Q2 delivery beat</text>
  <text x="96" y="420" font-family="Arial, sans-serif" font-size="14" fill="#9ca3af">FY2026 EBIT est +4% to $6.2B · long-wheelbase Model Y</text>

  <rect x="64" y="454" width="952" height="80" rx="14" fill="#1a0e2e" stroke="#c084fc" stroke-width="1.5"/>
  <rect x="64" y="454" width="6" height="80" rx="3" fill="#c084fc"/>
  <text x="96" y="490" font-family="Arial Black, Arial" font-weight="900" font-size="16" fill="#c084fc">3. FAA closes Starship Flight 12 probe (Jul 13) — Flight 13 clear</text>
  <text x="96" y="516" font-family="Arial, sans-serif" font-size="14" fill="#9ca3af">No public injury/property damage · 4 corrective actions · heat + alarm settings</text>

  <rect x="64" y="550" width="952" height="80" rx="14" fill="#1a0e2e" stroke="#c084fc" stroke-width="1.5"/>
  <rect x="64" y="550" width="6" height="80" rx="3" fill="#c084fc"/>
  <text x="96" y="586" font-family="Arial Black, Arial" font-weight="900" font-size="16" fill="#c084fc">4. SPCX $138.99 (−$6.31 / −4.34%) — lowest close</text>
  <text x="96" y="612" font-family="Arial, sans-serif" font-size="14" fill="#9ca3af">~ $1.2 Trillion lost from ATH · Jul 13 16:11 ET</text>

  <rect x="64" y="646" width="952" height="80" rx="14" fill="#1a0e2e" stroke="#c084fc" stroke-width="1.5"/>
  <rect x="64" y="646" width="6" height="80" rx="3" fill="#c084fc"/>
  <text x="96" y="682" font-family="Arial Black, Arial" font-weight="900" font-size="16" fill="#c084fc">5. 4 politicians bought SPCX since IPO · 0 sales</text>
  <text x="96" y="708" font-family="Arial, sans-serif" font-size="14" fill="#9ca3af">John James $15,001–$50,000 (06/12) · Energy &amp; Commerce / FCC oversight</text>

  <rect x="64" y="742" width="952" height="80" rx="14" fill="#0a1a2e" stroke="#60a5fa" stroke-width="1.5"/>
  <rect x="64" y="742" width="6" height="80" rx="3" fill="#60a5fa"/>
  <text x="96" y="778" font-family="Arial Black, Arial" font-weight="900" font-size="16" fill="#60a5fa">6. TSMC record Q2 — ~$39.6B (+36% YoY), beat est ~$39.4B</text>
  <text x="96" y="804" font-family="Arial, sans-serif" font-size="14" fill="#9ca3af">June ~$13.8B · H1 2026 ~$75.0B</text>

  <rect x="64" y="838" width="952" height="80" rx="14" fill="#0a1a2e" stroke="#60a5fa" stroke-width="1.5"/>
  <rect x="64" y="838" width="6" height="80" rx="3" fill="#60a5fa"/>
  <text x="96" y="874" font-family="Arial Black, Arial" font-weight="900" font-size="16" fill="#60a5fa">7. META Louisiana DC up to $50B · up to 5GW compute</text>
  <text x="96" y="900" font-family="Arial, sans-serif" font-size="14" fill="#9ca3af">Richland Parish · &gt;$1B local infrastructure</text>

  <rect x="64" y="934" width="952" height="80" rx="14" fill="#0a1a2e" stroke="#60a5fa" stroke-width="1.5"/>
  <rect x="64" y="934" width="6" height="80" rx="3" fill="#60a5fa"/>
  <text x="96" y="970" font-family="Arial Black, Arial" font-weight="900" font-size="16" fill="#60a5fa">8. HF US semis buys highest in 3.5 yrs — 10% of exposure</text>
  <text x="96" y="996" font-family="Arial, sans-serif" font-size="14" fill="#9ca3af">After two largest weekly sales since Jun 2024 · 2x YoY · below May peak 14%</text>

  <rect x="0" y="1040" width="1080" height="60" fill="#020810"/>
  <text x="540" y="1076" font-family="Arial, sans-serif" font-size="13" fill="#374151" text-anchor="middle">INVESTUS · 2026.07.14 · investus.kr SRP Chief Investment Officer</text>
</svg>
