<svg xmlns="http://www.w3.org/2000/svg" viewBox="0 0 800 580" width="800" height="580">
  <defs>
    <linearGradient id="bg21" x1="0" y1="0" x2="1" y2="1"><stop offset="0%" stop-color="#080d1a"/><stop offset="100%" stop-color="#0c1525"/></linearGradient>
    <linearGradient id="gm" x1="0" y1="0" x2="1" y2="0"><stop offset="0%" stop-color="#00b580"/><stop offset="100%" stop-color="#00e5a0"/></linearGradient>
    <linearGradient id="gb" x1="0" y1="0" x2="1" y2="0"><stop offset="0%" stop-color="#1d4ed8"/><stop offset="100%" stop-color="#3b82f6"/></linearGradient>
    <linearGradient id="gp" x1="0" y1="0" x2="1" y2="0"><stop offset="0%" stop-color="#7c3aed"/><stop offset="100%" stop-color="#a78bfa"/></linearGradient>
  </defs>

  <rect width="800" height="580" fill="url(#bg21)"/>

  <!-- Header band -->
  <rect width="800" height="62" fill="rgba(0,229,160,0.07)" stroke="rgba(0,229,160,0.18)" stroke-width="0"/>
  <rect x="0" y="61" width="800" height="1" fill="rgba(0,229,160,0.2)"/>

  <text x="400" y="24" text-anchor="middle" fill="#00e5a0" font-size="10" font-family="Arial" font-weight="bold" letter-spacing="4">2026.05.21 오늘의 한장 요약</text>
  <text x="400" y="48" text-anchor="middle" fill="#e2e8f0" font-size="18" font-family="Arial" font-weight="bold">NVDA Q1 FY2027 · SpaceX IPO · Tesla 유리지붕</text>

  <!-- ─────────── CARD 1: NVDA ─────────── -->
  <rect x="20" y="80" width="370" height="220" rx="10" fill="rgba(59,130,246,0.08)" stroke="rgba(96,165,250,0.3)" stroke-width="1"/>
  <rect x="20" y="80" width="4" height="220" rx="2" fill="url(#gb)"/>

  <text x="44" y="106" fill="#60a5fa" font-size="10" font-family="Arial" font-weight="bold" letter-spacing="1">NVIDIA Q1 FY2027 실적</text>
  <text x="44" y="124" fill="#e2e8f0" font-size="15" font-family="Arial" font-weight="bold">데이터센터 $75.2B (+92% YoY)</text>

  <!-- mini bar chart -->
  <text x="44" y="148" fill="#94a3b8" font-size="10" font-family="Arial">DC 매출 (분기별)</text>
  <rect x="44" y="155" width="18" height="40" rx="2" fill="rgba(59,130,246,0.4)"/>
  <rect x="67" y="148" width="18" height="47" rx="2" fill="rgba(59,130,246,0.45)"/>
  <rect x="90" y="140" width="18" height="55" rx="2" fill="rgba(59,130,246,0.5)"/>
  <rect x="113" y="130" width="18" height="65" rx="2" fill="rgba(59,130,246,0.55)"/>
  <rect x="136" y="123" width="18" height="72" rx="2" fill="rgba(59,130,246,0.6)"/>
  <rect x="159" y="120" width="18" height="75" rx="2" fill="rgba(59,130,246,0.65)"/>
  <rect x="182" y="108" width="18" height="87" rx="2" fill="rgba(59,130,246,0.7)"/>
  <rect x="205" y="94" width="18" height="101" rx="2" fill="rgba(59,130,246,0.75)"/>
  <rect x="228" y="78" width="18" height="117" rx="2" fill="url(#gb)"/>
  <text x="237" y="74" text-anchor="middle" fill="#00e5a0" font-size="9" font-family="Arial" font-weight="bold">$75.2B</text>

  <line x1="250" y1="155" x2="370" y2="155" stroke="rgba(255,255,255,0.04)" stroke-width="1"/>

  <text x="260" y="100" fill="#94a3b8" font-size="9" font-family="Arial">순이익</text>
  <text x="260" y="115" fill="#60a5fa" font-size="14" font-family="Arial" font-weight="bold">$58.3B</text>
  <text x="260" y="128" fill="#64748b" font-size="9" font-family="Arial">vs $18.8B YoY</text>

  <text x="260" y="148" fill="#94a3b8" font-size="9" font-family="Arial">영업 현금흐름</text>
  <text x="260" y="163" fill="#c084fc" font-size="14" font-family="Arial" font-weight="bold">$50.3B</text>
  <text x="260" y="176" fill="#64748b" font-size="9" font-family="Arial">분기 사상 최대 · MS·아마존 추월</text>

  <rect x="35" y="205" width="340" height="85" rx="6" fill="rgba(59,130,246,0.06)" stroke="rgba(59,130,246,0.15)" stroke-width="1"/>
  <text x="52" y="222" fill="#94a3b8" font-size="9" font-family="Arial">핵심 지표 요약</text>
  <text x="52" y="239" fill="#cbd5e1" font-size="10.5" font-family="Arial">• 데이터센터 매출: $75.2B (+92% YoY · 전년 $39.1B)</text>
  <text x="52" y="254" fill="#cbd5e1" font-size="10.5" font-family="Arial">• 매출총이익률: 71%+ · 이중 소프트웨어 기업 수준</text>
  <text x="52" y="269" fill="#cbd5e1" font-size="10.5" font-family="Arial">• Dan Ives: "eye-popping · 기술 세계 파급 효과"</text>
  <text x="52" y="284" fill="#00e5a0" font-size="10.5" font-family="Arial" font-weight="bold">→ 2026년 전 세계 최대 영업현금흐름 기업 등극 전망</text>

  <!-- ─────────── CARD 2: SpaceX ─────────── -->
  <rect x="410" y="80" width="370" height="220" rx="10" fill="rgba(168,85,247,0.08)" stroke="rgba(168,85,247,0.3)" stroke-width="1"/>
  <rect x="410" y="80" width="4" height="220" rx="2" fill="url(#gp)"/>

  <text x="434" y="106" fill="#c084fc" font-size="10" font-family="Arial" font-weight="bold" letter-spacing="1">SpaceX 공개 S-1 제출 · $SPCX</text>
  <text x="434" y="124" fill="#e2e8f0" font-size="15" font-family="Arial" font-weight="bold">IPO 공식 시작 · 머스크 의결권 85.1%</text>

  <rect x="425" y="133" width="160" height="50" rx="6" fill="rgba(168,85,247,0.12)" stroke="rgba(168,85,247,0.25)" stroke-width="1"/>
  <text x="505" y="152" text-anchor="middle" fill="#94a3b8" font-size="9" font-family="Arial">티커</text>
  <text x="505" y="170" text-anchor="middle" fill="#c084fc" font-size="18" font-family="Arial" font-weight="bold">$SPCX</text>

  <rect x="595" y="133" width="170" height="50" rx="6" fill="rgba(239,68,68,0.1)" stroke="rgba(239,68,68,0.25)" stroke-width="1"/>
  <text x="680" y="152" text-anchor="middle" fill="#94a3b8" font-size="9" font-family="Arial">머스크 의결권</text>
  <text x="680" y="170" text-anchor="middle" fill="#f87171" font-size="18" font-family="Arial" font-weight="bold">85.1%</text>

  <rect x="425" y="192" width="340" height="100" rx="6" fill="rgba(168,85,247,0.06)" stroke="rgba(168,85,247,0.15)" stroke-width="1"/>
  <text x="442" y="209" fill="#94a3b8" font-size="9" font-family="Arial">S-1 핵심 사실</text>
  <text x="442" y="226" fill="#cbd5e1" font-size="10.5" font-family="Arial">• 공개 S-1 SEC 제출: 2026년 5월 20일</text>
  <text x="442" y="241" fill="#cbd5e1" font-size="10.5" font-family="Arial">• Elon Musk: Class A 12.3% · Class B 93.6%</text>
  <text x="442" y="256" fill="#cbd5e1" font-size="10.5" font-family="Arial">• Starlink 유료 구독자: 1,000만 돌파 (2020→2026)</text>
  <text x="442" y="271" fill="#c084fc" font-size="10.5" font-family="Arial" font-weight="bold">→ SpaceX 비상장 → 수혜주: RKLB (로켓랩) 주목</text>
  <text x="442" y="284" fill="#64748b" font-size="9.5" font-family="Arial">Starlink(통신)+Starship(발사)+AI인프라 복합 플랫폼</text>

  <!-- ─────────── CARD 3: TSLA ─────────── -->
  <rect x="20" y="315" width="370" height="230" rx="10" fill="rgba(0,229,160,0.07)" stroke="rgba(0,229,160,0.25)" stroke-width="1"/>
  <rect x="20" y="315" width="4" height="230" rx="2" fill="url(#gm)"/>

  <text x="44" y="341" fill="#00e5a0" font-size="10" font-family="Arial" font-weight="bold" letter-spacing="1">Tesla 유리지붕 특허</text>
  <text x="44" y="359" fill="#e2e8f0" font-size="15" font-family="Arial" font-weight="bold">Active HVAC + Acoustic Tuning</text>

  <!-- Simple diagram -->
  <text x="100" y="385" text-anchor="middle" fill="#fbbf24" font-size="10" font-family="Arial">☀ 열</text>
  <line x1="100" y1="390" x2="100" y2="400" stroke="#fbbf24" stroke-width="1.5" stroke-dasharray="3,2"/>
  <rect x="45" y="400" width="180" height="14" rx="3" fill="rgba(147,197,253,0.3)" stroke="rgba(147,197,253,0.5)" stroke-width="1"/>
  <text x="135" y="411" text-anchor="middle" fill="#93c5fd" font-size="8" font-family="Arial">외부유리 (천공 구조)</text>
  <rect x="45" y="416" width="180" height="12" rx="0" fill="rgba(0,229,160,0.1)" stroke="rgba(0,229,160,0.3)" stroke-width="1" stroke-dasharray="3,2"/>
  <text x="135" y="426" text-anchor="middle" fill="#00e5a0" font-size="8" font-family="Arial">→ 공기 에어갭 → 냉각</text>
  <rect x="45" y="430" width="180" height="14" rx="3" fill="rgba(147,197,253,0.2)" stroke="rgba(147,197,253,0.3)" stroke-width="1"/>
  <text x="135" y="441" text-anchor="middle" fill="#93c5fd" font-size="8" font-family="Arial">내부유리 (공명 제어)</text>
  <rect x="45" y="446" width="180" height="16" rx="3" fill="rgba(30,41,59,0.9)" stroke="rgba(100,116,139,0.3)" stroke-width="1"/>
  <text x="135" y="458" text-anchor="middle" fill="#94a3b8" font-size="8" font-family="Arial">실내 (쾌적)</text>

  <rect x="240" y="378" width="135" height="88" rx="6" fill="rgba(0,229,160,0.07)" stroke="rgba(0,229,160,0.15)" stroke-width="1"/>
  <text x="307" y="396" text-anchor="middle" fill="#00e5a0" font-size="9" font-family="Arial" font-weight="bold">기대 효과</text>
  <text x="257" y="412" fill="#cbd5e1" font-size="9" font-family="Arial">• 배터리 소모 감소</text>
  <text x="257" y="426" fill="#cbd5e1" font-size="9" font-family="Arial">• 주행거리 연장</text>
  <text x="257" y="440" fill="#cbd5e1" font-size="9" font-family="Arial">• 소음 차단 강화</text>
  <text x="257" y="454" fill="#cbd5e1" font-size="9" font-family="Arial">• 프리미엄 포지셔닝</text>

  <rect x="35" y="470" width="340" height="65" rx="6" fill="rgba(0,229,160,0.05)" stroke="rgba(0,229,160,0.12)" stroke-width="1"/>
  <text x="52" y="487" fill="#94a3b8" font-size="9" font-family="Arial">투자 시사점</text>
  <text x="52" y="503" fill="#cbd5e1" font-size="10.5" font-family="Arial">• BYD 대비 기술 우위 · 특허 장벽 확보</text>
  <text x="52" y="518" fill="#cbd5e1" font-size="10.5" font-family="Arial">• Cybercab/Robotaxi 탑승 경험 차별화 적용 기대</text>
  <text x="52" y="533" fill="#00e5a0" font-size="10.5" font-family="Arial" font-weight="bold">→ 에너지 효율 + 명품차 NVH = ASP 상승 근거</text>

  <!-- ─────────── CARD 4: Market ─────────── -->
  <rect x="410" y="315" width="370" height="230" rx="10" fill="rgba(0,229,160,0.05)" stroke="rgba(0,229,160,0.18)" stroke-width="1"/>
  <rect x="410" y="315" width="4" height="230" rx="2" fill="url(#gm)"/>

  <text x="434" y="341" fill="#00e5a0" font-size="10" font-family="Arial" font-weight="bold" letter-spacing="1">오늘의 핵심 메시지</text>
  <text x="434" y="359" fill="#e2e8f0" font-size="15" font-family="Arial" font-weight="bold">AI 인프라 독주 · 우주경제 시대 개막</text>

  <rect x="425" y="368" width="340" height="45" rx="6" fill="rgba(59,130,246,0.08)" stroke="rgba(59,130,246,0.2)" stroke-width="1"/>
  <text x="442" y="385" fill="#60a5fa" font-size="10" font-family="Arial" font-weight="bold">🟦 NVDA — AI 인프라 독점 심화</text>
  <text x="442" y="401" fill="#cbd5e1" font-size="10" font-family="Arial">OCF $50B = MS·아마존 추월 · Blackwell 수요 무한대</text>
  <text x="442" y="407" fill="#64748b" font-size="8.5" font-family="Arial">장기 보유 논리 더욱 강화됨</text>

  <rect x="425" y="420" width="340" height="45" rx="6" fill="rgba(168,85,247,0.07)" stroke="rgba(168,85,247,0.18)" stroke-width="1"/>
  <text x="442" y="437" fill="#c084fc" font-size="10" font-family="Arial" font-weight="bold">🟣 SpaceX — 우주경제 IPO 시대 개막</text>
  <text x="442" y="453" fill="#cbd5e1" font-size="10" font-family="Arial">$SPCX 상장 시 S&amp;P500 편입 · 패시브 자금 유입</text>
  <text x="442" y="459" fill="#64748b" font-size="8.5" font-family="Arial">현재 RKLB로 간접 노출 가능</text>

  <rect x="425" y="472" width="340" height="45" rx="6" fill="rgba(0,229,160,0.07)" stroke="rgba(0,229,160,0.18)" stroke-width="1"/>
  <text x="442" y="489" fill="#00e5a0" font-size="10" font-family="Arial" font-weight="bold">🟢 TSLA — 기술 특허로 경쟁 해자 확장</text>
  <text x="442" y="505" fill="#cbd5e1" font-size="10" font-family="Arial">유리지붕 특허 → 에너지 효율 + NVH + 프리미엄</text>
  <text x="442" y="511" fill="#64748b" font-size="8.5" font-family="Arial">Cybercab 상용화 연결 → 장기 로드맵 강화</text>

  <rect x="425" y="524" width="340" height="14" rx="4" fill="rgba(212,175,55,0.1)" stroke="rgba(212,175,55,0.2)" stroke-width="1"/>
  <text x="595" y="535" text-anchor="middle" fill="#d4af37" font-size="9.5" font-family="Arial" font-weight="bold">✦ 오늘은 기술 혁신과 우주경제가 동시에 열린 날입니다</text>

  <!-- Watermark -->
  <text x="780" y="572" text-anchor="end" fill="rgba(148,163,184,0.3)" font-size="9" font-family="Arial">SUNRYU Partners CIO · investus.kr</text>
</svg>
