<svg xmlns="http://www.w3.org/2000/svg" viewBox="0 0 800 560" font-family="'Segoe UI',Arial,sans-serif">
  <rect width="800" height="560" fill="#0a0f1e"/>
  <!-- Header -->
  <rect x="0" y="0" width="800" height="64" fill="#111827"/>
  <text x="30" y="38" font-size="13" font-weight="700" fill="#00e5a0" letter-spacing="1">2026.06.03</text>
  <text x="130" y="38" font-size="13" font-weight="700" fill="#e2e8f0">시장 한장 요약</text>
  <text x="680" y="38" font-size="11" fill="#6b7280">investus.kr</text>
  <text x="30" y="56" font-size="10" fill="#6b7280">SPCX Texas $55B · TSLA China 85K · Norway #1 · $375B 2031 · NVDA AI Platform · ARK $1B · 세계 $150T</text>

  <!-- SECTION 1: SPCX -->
  <rect x="20" y="76" width="370" height="88" rx="10" fill="#1a1033"/>
  <rect x="20" y="76" width="4" height="88" rx="2" fill="#c084fc"/>
  <text x="36" y="95" font-size="10" font-weight="700" fill="#c084fc">🚀 SPCX — Texas 반도체 Reinvestment Zone</text>
  <text x="36" y="112" font-size="10" fill="#e2e8f0">SpaceX Grimes County Texas 공청회 (2026.06.03)</text>
  <text x="36" y="127" font-size="10" fill="#9ca3af">초기 투자</text>
  <text x="110" y="127" font-size="13" font-weight="800" fill="#c084fc">$55B</text>
  <text x="155" y="127" font-size="10" fill="#9ca3af">  최종 총투자</text>
  <text x="240" y="127" font-size="13" font-weight="800" fill="#c084fc">$119B</text>
  <text x="36" y="143" font-size="10" fill="#9ca3af">수직통합 반도체 제조 + 고급 컴퓨팅 패브리케이션</text>
  <text x="36" y="157" font-size="10" fill="#6b7280">Starbase Build: 로컬 AI 실행 · 클라우드 연결 AI 디바이스 발표</text>

  <!-- SECTION 2: TSLA China -->
  <rect x="410" y="76" width="370" height="88" rx="10" fill="#0d1f12"/>
  <rect x="410" y="76" width="4" height="88" rx="2" fill="#00e5a0"/>
  <text x="426" y="95" font-size="10" font-weight="700" fill="#00e5a0">🚗 TSLA — 중국 5월 도매 85,982대</text>
  <!-- Mini bar chart -->
  <rect x="426" y="140" width="30" height="12" rx="2" fill="#374151"/>
  <text x="426" y="135" font-size="9" fill="#6b7280">Jan</text>
  <rect x="464" y="138" width="30" height="14" rx="2" fill="#374151"/>
  <text x="464" y="135" font-size="9" fill="#6b7280">Feb</text>
  <rect x="502" y="136" width="30" height="16" rx="2" fill="#374151"/>
  <text x="502" y="135" font-size="9" fill="#6b7280">Mar</text>
  <rect x="540" y="130" width="30" height="22" rx="2" fill="#374151"/>
  <text x="540" y="135" font-size="9" fill="#6b7280">Apr</text>
  <rect x="578" y="122" width="30" height="30" rx="2" fill="#00e5a0"/>
  <text x="578" y="135" font-size="9" font-weight="700" fill="#00e5a0">May</text>
  <text x="578" y="117" font-size="9" font-weight="700" fill="#00e5a0">85,982</text>
  <text x="426" y="112" font-size="11" fill="#e2e8f0">YTD 378,858  |  MoM <tspan font-weight="800" fill="#00e5a0">+8.2%</tspan></text>
  <text x="426" y="127" font-size="10" fill="#9ca3af">Norway 베스트셀링 카 1위 · 폭발적 수요 확인</text>

  <!-- SECTION 3: TSLA Revenue Segment -->
  <rect x="20" y="176" width="370" height="110" rx="10" fill="#0d1f12"/>
  <rect x="20" y="176" width="4" height="110" rx="2" fill="#00e5a0"/>
  <text x="36" y="195" font-size="10" font-weight="700" fill="#00e5a0">🚗 TSLA — Revenue Segment $375B by 2031E</text>
  <!-- Segment visual -->
  <rect x="36" y="205" width="340" height="16" rx="3" fill="#1f2937"/>
  <rect x="36" y="205" width="140" height="16" rx="3" fill="#dc2626" opacity="0.8"/>
  <text x="36" y="217" font-size="9" fill="white">Automotive 40%</text>
  <rect x="176" y="205" width="50" height="16" fill="#00e5a0" opacity="0.8"/>
  <text x="176" y="217" font-size="8" fill="black">Energy 11%</text>
  <rect x="226" y="205" width="40" height="16" fill="#60a5fa" opacity="0.8"/>
  <text x="226" y="217" font-size="8" fill="white">SVC 9%</text>
  <rect x="266" y="205" width="60" height="16" fill="#a78bfa" opacity="0.9"/>
  <text x="266" y="217" font-size="8" fill="white">Robots 16%</text>
  <rect x="326" y="205" width="50" height="16" fill="#f59e0b" opacity="0.9"/>
  <text x="326" y="217" font-size="8" fill="white">CyberCab</text>
  <text x="36" y="238" font-size="10" fill="#9ca3af">2017년 $11.8B → 2031E</text>
  <text x="160" y="238" font-size="14" font-weight="800" fill="#00e5a0">$375B</text>
  <text x="36" y="254" font-size="10" fill="#9ca3af">AI·로봇·에너지가 성장 주도 → 자동차 비중 82%→40%</text>
  <text x="36" y="268" font-size="10" fill="#6b7280">Cybertruck Foundation $64,500 · Non-Foundation $94,800</text>
  <text x="36" y="282" font-size="10" fill="#6b7280">(Source: Leverage Shares / Visible Alpha · 24 Apr 2026)</text>

  <!-- SECTION 4: NVDA -->
  <rect x="410" y="176" width="370" height="110" rx="10" fill="#0a1628"/>
  <rect x="410" y="176" width="4" height="110" rx="2" fill="#60a5fa"/>
  <text x="426" y="195" font-size="10" font-weight="700" fill="#60a5fa">🔵 NVDA — Celestial AI + AI 인프라 플랫폼</text>
  <!-- NVDA Platform layers -->
  <rect x="426" y="203" width="340" height="13" rx="3" fill="#1e3a5f"/>
  <text x="434" y="213" font-size="9" fill="#60a5fa">① ASIC 커스텀 칩 (Amazon·Google·Microsoft)</text>
  <rect x="426" y="218" width="300" height="13" rx="3" fill="#1e3a5f"/>
  <text x="434" y="228" font-size="9" fill="#60a5fa">② Celestial AI 인수 → FY2028 광학 인터커넥트 $37B</text>
  <rect x="426" y="233" width="260" height="13" rx="3" fill="#1e3a5f"/>
  <text x="434" y="243" font-size="9" fill="#60a5fa">③ NXM 커스텀 칩 · Hyperscaler 전용 파이프라인</text>
  <rect x="426" y="248" width="220" height="13" rx="3" fill="#1e3a5f"/>
  <text x="434" y="258" font-size="9" fill="#60a5fa">④ FY2026 매출 $175B · 클라우드 80% 비중</text>
  <text x="426" y="275" font-size="10" fill="#e2e8f0">Jensen: <tspan fill="#60a5fa" font-weight="700">"AI가 엔지니어 수요를 늘린다"</tspan> — AI 종말론 정면 반박</text>
  <text x="426" y="289" font-size="10" fill="#9ca3af">Sam Altman·Dario Amodei 'God Complex' 비판 · 나스닥 10,000</text>

  <!-- SECTION 5: ARK + Global -->
  <rect x="20" y="298" width="370" height="88" rx="10" fill="#111827"/>
  <rect x="20" y="298" width="4" height="88" rx="2" fill="#f59e0b"/>
  <text x="36" y="317" font-size="10" font-weight="700" fill="#f59e0b">📊 ARK Venture Fund — $1B AUM 달성</text>
  <!-- Timeline -->
  <text x="36" y="334" font-size="9" fill="#9ca3af">2022.09 출범</text>
  <line x1="100" y1="330" x2="240" y2="330" stroke="#374151" stroke-width="2"/>
  <circle cx="240" cy="330" r="5" fill="#f59e0b"/>
  <text x="246" y="334" font-size="10" font-weight="700" fill="#f59e0b">$1B AUM</text>
  <text x="36" y="350" font-size="10" fill="#9ca3af">SpaceX $900M → <tspan fill="#f59e0b" font-weight="700">$126B</tspan>  (140x 수익)</text>
  <text x="36" y="365" font-size="10" fill="#9ca3af">Anthropic 현재가치 <tspan fill="#f59e0b" font-weight="700">$125B</tspan>  · Epic Games 포함</text>
  <text x="36" y="380" font-size="10" fill="#6b7280">18년 이상 50%+ 혼합 수익률 vs 인덱스 펀드</text>

  <!-- SECTION 6: World $150T -->
  <rect x="410" y="298" width="370" height="88" rx="10" fill="#111827"/>
  <rect x="410" y="298" width="4" height="88" rx="2" fill="#f59e0b"/>
  <text x="426" y="317" font-size="10" font-weight="700" fill="#f59e0b">🌐 세계 주식시장 $150T 첫 돌파</text>
  <!-- Breakdown bars -->
  <rect x="426" y="325" width="200" height="12" rx="2" fill="#3b82f6"/>
  <text x="426" y="335" font-size="9" fill="white">미국 $78T (52%)</text>
  <rect x="426" y="340" width="55" height="12" rx="2" fill="#ef4444"/>
  <text x="426" y="350" font-size="9" fill="white">China $11T</text>
  <rect x="484" y="340" width="35" height="12" rx="2" fill="#f59e0b"/>
  <text x="484" y="350" font-size="9" fill="black">Japan</text>
  <rect x="522" y="340" width="108" height="12" rx="2" fill="#6b7280"/>
  <text x="522" y="350" font-size="9" fill="white">Other $54T</text>
  <text x="426" y="368" font-size="10" fill="#9ca3af">1975년 $1T → 2026년 <tspan fill="#f59e0b" font-weight="700">$150T</tspan> (150배)</text>
  <text x="426" y="382" font-size="10" fill="#6b7280">AI 랠리 + Mag 7 주도 · 미국 비중 35년 최고</text>

  <!-- SECTION 7: Elon vs Banks (bottom strip) -->
  <rect x="20" y="398" width="760" height="50" rx="10" fill="#1a1033"/>
  <rect x="20" y="398" width="4" height="50" rx="2" fill="#c084fc"/>
  <text x="36" y="417" font-size="10" font-weight="700" fill="#c084fc">⚡ Elon Musk vs Wall Street 수수료 전쟁</text>
  <text x="36" y="433" font-size="10" fill="#9ca3af">$75B 모금 시 은행 2% 수수료 = </text>
  <text x="200" y="433" font-size="11" font-weight="800" fill="#c084fc">$1.5B</text>
  <text x="240" y="433" font-size="10" fill="#9ca3af">  vs 실제 요구 수수료 0.75% = $562.5M · 차액 $937.5M 절감 요구</text>
  <text x="500" y="417" font-size="10" fill="#6b7280">SpaceX FCC 핸드셋 자동 언락 지지 · 상원 Whitehouse NVDA 매도 +27,041%</text>
  <text x="500" y="433" font-size="10" fill="#6b7280">NVDA: 2016 $222.82 최초 매수 → 현재가 27,041% 수익</text>

  <!-- Footer -->
  <rect x="0" y="460" width="800" height="100" fill="#111827"/>
  <text x="400" y="482" font-size="10" fill="#4b5563" text-anchor="middle">이 분석은 투자 참고용이며 투자 권유가 아닙니다 · investus.kr × SRP</text>

  <!-- Key stats row -->
  <rect x="30" y="494" width="110" height="52" rx="8" fill="#1a1033"/>
  <text x="85" y="514" font-size="9" fill="#c084fc" text-anchor="middle">SPCX Texas</text>
  <text x="85" y="532" font-size="16" font-weight="800" fill="#c084fc" text-anchor="middle">$119B</text>
  <text x="85" y="544" font-size="8" fill="#6b7280" text-anchor="middle">최종 투자규모</text>

  <rect x="155" y="494" width="110" height="52" rx="8" fill="#0d1f12"/>
  <text x="210" y="514" font-size="9" fill="#00e5a0" text-anchor="middle">TSLA China May</text>
  <text x="210" y="532" font-size="16" font-weight="800" fill="#00e5a0" text-anchor="middle">85,982</text>
  <text x="210" y="544" font-size="8" fill="#6b7280" text-anchor="middle">도매 +8.2% MoM</text>

  <rect x="280" y="494" width="110" height="52" rx="8" fill="#0d1f12"/>
  <text x="335" y="514" font-size="9" fill="#00e5a0" text-anchor="middle">TSLA 2031E</text>
  <text x="335" y="532" font-size="16" font-weight="800" fill="#00e5a0" text-anchor="middle">$375B</text>
  <text x="335" y="544" font-size="8" fill="#6b7280" text-anchor="middle">매출 세그먼트</text>

  <rect x="405" y="494" width="110" height="52" rx="8" fill="#0a1628"/>
  <text x="460" y="514" font-size="9" fill="#60a5fa" text-anchor="middle">NVDA Celestial AI</text>
  <text x="460" y="532" font-size="16" font-weight="800" fill="#60a5fa" text-anchor="middle">$37B</text>
  <text x="460" y="544" font-size="8" fill="#6b7280" text-anchor="middle">광학 인터커넥트 FY28</text>

  <rect x="530" y="494" width="110" height="52" rx="8" fill="#1a1200"/>
  <text x="585" y="514" font-size="9" fill="#f59e0b" text-anchor="middle">ARK SpaceX</text>
  <text x="585" y="532" font-size="16" font-weight="800" fill="#f59e0b" text-anchor="middle">$126B</text>
  <text x="585" y="544" font-size="8" fill="#6b7280" text-anchor="middle">$900M→140배</text>

  <rect x="655" y="494" width="110" height="52" rx="8" fill="#1a1200"/>
  <text x="710" y="514" font-size="9" fill="#f59e0b" text-anchor="middle">세계 주식시장</text>
  <text x="710" y="532" font-size="16" font-weight="800" fill="#f59e0b" text-anchor="middle">$150T</text>
  <text x="710" y="544" font-size="8" fill="#6b7280" text-anchor="middle">첫 돌파 · US 52%</text>
</svg>
