<svg xmlns="http://www.w3.org/2000/svg" viewBox="0 0 1080 540" width="1080" height="540">
  <rect width="1080" height="540" fill="#0d1117"/>
  <rect x="0" y="0" width="1080" height="64" fill="#111318"/>
  <rect x="0" y="62" width="1080" height="2" fill="#00e5a0" opacity="0.7"/>
  <text x="28" y="26" font-family="Arial,sans-serif" font-size="13" fill="#00e5a0" font-weight="700">TSLA Robotaxi · 누적 유료 주행 마일</text>
  <text x="28" y="50" font-family="Arial,sans-serif" font-size="14" fill="#e5e7eb" font-weight="700">Austin 비감독 FSD 확대 중 · 6개 도시 1H 2026 출시 예정</text>

  <!-- Chart area -->
  <rect x="24" y="78" width="1032" height="340" rx="10" fill="#111318"/>
  <text x="540" y="106" font-family="Arial,sans-serif" font-size="15" fill="#e5e7eb" font-weight="700" text-anchor="middle">누적 유료 로보택시 마일 (Cumulative Paid Robotaxi Miles)</text>

  <!-- Area fill -->
  <polygon points="60,390 120,390 220,378 320,362 440,336 560,300 680,250 780,194 880,142 1020,110 1020,390" fill="#00e5a0" opacity="0.08"/>
  <!-- Line -->
  <polyline points="60,390 120,390 220,378 320,362 440,336 560,300 680,250 780,194 880,142 1020,110" fill="none" stroke="#00e5a0" stroke-width="3"/>

  <!-- Grid lines -->
  <line x1="60" y1="390" x2="1040" y2="390" stroke="#374151" stroke-width="1"/>
  <line x1="60" y1="334" x2="1040" y2="334" stroke="#1f2937" stroke-width="1"/>
  <line x1="60" y1="278" x2="1040" y2="278" stroke="#1f2937" stroke-width="1"/>
  <line x1="60" y1="222" x2="1040" y2="222" stroke="#1f2937" stroke-width="1"/>
  <line x1="60" y1="166" x2="1040" y2="166" stroke="#1f2937" stroke-width="1"/>
  <line x1="60" y1="110" x2="1040" y2="110" stroke="#1f2937" stroke-width="1"/>
  <line x1="60" y1="110" x2="60" y2="390" stroke="#374151" stroke-width="1"/>

  <!-- Y labels -->
  <text x="56" y="394" font-family="Arial,sans-serif" font-size="10" fill="#6b7280" text-anchor="end">0</text>
  <text x="56" y="338" font-family="Arial,sans-serif" font-size="10" fill="#6b7280" text-anchor="end">125K</text>
  <text x="56" y="282" font-family="Arial,sans-serif" font-size="10" fill="#6b7280" text-anchor="end">250K</text>
  <text x="56" y="226" font-family="Arial,sans-serif" font-size="10" fill="#6b7280" text-anchor="end">375K</text>
  <text x="56" y="170" font-family="Arial,sans-serif" font-size="10" fill="#6b7280" text-anchor="end">500K</text>
  <text x="56" y="114" font-family="Arial,sans-serif" font-size="10" fill="#6b7280" text-anchor="end">600K+</text>

  <!-- X labels -->
  <text x="60" y="406" font-family="Arial,sans-serif" font-size="10" fill="#6b7280" text-anchor="middle">Jan'25</text>
  <text x="180" y="406" font-family="Arial,sans-serif" font-size="10" fill="#6b7280" text-anchor="middle">Mar</text>
  <text x="320" y="406" font-family="Arial,sans-serif" font-size="10" fill="#6b7280" text-anchor="middle">May</text>
  <text x="480" y="406" font-family="Arial,sans-serif" font-size="10" fill="#6b7280" text-anchor="middle">Jul</text>
  <text x="620" y="406" font-family="Arial,sans-serif" font-size="10" fill="#6b7280" text-anchor="middle">Sep</text>
  <text x="760" y="406" font-family="Arial,sans-serif" font-size="10" fill="#6b7280" text-anchor="middle">Oct</text>
  <text x="900" y="406" font-family="Arial,sans-serif" font-size="10" fill="#6b7280" text-anchor="middle">Nov</text>
  <text x="1020" y="406" font-family="Arial,sans-serif" font-size="10" fill="#6b7280" text-anchor="middle">Dec</text>

  <!-- City expansion table -->
  <rect x="24" y="434" width="1032" height="22" rx="4" fill="#1f2937"/>
  <text x="150" y="449" font-family="Arial,sans-serif" font-size="10" fill="#9ca3af" text-anchor="middle">지역</text>
  <text x="490" y="449" font-family="Arial,sans-serif" font-size="10" fill="#9ca3af" text-anchor="middle">도시</text>
  <text x="900" y="449" font-family="Arial,sans-serif" font-size="10" fill="#9ca3af" text-anchor="middle">상태</text>

  <rect x="24" y="457" width="1032" height="20" fill="#161b22"/>
  <text x="150" y="471" font-family="Arial,sans-serif" font-size="10" fill="#9ca3af" text-anchor="middle">캘리포니아</text>
  <text x="490" y="471" font-family="Arial,sans-serif" font-size="10" fill="#9ca3af" text-anchor="middle">SF Bay Area</text>
  <text x="900" y="471" font-family="Arial,sans-serif" font-size="10" fill="#6ee7b7" text-anchor="middle">Safety Driver 운행 중</text>

  <rect x="24" y="479" width="1032" height="20" fill="#111318"/>
  <text x="150" y="493" font-family="Arial,sans-serif" font-size="10" fill="#9ca3af" text-anchor="middle">텍사스</text>
  <text x="490" y="493" font-family="Arial,sans-serif" font-size="10" fill="#9ca3af" text-anchor="middle">Austin + Dallas · Houston 확장 예정</text>
  <text x="900" y="493" font-family="Arial,sans-serif" font-size="10" fill="#fbbf24" text-anchor="middle">비감독 FSD 확대 중 ★</text>

  <rect x="24" y="501" width="1032" height="20" fill="#161b22"/>
  <text x="150" y="515" font-family="Arial,sans-serif" font-size="10" fill="#9ca3af" text-anchor="middle">AZ · FL · NV</text>
  <text x="490" y="515" font-family="Arial,sans-serif" font-size="10" fill="#9ca3af" text-anchor="middle">Phoenix · Miami · Tampa · Las Vegas</text>
  <text x="900" y="515" font-family="Arial,sans-serif" font-size="10" fill="#9ca3af" text-anchor="middle">1H 2026 출시 예정</text>

  <text x="540" y="532" font-family="Arial,sans-serif" font-size="10" fill="#4b5563" text-anchor="middle">출처: Tesla · BPOC · 2026.06.24 · Investus</text>
</svg>
