<svg xmlns="http://www.w3.org/2000/svg" viewBox="0 0 600 440" width="600" height="440">
  <defs><linearGradient id="bge1" x1="0" y1="0" x2="0" y2="1"><stop offset="0%" stop-color="#0f1923"/><stop offset="100%" stop-color="#0a1018"/></linearGradient></defs>
  <rect width="600" height="440" fill="url(#bge1)" rx="16"/>
  <rect x="20" y="18" width="90" height="26" rx="6" fill="#00e5a0" opacity="0.2"/>
  <text x="65" y="36" text-anchor="middle" font-family="Arial,sans-serif" font-size="13" font-weight="700" fill="#00e5a0">TSLA</text>
  <text x="122" y="36" font-family="Arial,sans-serif" font-size="13" fill="#94a3b8">2026.06.16</text>
  <text x="600" y="36" text-anchor="end" font-family="Arial,sans-serif" font-size="11" fill="#475569">Giga Texas</text>
  <text x="300" y="76" text-anchor="middle" font-family="Arial,sans-serif" font-size="20" font-weight="700" fill="#f1f5f9">Cybertruck Giga Texas</text>
  <text x="300" y="100" text-anchor="middle" font-family="Arial,sans-serif" font-size="20" font-weight="700" fill="#00e5a0">Production Ramping Up</text>
  <rect x="40" y="114" width="520" height="1" fill="#1e3a2f" opacity="0.8"/>
  <rect x="180" y="128" width="240" height="90" rx="12" fill="#00e5a0" opacity="0.08"/>
  <rect x="180" y="128" width="240" height="90" rx="12" fill="none" stroke="#00e5a0" stroke-width="1" opacity="0.3"/>
  <text x="300" y="185" text-anchor="middle" font-family="Arial,sans-serif" font-size="54" font-weight="900" fill="#00e5a0">150</text>
  <text x="300" y="207" text-anchor="middle" font-family="Arial,sans-serif" font-size="13" fill="#94a3b8">Cybertrucks Spotted (6/16 Giga Texas)</text>
  <rect x="175" y="234" width="250" height="34" rx="8" fill="#00e5a0" opacity="0.15"/>
  <rect x="175" y="234" width="250" height="34" rx="8" fill="none" stroke="#00e5a0" stroke-width="1" opacity="0.4"/>
  <text x="300" y="257" text-anchor="middle" font-family="Arial,sans-serif" font-size="14" font-weight="700" fill="#00e5a0">Production is ramping up!</text>
  <text x="40" y="298" font-family="Arial,sans-serif" font-size="13" font-weight="700" fill="#64748b">Key Points</text>
  <rect x="40" y="308" width="520" height="1" fill="#1e293b"/>
  <rect x="40" y="320" width="4" height="18" rx="2" fill="#00e5a0"/>
  <text x="52" y="334" font-family="Arial,sans-serif" font-size="13" fill="#e2e8f0">150 Cybertrucks clustered near west-side test track</text>
  <rect x="40" y="348" width="4" height="18" rx="2" fill="#00e5a0"/>
  <text x="52" y="362" font-family="Arial,sans-serif" font-size="13" fill="#e2e8f0">Confirmed by aerial flyover on 6/16</text>
  <rect x="40" y="376" width="4" height="18" rx="2" fill="#00e5a0"/>
  <text x="52" y="390" font-family="Arial,sans-serif" font-size="13" fill="#e2e8f0">Surge ahead of Cybercab production ramp</text>
  <rect x="40" y="404" width="4" height="18" rx="2" fill="#00e5a0"/>
  <text x="52" y="418" font-family="Arial,sans-serif" font-size="13" fill="#e2e8f0">Strong 2H 2026 production momentum signal</text>
</svg>
