<svg width="800" height="430" viewBox="0 0 800 430" xmlns="http://www.w3.org/2000/svg">
  <rect width="800" height="430" fill="#07091a"/>
  <rect x="0" y="0" width="800" height="3" fill="#00e5a0"/>
  <text x="30" y="30" font-family="Arial,sans-serif" font-size="10" fill="#00e5a0" font-weight="700" letter-spacing="2">INVESTUS · TSLA REPORT</text>
  <text x="30" y="58" font-family="Arial,sans-serif" font-size="18" fill="white" font-weight="700">Giga Texas Corte 2 착공 — Megapack 생산 2배 확장</text>
  <text x="770" y="58" font-family="Arial,sans-serif" font-size="11" fill="#6b7280" text-anchor="end">2026.05.29</text>
  <line x1="30" y1="70" x2="770" y2="70" stroke="#1e2330" stroke-width="1"/>

  <!-- Factory comparison visual -->
  <rect x="30" y="84" width="340" height="130" rx="8" fill="#060b18" stroke="#1e2330" stroke-width="1"/>
  <text x="200" y="106" font-family="Arial,sans-serif" font-size="11" fill="#6b7280" text-anchor="middle">Corte 1 (기존)</text>
  <rect x="60" y="114" width="280" height="36" rx="4" fill="#1e2330"/>
  <text x="200" y="138" font-family="Arial,sans-serif" font-size="11" fill="#9ca3af" text-anchor="middle">연 20GWh 생산 · EV 제조 + Megapack</text>
  <text x="200" y="160" font-family="Arial,sans-serif" font-size="10" fill="#6b7280" text-anchor="middle">↓ 인접 부지 Corte 2 착공</text>
  <rect x="60" y="166" width="280" height="36" rx="4" fill="#071208" stroke="#00e5a0" stroke-width="1.5"/>
  <text x="200" y="190" font-family="Arial,sans-serif" font-size="11" fill="#00e5a0" text-anchor="middle">Corte 2: Megapack 전용 · 연 40GWh+</text>

  <rect x="390" y="84" width="380" height="60" rx="8" fill="#071208" stroke="#00e5a0" stroke-width="1.5"/>
  <text x="580" y="108" font-family="Arial,sans-serif" font-size="11" fill="#6b7280" text-anchor="middle">Megapack 생산 목표</text>
  <text x="580" y="136" font-family="Arial,sans-serif" font-size="28" fill="#00e5a0" font-weight="900" text-anchor="middle">40GWh</text>

  <rect x="390" y="154" width="380" height="60" rx="8" fill="#071208" stroke="#00e5a0" stroke-width="1.2" stroke-opacity="0.6"/>
  <text x="580" y="178" font-family="Arial,sans-serif" font-size="11" fill="#6b7280" text-anchor="middle">에너지 사업 매출 전망</text>
  <text x="580" y="206" font-family="Arial,sans-serif" font-size="22" fill="white" font-weight="900" text-anchor="middle">$20B+ / 년</text>

  <rect x="30" y="228" width="740" height="64" rx="8" fill="#060b18" stroke="#00e5a0" stroke-width="1" stroke-opacity="0.4"/>
  <rect x="30" y="228" width="4" height="64" rx="2" fill="#00e5a0"/>
  <text x="50" y="250" font-family="Arial,sans-serif" font-size="11" fill="#00e5a0" font-weight="700">■ Corte 2의 전략적 의미</text>
  <text x="50" y="270" font-family="Arial,sans-serif" font-size="11" fill="white">Tesla Energy 사업부가 EV 사업부와 대등한 수익 기여 구조로 전환 가속</text>
  <text x="50" y="286" font-family="Arial,sans-serif" font-size="10" fill="#9ca3af">AI 데이터센터 전력 수요 급증 → Megapack 수주 잔고 기록 경신 · 납기 2026~2028</text>

  <rect x="30" y="306" width="354" height="80" rx="6" fill="#0a0f1e" stroke="#1e2330" stroke-width="1"/>
  <rect x="30" y="306" width="4" height="80" rx="2" fill="#00e5a0"/>
  <text x="50" y="328" font-family="Arial,sans-serif" font-size="10" fill="#6b7280">수주 현황</text>
  <text x="50" y="350" font-family="Arial,sans-serif" font-size="12" fill="white" font-weight="700">Megapack 수주 잔고 $30B+</text>
  <text x="50" y="370" font-family="Arial,sans-serif" font-size="10" fill="#9ca3af">AI DC · 유틸리티 · 마이크로그리드</text>
  <text x="50" y="382" font-family="Arial,sans-serif" font-size="9" fill="#6b7280">Corte 2 → 2027년 풀가동 목표</text>

  <rect x="402" y="306" width="368" height="80" rx="6" fill="#0a0f1e" stroke="#1e2330" stroke-width="1"/>
  <rect x="402" y="306" width="4" height="80" rx="2" fill="#00e5a0"/>
  <text x="422" y="328" font-family="Arial,sans-serif" font-size="10" fill="#6b7280">투자 시사점</text>
  <text x="422" y="350" font-family="Arial,sans-serif" font-size="12" fill="#00e5a0" font-weight="700">Tesla = EV + AI 에너지 인프라</text>
  <text x="422" y="370" font-family="Arial,sans-serif" font-size="10" fill="#9ca3af">Energy 마진 EV 대비 높음 → 전사 마진 개선</text>
  <text x="422" y="382" font-family="Arial,sans-serif" font-size="9" fill="#6b7280">2026 Tesla Energy 매출 $15B 돌파 예상</text>

  <line x1="30" y1="400" x2="770" y2="400" stroke="#1e2330" stroke-width="1"/>
  <text x="30" y="416" font-family="Arial,sans-serif" font-size="8" fill="#374151">투자 참고용 · 투자 권유 아님</text>
  <text x="770" y="416" font-family="Arial,sans-serif" font-size="9" fill="#00e5a0" text-anchor="end" font-weight="700">SUNRYU Partners CIO</text>
</svg>
