<svg xmlns="http://www.w3.org/2000/svg" viewBox="0 0 1080 1080" width="1080" height="1080">
  <defs>
    <linearGradient id="bg" x1="0%" y1="0%" x2="100%" y2="100%">
      <stop offset="0%" style="stop-color:#0d1117"/>
      <stop offset="100%" style="stop-color:#111827"/>
    </linearGradient>
    <linearGradient id="redBlue" x1="0%" y1="0%" x2="100%" y2="0%">
      <stop offset="0%" style="stop-color:#ef4444"/>
      <stop offset="100%" style="stop-color:#60a5fa"/>
    </linearGradient>
    <linearGradient id="cardGrad" x1="0%" y1="0%" x2="0%" y2="100%">
      <stop offset="0%" style="stop-color:#1e293b"/>
      <stop offset="100%" style="stop-color:#0f172a"/>
    </linearGradient>
    <linearGradient id="greenGrad" x1="0%" y1="0%" x2="0%" y2="100%">
      <stop offset="0%" style="stop-color:#064e3b"/>
      <stop offset="100%" style="stop-color:#022c22"/>
    </linearGradient>
  </defs>

  <rect width="1080" height="1080" fill="url(#bg)"/>
  <rect x="0" y="0" width="1080" height="4" fill="url(#redBlue)"/>

  <!-- Header -->
  <rect x="40" y="24" width="1000" height="90" rx="12" fill="#161b22" opacity="0.9"/>
  <text x="60" y="58" font-family="Arial Black, sans-serif" font-size="13" font-weight="900" fill="#60a5fa" letter-spacing="4">INVESTUS DAILY REPORT</text>
  <text x="60" y="100" font-family="Arial Black, sans-serif" font-size="26" font-weight="900" fill="white">TSLA · Fully Unsupervised FSD</text>
  <rect x="880" y="38" width="148" height="34" rx="17" fill="#22c55e" opacity="0.9"/>
  <text x="954" y="60" font-family="Arial, sans-serif" font-size="14" font-weight="700" fill="white" text-anchor="middle">2026.07.01</text>

  <!-- Level 4+ badge -->
  <rect x="40" y="135" width="1000" height="120" rx="16" fill="url(#greenGrad)" stroke="#22c55e" stroke-width="2"/>
  <text x="540" y="195" font-family="Arial Black, sans-serif" font-size="52" font-weight="900" fill="#22c55e" text-anchor="middle">LEVEL 4+</text>
  <text x="540" y="238" font-family="Arial, sans-serif" font-size="20" fill="white" text-anchor="middle">Tesla FSD · True Full Self-Driving Achieved</text>

  <!-- Three big cards -->
  <rect x="40" y="278" width="314" height="350" rx="18" fill="url(#cardGrad)" stroke="#ef4444" stroke-width="2"/>
  <rect x="40" y="278" width="314" height="6" rx="3" fill="#ef4444"/>
  <circle cx="197" cy="380" r="60" fill="#1e293b" stroke="#ef4444" stroke-width="2"/>
  <rect x="177" y="345" width="12" height="45" rx="6" fill="#9ca3af"/>
  <rect x="192" y="335" width="12" height="55" rx="6" fill="#9ca3af"/>
  <rect x="207" y="338" width="12" height="52" rx="6" fill="#9ca3af"/>
  <rect x="168" y="355" width="12" height="38" rx="6" fill="#9ca3af"/>
  <rect x="168" y="382" width="52" height="20" rx="5" fill="#9ca3af"/>
  <line x1="147" y1="330" x2="247" y2="430" stroke="#ef4444" stroke-width="6" stroke-linecap="round"/>
  <line x1="247" y1="330" x2="147" y2="430" stroke="#ef4444" stroke-width="6" stroke-linecap="round"/>
  <text x="197" y="480" font-family="Arial Black, sans-serif" font-size="36" font-weight="900" fill="#ef4444" text-anchor="middle">NO</text>
  <text x="197" y="520" font-family="Arial Black, sans-serif" font-size="28" font-weight="900" fill="white" text-anchor="middle">HANDS</text>
  <text x="197" y="555" font-family="Arial, sans-serif" font-size="14" fill="#9ca3af" text-anchor="middle">No Steering Wheel</text>
  <text x="197" y="578" font-family="Arial, sans-serif" font-size="12" fill="#6b7280" text-anchor="middle">Steering Wheel Free</text>
  <text x="197" y="610" font-family="Arial, sans-serif" font-size="11" fill="#ef4444" text-anchor="middle">Cybercab (Model#)</text>

  <rect x="383" y="278" width="314" height="350" rx="18" fill="url(#cardGrad)" stroke="#f97316" stroke-width="2"/>
  <rect x="383" y="278" width="314" height="6" rx="3" fill="#f97316"/>
  <circle cx="540" cy="380" r="60" fill="#1e293b" stroke="#f97316" stroke-width="2"/>
  <rect x="510" y="350" width="60" height="10" rx="3" fill="#9ca3af"/>
  <rect x="520" y="360" width="10" height="40" rx="3" fill="#9ca3af"/>
  <rect x="548" y="358" width="18" height="5" rx="2" fill="#9ca3af"/>
  <rect x="548" y="367" width="18" height="5" rx="2" fill="#9ca3af"/>
  <rect x="548" y="376" width="18" height="5" rx="2" fill="#9ca3af"/>
  <line x1="490" y1="330" x2="590" y2="430" stroke="#f97316" stroke-width="6" stroke-linecap="round"/>
  <line x1="590" y1="330" x2="490" y2="430" stroke="#f97316" stroke-width="6" stroke-linecap="round"/>
  <text x="540" y="480" font-family="Arial Black, sans-serif" font-size="36" font-weight="900" fill="#f97316" text-anchor="middle">NO</text>
  <text x="540" y="520" font-family="Arial Black, sans-serif" font-size="28" font-weight="900" fill="white" text-anchor="middle">PEDALS</text>
  <text x="540" y="555" font-family="Arial, sans-serif" font-size="14" fill="#9ca3af" text-anchor="middle">No Brake/Accel Pedals</text>
  <text x="540" y="578" font-family="Arial, sans-serif" font-size="12" fill="#6b7280" text-anchor="middle">Drive-by-Wire Only</text>
  <text x="540" y="610" font-family="Arial, sans-serif" font-size="11" fill="#f97316" text-anchor="middle">Full Drive-by-Wire</text>

  <rect x="726" y="278" width="314" height="350" rx="18" fill="url(#cardGrad)" stroke="#60a5fa" stroke-width="2"/>
  <rect x="726" y="278" width="314" height="6" rx="3" fill="#60a5fa"/>
  <circle cx="883" cy="380" r="60" fill="#1e293b" stroke="#60a5fa" stroke-width="2"/>
  <ellipse cx="883" cy="380" rx="35" ry="22" fill="none" stroke="#9ca3af" stroke-width="3"/>
  <circle cx="883" cy="380" r="14" fill="#9ca3af"/>
  <circle cx="883" cy="380" r="7" fill="#1e293b"/>
  <line x1="833" y1="330" x2="933" y2="430" stroke="#60a5fa" stroke-width="6" stroke-linecap="round"/>
  <line x1="933" y1="330" x2="833" y2="430" stroke="#60a5fa" stroke-width="6" stroke-linecap="round"/>
  <text x="883" y="480" font-family="Arial Black, sans-serif" font-size="36" font-weight="900" fill="#60a5fa" text-anchor="middle">NO</text>
  <text x="883" y="516" font-family="Arial Black, sans-serif" font-size="22" font-weight="900" fill="white" text-anchor="middle">SUPERVISION</text>
  <text x="883" y="550" font-family="Arial, sans-serif" font-size="14" fill="#9ca3af" text-anchor="middle">Fully Autonomous</text>
  <text x="883" y="573" font-family="Arial, sans-serif" font-size="12" fill="#6b7280" text-anchor="middle">Zero Human Input</text>
  <text x="883" y="610" font-family="Arial, sans-serif" font-size="11" fill="#60a5fa" text-anchor="middle">Human-free Operation</text>

  <!-- City silhouette -->
  <rect x="40" y="650" width="1000" height="150" rx="14" fill="#0a0f1a" stroke="#1e293b" stroke-width="1"/>
  <rect x="60" y="730" width="30" height="60" fill="#1e293b"/>
  <rect x="100" y="710" width="25" height="80" fill="#1e293b"/>
  <rect x="135" y="720" width="35" height="70" fill="#1e293b"/>
  <rect x="180" y="700" width="20" height="90" fill="#1e293b"/>
  <rect x="210" y="715" width="30" height="75" fill="#1e293b"/>
  <rect x="950" y="730" width="30" height="60" fill="#1e293b"/>
  <rect x="910" y="710" width="25" height="80" fill="#1e293b"/>
  <rect x="870" y="720" width="35" height="70" fill="#1e293b"/>
  <rect x="820" y="700" width="20" height="90" fill="#1e293b"/>
  <rect x="790" y="715" width="30" height="75" fill="#1e293b"/>
  <rect x="40" y="785" width="1000" height="15" fill="#1e293b"/>
  <line x1="40" y1="792" x2="1040" y2="792" stroke="#374151" stroke-width="2" stroke-dasharray="40,20"/>
  <rect x="460" y="752" width="160" height="50" rx="10" fill="#374151"/>
  <rect x="490" y="735" width="100" height="35" rx="8" fill="#4b5563"/>
  <circle cx="490" cy="802" r="16" fill="#1f2937" stroke="#60a5fa" stroke-width="2"/>
  <circle cx="590" cy="802" r="16" fill="#1f2937" stroke="#60a5fa" stroke-width="2"/>
  <rect x="505" y="740" width="35" height="24" rx="3" fill="#60a5fa" opacity="0.5"/>
  <rect x="545" y="740" width="35" height="24" rx="3" fill="#60a5fa" opacity="0.5"/>
  <ellipse cx="540" cy="760" rx="100" ry="10" fill="#22c55e" opacity="0.15"/>
  <text x="540" y="680" font-family="Arial Black, sans-serif" font-size="18" fill="#22c55e" text-anchor="middle" font-weight="900">Fully Autonomous Urban Driving</text>

  <!-- Bottom stats -->
  <rect x="40" y="820" width="1000" height="80" rx="12" fill="url(#cardGrad)" stroke="#1e293b" stroke-width="1"/>
  <text x="200" y="855" font-family="Arial Black, sans-serif" font-size="22" fill="#22c55e" text-anchor="middle" font-weight="900">LEVEL 4+</text>
  <text x="200" y="880" font-family="Arial, sans-serif" font-size="12" fill="#9ca3af" text-anchor="middle">Autonomy Level</text>
  <line x1="340" y1="835" x2="340" y2="890" stroke="#1e293b" stroke-width="1"/>
  <text x="490" y="852" font-family="Arial Black, sans-serif" font-size="18" fill="white" text-anchor="middle">Cybercab</text>
  <text x="490" y="875" font-family="Arial, sans-serif" font-size="12" fill="#9ca3af" text-anchor="middle">Model # Platform</text>
  <line x1="640" y1="835" x2="640" y2="890" stroke="#1e293b" stroke-width="1"/>
  <text x="790" y="852" font-family="Arial Black, sans-serif" font-size="18" fill="#60a5fa" text-anchor="middle">TESLA</text>
  <text x="790" y="875" font-family="Arial, sans-serif" font-size="12" fill="#9ca3af" text-anchor="middle">AV Leader</text>
  <line x1="940" y1="835" x2="940" y2="890" stroke="#1e293b" stroke-width="1"/>
  <text x="1000" y="852" font-family="Arial Black, sans-serif" font-size="22" fill="#ef4444" text-anchor="middle">✓</text>
  <text x="1000" y="875" font-family="Arial, sans-serif" font-size="12" fill="#9ca3af" text-anchor="middle">Officially Achieved</text>

  <!-- Footer -->
  <rect x="0" y="1044" width="1080" height="36" fill="#0f172a"/>
  <text x="540" y="1068" font-family="Arial, sans-serif" font-size="13" fill="#9ca3af" text-anchor="middle">No hands, no pedals, no supervision — Tesla achieves true Level 4+ autonomy · INVESTUS · 2026.07.01 · For reference only</text>
</svg>
