<svg xmlns="http://www.w3.org/2000/svg" viewBox="0 0 800 430" font-family="'Segoe UI',Arial,sans-serif">
  <!-- Background -->
  <rect width="800" height="430" fill="#0a0f1e"/>

  <!-- Header accent bar -->
  <rect x="0" y="0" width="800" height="4" fill="#00e5a0"/>

  <!-- Header -->
  <rect x="0" y="0" width="800" height="68" fill="#12172e"/>
  <text x="24" y="36" font-size="17" font-weight="700" fill="#00e5a0">텍사스 무감독 로보택시 VIN 8대 추가 등록</text>
  <text x="24" y="52" font-size="12" fill="#8892b0">2026.06.10 · TSLA · Texas Unsupervised Robotaxi</text>

  <!-- Big Stat (y:80-155) -->
  <rect x="24" y="80" width="752" height="72" rx="10" fill="#0d2418"/>
  <text x="160" y="136" font-size="64" font-weight="900" fill="#00e5a0" text-anchor="middle">+8대</text>
  <text x="470" y="112" font-size="14" font-weight="600" fill="#e2e8f0" text-anchor="middle">전량 Model Y · 텍사스 등록</text>
  <text x="470" y="132" font-size="12" fill="#8892b0" text-anchor="middle">무감독 자율주행 로보택시 플릿 확장</text>
  <text x="470" y="150" font-size="11" fill="#64748b" text-anchor="middle">Texas Unsupervised FSD · VIN 신규 등록</text>

  <!-- Vehicle Grid (y:170-290): 2 rows x 4 columns, 8 boxes -->
  <!-- Box: 80x50px, col gap = (752-4*80)/3 = (752-320)/3 ≈ 144px between starts -->
  <!-- Col x starts: 24, 210, 396, 582 -->
  <!-- Row y starts: 170, 232 -->
  <text x="24" y="167" font-size="12" font-weight="600" fill="#8892b0">신규 등록 VIN</text>

  <!-- Row 1 -->
  <!-- VIN 1 -->
  <rect x="44" y="172" width="104" height="52" rx="6" fill="#1a1f35" stroke="#00e5a0" stroke-width="1.5"/>
  <text x="96" y="194" font-size="11" fill="#00e5a0" text-anchor="middle">Model Y</text>
  <text x="96" y="210" font-size="9" fill="#4a5568" text-anchor="middle">VIN #01</text>
  <text x="96" y="220" font-size="8" fill="#4a5568" text-anchor="middle">Texas</text>

  <!-- VIN 2 -->
  <rect x="232" y="172" width="104" height="52" rx="6" fill="#1a1f35" stroke="#00e5a0" stroke-width="1.5"/>
  <text x="284" y="194" font-size="11" fill="#00e5a0" text-anchor="middle">Model Y</text>
  <text x="284" y="210" font-size="9" fill="#4a5568" text-anchor="middle">VIN #02</text>
  <text x="284" y="220" font-size="8" fill="#4a5568" text-anchor="middle">Texas</text>

  <!-- VIN 3 -->
  <rect x="420" y="172" width="104" height="52" rx="6" fill="#1a1f35" stroke="#00e5a0" stroke-width="1.5"/>
  <text x="472" y="194" font-size="11" fill="#00e5a0" text-anchor="middle">Model Y</text>
  <text x="472" y="210" font-size="9" fill="#4a5568" text-anchor="middle">VIN #03</text>
  <text x="472" y="220" font-size="8" fill="#4a5568" text-anchor="middle">Texas</text>

  <!-- VIN 4 -->
  <rect x="608" y="172" width="104" height="52" rx="6" fill="#1a1f35" stroke="#00e5a0" stroke-width="1.5"/>
  <text x="660" y="194" font-size="11" fill="#00e5a0" text-anchor="middle">Model Y</text>
  <text x="660" y="210" font-size="9" fill="#4a5568" text-anchor="middle">VIN #04</text>
  <text x="660" y="220" font-size="8" fill="#4a5568" text-anchor="middle">Texas</text>

  <!-- Row 2 -->
  <!-- VIN 5 -->
  <rect x="44" y="236" width="104" height="52" rx="6" fill="#1a1f35" stroke="#00c98a" stroke-width="1.5"/>
  <text x="96" y="258" font-size="11" fill="#00c98a" text-anchor="middle">Model Y</text>
  <text x="96" y="274" font-size="9" fill="#4a5568" text-anchor="middle">VIN #05</text>
  <text x="96" y="284" font-size="8" fill="#4a5568" text-anchor="middle">Texas</text>

  <!-- VIN 6 -->
  <rect x="232" y="236" width="104" height="52" rx="6" fill="#1a1f35" stroke="#00c98a" stroke-width="1.5"/>
  <text x="284" y="258" font-size="11" fill="#00c98a" text-anchor="middle">Model Y</text>
  <text x="284" y="274" font-size="9" fill="#4a5568" text-anchor="middle">VIN #06</text>
  <text x="284" y="284" font-size="8" fill="#4a5568" text-anchor="middle">Texas</text>

  <!-- VIN 7 -->
  <rect x="420" y="236" width="104" height="52" rx="6" fill="#1a1f35" stroke="#00c98a" stroke-width="1.5"/>
  <text x="472" y="258" font-size="11" fill="#00c98a" text-anchor="middle">Model Y</text>
  <text x="472" y="274" font-size="9" fill="#4a5568" text-anchor="middle">VIN #07</text>
  <text x="472" y="284" font-size="8" fill="#4a5568" text-anchor="middle">Texas</text>

  <!-- VIN 8 -->
  <rect x="608" y="236" width="104" height="52" rx="6" fill="#1a1f35" stroke="#00c98a" stroke-width="1.5"/>
  <text x="660" y="258" font-size="11" fill="#00c98a" text-anchor="middle">Model Y</text>
  <text x="660" y="274" font-size="9" fill="#4a5568" text-anchor="middle">VIN #08</text>
  <text x="660" y="284" font-size="8" fill="#4a5568" text-anchor="middle">Texas</text>

  <!-- Fleet Context (y:305-390) -->
  <text x="24" y="303" font-size="12" font-weight="600" fill="#8892b0">텍사스 무감독 로보택시 플릿 확장 추이</text>

  <!-- Simple growing bar -->
  <rect x="24" y="310" width="752" height="70" rx="8" fill="#0e1428"/>

  <!-- Phase bars showing growth -->
  <!-- Phase 1: Austin launch (approx) -->
  <rect x="44" y="326" width="80" height="36" rx="4" fill="#059669" opacity="0.7"/>
  <text x="84" y="341" font-size="9" fill="#e2e8f0" text-anchor="middle">초기</text>
  <text x="84" y="354" font-size="9" fill="#e2e8f0" text-anchor="middle">배포</text>
  <text x="84" y="368" font-size="9" fill="#8892b0" text-anchor="middle">Austin</text>

  <!-- Phase 2: expansion -->
  <rect x="44" y="320" width="160" height="42" rx="4" fill="#00b37a" opacity="0.8"/>
  <text x="164" y="340" font-size="9" fill="#e2e8f0" text-anchor="end">플릿</text>
  <text x="164" y="352" font-size="9" fill="#e2e8f0" text-anchor="end">확장</text>
  <text x="164" y="368" font-size="9" fill="#8892b0" text-anchor="middle">확장</text>

  <!-- Phase 3: current +8 VINs -->
  <rect x="44" y="314" width="260" height="48" rx="4" fill="#00e5a0" opacity="0.85"/>
  <text x="284" y="334" font-size="10" font-weight="700" fill="#0a0f1e" text-anchor="middle">+8대</text>
  <text x="284" y="348" font-size="9" fill="#0a0f1e" text-anchor="middle">신규 등록</text>
  <text x="284" y="368" font-size="9" fill="#064e3b" text-anchor="middle">2026.06.10</text>

  <!-- Arrow indicating growth -->
  <text x="340" y="348" font-size="20" fill="#00e5a0">→</text>

  <!-- Growth note -->
  <text x="380" y="338" font-size="12" font-weight="600" fill="#00e5a0">플릿 지속 확장 중</text>
  <text x="380" y="358" font-size="11" fill="#8892b0">Model Y 기반 · 텍사스 무감독 FSD</text>
  <text x="380" y="374" font-size="10" fill="#64748b">Texas Unsupervised Robotaxi Fleet</text>

  <!-- Source -->
  <text x="400" y="415" font-size="11" fill="#4a5568" text-anchor="middle">investus.kr</text>
</svg>
