<svg xmlns="http://www.w3.org/2000/svg" viewBox="0 0 800 440" width="800" height="440" style="background:#0d1117;font-family:'SF Pro Display',Arial,sans-serif">
  <rect width="800" height="440" rx="12" fill="#0d1117"/>
  <text x="400" y="36" text-anchor="middle" fill="#00e5a0" font-size="13" font-weight="700">TSLA · Tesla FSD</text>
  <text x="400" y="62" text-anchor="middle" fill="#e6edf3" font-size="20" font-weight="700">Spain FSD Supervised Fleet — 275,471 km Zero Serious Incidents</text>
  <text x="400" y="84" text-anchor="middle" fill="#7d8590" font-size="13">Spain Traffic Authority (DGT) Official Data · Since November 2025</text>
  <line x1="40" y1="96" x2="760" y2="96" stroke="#21262d" stroke-width="1"/>

  <rect x="200" y="112" width="400" height="100" rx="10" fill="#0d2010"/>
  <rect x="200" y="112" width="400" height="4" rx="2" fill="#00e5a0"/>
  <text x="400" y="160" text-anchor="middle" fill="#00e5a0" font-size="38" font-weight="800">275,471 km</text>
  <text x="400" y="185" text-anchor="middle" fill="#e6edf3" font-size="16" font-weight="600">ZERO Serious Incidents</text>
  <text x="400" y="205" text-anchor="middle" fill="#7d8590" font-size="12">Since November 2025 · Spain DGT Official Data</text>

  <rect x="40" y="228" width="218" height="90" rx="8" fill="#161b22"/>
  <text x="149" y="256" text-anchor="middle" fill="#7d8590" font-size="12">Operating Period</text>
  <text x="149" y="282" text-anchor="middle" fill="#e6edf3" font-size="20" font-weight="700">7+ months</text>
  <text x="149" y="302" text-anchor="middle" fill="#7d8590" font-size="11">Nov 2025 — Jun 2026</text>

  <rect x="291" y="228" width="218" height="90" rx="8" fill="#161b22"/>
  <text x="400" y="256" text-anchor="middle" fill="#7d8590" font-size="12">Certifying Authority</text>
  <text x="400" y="282" text-anchor="middle" fill="#00e5a0" font-size="18" font-weight="700">Spain DGT</text>
  <text x="400" y="302" text-anchor="middle" fill="#7d8590" font-size="11">Direction General de Trafico</text>

  <rect x="542" y="228" width="218" height="90" rx="8" fill="#161b22"/>
  <text x="651" y="256" text-anchor="middle" fill="#7d8590" font-size="12">Incident Record</text>
  <text x="651" y="282" text-anchor="middle" fill="#00e5a0" font-size="20" font-weight="700">ZERO</text>
  <text x="651" y="302" text-anchor="middle" fill="#7d8590" font-size="11">Serious category</text>

  <rect x="40" y="330" width="720" height="70" rx="8" fill="#1a2a1a"/>
  <text x="400" y="357" text-anchor="middle" fill="#00e5a0" font-size="13" font-weight="600">EU Expansion Signal</text>
  <text x="400" y="376" text-anchor="middle" fill="#e6edf3" font-size="13">Spain DGT official data → pressure for EU-wide FSD regulatory approval</text>
  <text x="400" y="393" text-anchor="middle" fill="#7d8590" font-size="12">Netherlands &amp; Belgium already approved · Germany, France expected next</text>

  <line x1="40" y1="414" x2="760" y2="414" stroke="#21262d" stroke-width="1"/>
  <text x="400" y="430" text-anchor="middle" fill="#444c56" font-size="10">Source: Mario Nawfal / @TSLA_Truth / Spain DGT · investus.kr</text>
</svg>
