<svg xmlns="http://www.w3.org/2000/svg" viewBox="0 0 1080 1080" width="1080" height="1080">
  <defs>
    <linearGradient id="bg" x1="0%" y1="0%" x2="100%" y2="100%">
      <stop offset="0%" style="stop-color:#0d1117"/>
      <stop offset="100%" style="stop-color:#0c1520"/>
    </linearGradient>
    <linearGradient id="redGrad" x1="0%" y1="0%" x2="100%" y2="0%">
      <stop offset="0%" style="stop-color:#ef4444"/>
      <stop offset="100%" style="stop-color:#dc2626"/>
    </linearGradient>
    <linearGradient id="greenGrad" x1="0%" y1="0%" x2="100%" y2="0%">
      <stop offset="0%" style="stop-color:#4ade80"/>
      <stop offset="100%" style="stop-color:#16a34a"/>
    </linearGradient>
    <linearGradient id="rampGrad" x1="0%" y1="0%" x2="0%" y2="100%">
      <stop offset="0%" style="stop-color:#ef4444"/>
      <stop offset="100%" style="stop-color:#7f1d1d"/>
    </linearGradient>
  </defs>

  <rect width="1080" height="1080" fill="url(#bg)"/>
  <rect width="1080" height="1080" fill="none" stroke="#1f2937" stroke-width="2"/>
  <rect x="0" y="0" width="1080" height="4" fill="url(#redGrad)"/>

  <text x="540" y="62" font-family="Arial,sans-serif" font-size="14" font-weight="700" fill="#6b7280" text-anchor="middle" letter-spacing="3">INVESTUS DAILY REPORT</text>
  <text x="540" y="102" font-family="Arial,sans-serif" font-size="28" font-weight="900" fill="#f9fafb" text-anchor="middle">TSLA · Megafactory LFP Line Expansion</text>

  <rect x="396" y="118" width="288" height="34" rx="17" fill="#1f2937" stroke="#374151" stroke-width="1"/>
  <text x="540" y="140" font-family="Arial,sans-serif" font-size="14" font-weight="600" fill="#9ca3af" text-anchor="middle" letter-spacing="2">2026.07.01</text>

  <rect x="80" y="165" width="240" height="44" rx="22" fill="#1f2937" stroke="#60a5fa" stroke-width="1.5"/>
  <text x="200" y="192" font-family="Arial Black,sans-serif" font-size="16" font-weight="700" fill="#60a5fa" text-anchor="middle">BROOKSHIRE, TX</text>

  <!-- Factory icon -->
  <g transform="translate(380, 190)">
    <rect x="0" y="60" width="320" height="100" rx="4" fill="#1f2937" stroke="#374151" stroke-width="2"/>
    <rect x="20" y="30" width="280" height="35" fill="#1f2937" stroke="#374151" stroke-width="2"/>
    <rect x="50" y="10" width="24" height="25" rx="2" fill="#374151"/>
    <rect x="100" y="5" width="24" height="30" rx="2" fill="#374151"/>
    <rect x="200" y="10" width="24" height="25" rx="2" fill="#374151"/>
    <rect x="250" y="5" width="24" height="30" rx="2" fill="#374151"/>
    <rect x="20" y="80" width="40" height="30" rx="3" fill="#60a5fa" opacity="0.4"/>
    <rect x="80" y="80" width="40" height="30" rx="3" fill="#60a5fa" opacity="0.4"/>
    <rect x="140" y="80" width="40" height="30" rx="3" fill="#ef4444" opacity="0.4"/>
    <rect x="200" y="80" width="40" height="30" rx="3" fill="#ef4444" opacity="0.4"/>
    <rect x="260" y="80" width="40" height="30" rx="3" fill="#4ade80" opacity="0.4"/>
    <text x="160" y="130" font-family="Arial Black,sans-serif" font-size="22" font-weight="900" fill="#4ade80" text-anchor="middle">LFP LINE</text>
  </g>

  <!-- Battery icon -->
  <g transform="translate(80, 190)">
    <rect x="0" y="30" width="200" height="100" rx="8" fill="#1f2937" stroke="#4ade80" stroke-width="2"/>
    <rect x="200" y="55" width="20" height="50" rx="4" fill="#4ade80"/>
    <rect x="8" y="38" width="160" height="84" rx="4" fill="#4ade80" opacity="0.25"/>
    <text x="100" y="95" font-family="Arial Black,sans-serif" font-size="28" font-weight="900" fill="#4ade80" text-anchor="middle">LFP</text>
  </g>

  <text x="540" y="430" font-family="Arial,sans-serif" font-size="15" fill="#9ca3af" text-anchor="middle" letter-spacing="2">LITHIUM IRON PHOSPHATE · PRODUCTION RAMP</text>

  <text x="160" y="470" font-family="Arial,sans-serif" font-size="14" font-weight="700" fill="#6b7280" letter-spacing="2">PRODUCTION RAMP-UP TIMELINE</text>

  <rect x="160" y="500" width="760" height="8" rx="4" fill="#1f2937"/>
  <rect x="160" y="500" width="570" height="8" rx="4" fill="url(#greenGrad)"/>

  <circle cx="160" cy="504" r="10" fill="#374151" stroke="#6b7280" stroke-width="2"/>
  <circle cx="348" cy="504" r="10" fill="#60a5fa" stroke="#60a5fa" stroke-width="2"/>
  <circle cx="537" cy="504" r="10" fill="#ef4444" stroke="#ef4444" stroke-width="2"/>
  <circle cx="730" cy="504" r="12" fill="#4ade80" stroke="#4ade80" stroke-width="2"/>
  <circle cx="920" cy="504" r="10" fill="#374151" stroke="#374151" stroke-width="1" stroke-dasharray="3,2"/>

  <text x="160" y="532" font-family="Arial,sans-serif" font-size="11" fill="#6b7280" text-anchor="middle">2024</text>
  <text x="348" y="532" font-family="Arial,sans-serif" font-size="11" fill="#60a5fa" text-anchor="middle">Q1 2025</text>
  <text x="537" y="532" font-family="Arial,sans-serif" font-size="11" fill="#ef4444" text-anchor="middle">Q3 2025</text>
  <text x="730" y="532" font-family="Arial,sans-serif" font-size="11" fill="#4ade80" text-anchor="middle">NOW</text>
  <text x="920" y="532" font-family="Arial,sans-serif" font-size="11" fill="#6b7280" text-anchor="middle">FULL RAMP</text>

  <text x="160" y="556" font-family="Arial,sans-serif" font-size="10" fill="#374151" text-anchor="middle">Foundation</text>
  <text x="348" y="556" font-family="Arial,sans-serif" font-size="10" fill="#6b7280" text-anchor="middle">Construction</text>
  <text x="537" y="556" font-family="Arial,sans-serif" font-size="10" fill="#6b7280" text-anchor="middle">Line Install</text>
  <text x="730" y="556" font-family="Arial,sans-serif" font-size="10" fill="#4ade80" text-anchor="middle">Expanding</text>
  <text x="920" y="556" font-family="Arial,sans-serif" font-size="10" fill="#6b7280" text-anchor="middle">Planned</text>

  <rect x="80" y="586" width="280" height="110" rx="12" fill="#0f172a" stroke="#1e3a5f" stroke-width="1.5"/>
  <text x="220" y="618" font-family="Arial,sans-serif" font-size="12" fill="#60a5fa" text-anchor="middle">FACTORY SIZE</text>
  <text x="220" y="654" font-family="Arial Black,sans-serif" font-size="28" font-weight="900" fill="#60a5fa" text-anchor="middle">600 ft²+</text>
  <text x="220" y="680" font-family="Arial,sans-serif" font-size="11" fill="#6b7280" text-anchor="middle">Continuously Expanding</text>
  <text x="220" y="692" font-family="Arial,sans-serif" font-size="11" fill="#6b7280" text-anchor="middle">More Capacity Added</text>

  <rect x="400" y="586" width="280" height="110" rx="12" fill="#0f172a" stroke="#14532d" stroke-width="1.5"/>
  <text x="540" y="618" font-family="Arial,sans-serif" font-size="12" fill="#4ade80" text-anchor="middle">LFP PRODUCTION</text>
  <text x="540" y="654" font-family="Arial Black,sans-serif" font-size="26" font-weight="900" fill="#4ade80" text-anchor="middle">EXPANDING</text>
  <text x="540" y="680" font-family="Arial,sans-serif" font-size="11" fill="#6b7280" text-anchor="middle">In Progress</text>
  <text x="540" y="692" font-family="Arial,sans-serif" font-size="11" fill="#6b7280" text-anchor="middle">New LFP Lines Added</text>

  <rect x="720" y="586" width="280" height="110" rx="12" fill="#0f172a" stroke="#7f1d1d" stroke-width="1.5"/>
  <text x="860" y="618" font-family="Arial,sans-serif" font-size="12" fill="#ef4444" text-anchor="middle">SEMI PILOT LINE</text>
  <text x="860" y="654" font-family="Arial Black,sans-serif" font-size="22" font-weight="900" fill="#ef4444" text-anchor="middle">ADJACENT</text>
  <text x="860" y="680" font-family="Arial,sans-serif" font-size="11" fill="#6b7280" text-anchor="middle">Co-located with</text>
  <text x="860" y="692" font-family="Arial,sans-serif" font-size="11" fill="#6b7280" text-anchor="middle">Semi Pilot Production</text>

  <rect x="80" y="718" width="920" height="70" rx="12" fill="#1f1100" stroke="#f59e0b" stroke-width="1.5"/>
  <text x="540" y="750" font-family="Arial,sans-serif" font-size="14" fill="#f59e0b" text-anchor="middle" letter-spacing="1">WARM-UP LAG RESOLUTION IN PROGRESS</text>
  <text x="540" y="774" font-family="Arial,sans-serif" font-size="12" fill="#9ca3af" text-anchor="middle">Previously reported warm-up lag fix actively underway at Brookshire TX</text>

  <text x="160" y="830" font-family="Arial,sans-serif" font-size="13" font-weight="700" fill="#6b7280" letter-spacing="2">LFP PRODUCTION RAMP</text>
  <rect x="160" y="845" width="760" height="14" rx="7" fill="#1f2937"/>
  <rect x="160" y="845" width="456" height="14" rx="7" fill="url(#rampGrad)"/>
  <text x="626" y="858" font-family="Arial,sans-serif" font-size="11" fill="#ef4444">60% CAPACITY</text>

  <text x="540" y="908" font-family="Arial,sans-serif" font-size="13" fill="#374151" text-anchor="middle">Tesla Megafactory Brookshire TX · LFP Production Line Expansion · 2026.07.01</text>

  <rect x="0" y="1060" width="1080" height="20" fill="url(#redGrad)" opacity="0.4"/>
  <text x="540" y="1073" font-family="Arial,sans-serif" font-size="10" fill="#6b7280" text-anchor="middle" letter-spacing="2">INVESTUS · TSLA RESEARCH · NOT FINANCIAL ADVICE</text>
</svg>
