<svg xmlns="http://www.w3.org/2000/svg" viewBox="0 0 1080 1080" width="1080" height="1080">
  <defs>
    <linearGradient id="bg" x1="0%" y1="0%" x2="100%" y2="100%">
      <stop offset="0%" style="stop-color:#0d1117"/>
      <stop offset="100%" style="stop-color:#0d1520"/>
    </linearGradient>
    <linearGradient id="redGrad" x1="0%" y1="0%" x2="100%" y2="0%">
      <stop offset="0%" style="stop-color:#ef4444"/>
      <stop offset="100%" style="stop-color:#dc2626"/>
    </linearGradient>
    <linearGradient id="barGrad" x1="0%" y1="0%" x2="0%" y2="100%">
      <stop offset="0%" style="stop-color:#ef4444"/>
      <stop offset="100%" style="stop-color:#7f1d1d"/>
    </linearGradient>
    <linearGradient id="barGrad2" x1="0%" y1="0%" x2="0%" y2="100%">
      <stop offset="0%" style="stop-color:#60a5fa"/>
      <stop offset="100%" style="stop-color:#1e3a8a"/>
    </linearGradient>
    <filter id="softGlow">
      <feGaussianBlur stdDeviation="8" result="coloredBlur"/>
      <feMerge><feMergeNode in="coloredBlur"/><feMergeNode in="SourceGraphic"/></feMerge>
    </filter>
  </defs>

  <rect width="1080" height="1080" fill="url(#bg)"/>
  <rect width="1080" height="1080" fill="none" stroke="#1f2937" stroke-width="2"/>
  <rect x="0" y="0" width="1080" height="4" fill="url(#redGrad)"/>

  <text x="540" y="62" font-family="Arial,sans-serif" font-size="14" font-weight="700" fill="#6b7280" text-anchor="middle" letter-spacing="3">INVESTUS DAILY REPORT</text>
  <text x="540" y="102" font-family="Arial,sans-serif" font-size="29" font-weight="900" fill="#f9fafb" text-anchor="middle">TSLA · Japan Delivery Backlog Surge</text>

  <rect x="396" y="118" width="288" height="34" rx="17" fill="#1f2937" stroke="#374151" stroke-width="1"/>
  <text x="540" y="140" font-family="Arial,sans-serif" font-size="14" font-weight="600" fill="#9ca3af" text-anchor="middle" letter-spacing="2">2026.07.01</text>

  <!-- Japan map -->
  <g transform="translate(700, 160)" opacity="0.7">
    <path d="M80,10 L120,20 L160,60 L180,100 L170,150 L140,180 L100,200 L70,190 L40,160 L20,120 L10,80 L30,40 Z"
          fill="#ef4444" opacity="0.2" stroke="#ef4444" stroke-width="1.5"/>
    <path d="M20,220 L50,215 L65,235 L55,255 L30,260 L10,245 Z"
          fill="#ef4444" opacity="0.2" stroke="#ef4444" stroke-width="1"/>
    <path d="M110,0 L160,0 L180,20 L170,40 L130,45 L100,30 Z"
          fill="#ef4444" opacity="0.2" stroke="#ef4444" stroke-width="1"/>
    <circle cx="100" cy="120" r="8" fill="#ef4444"/>
    <circle cx="80" cy="160" r="6" fill="#60a5fa"/>
    <circle cx="130" cy="90" r="6" fill="#ef4444"/>
    <circle cx="60" cy="140" r="5" fill="#60a5fa"/>
  </g>

  <!-- Car icon -->
  <g transform="translate(80, 170)">
    <rect x="0" y="40" width="220" height="70" rx="10" fill="#1f2937" stroke="#ef4444" stroke-width="2"/>
    <path d="M40,40 L60,15 L160,15 L180,40" fill="#1f2937" stroke="#ef4444" stroke-width="2"/>
    <rect x="65" y="18" width="45" height="20" rx="3" fill="#60a5fa" opacity="0.4"/>
    <rect x="118" y="18" width="55" height="20" rx="3" fill="#60a5fa" opacity="0.4"/>
    <circle cx="55" cy="112" r="22" fill="#374151" stroke="#6b7280" stroke-width="2"/>
    <circle cx="55" cy="112" r="11" fill="#1f2937"/>
    <circle cx="165" cy="112" r="22" fill="#374151" stroke="#6b7280" stroke-width="2"/>
    <circle cx="165" cy="112" r="11" fill="#1f2937"/>
    <text x="110" y="85" font-family="Arial Black,sans-serif" font-size="26" font-weight="900" fill="#ef4444" text-anchor="middle">T</text>
  </g>

  <text x="540" y="340" font-family="Arial,sans-serif" font-size="16" fill="#9ca3af" text-anchor="middle" letter-spacing="3">JAPAN DELIVERY BACKLOG</text>
  <text x="540" y="400" font-family="Arial Black,Arial,sans-serif" font-size="80" font-weight="900" fill="#ef4444" text-anchor="middle">SURGE</text>
  <text x="540" y="440" font-family="Arial,sans-serif" font-size="20" fill="#f9fafb" text-anchor="middle">Large-scale new vehicle delivery backlog spotted</text>

  <text x="160" y="492" font-family="Arial,sans-serif" font-size="14" font-weight="700" fill="#6b7280" letter-spacing="2">JAPAN Q2 2026 DELIVERY EXPECTATIONS</text>

  <line x1="160" y1="660" x2="920" y2="660" stroke="#374151" stroke-width="1"/>
  <line x1="160" y1="510" x2="160" y2="660" stroke="#374151" stroke-width="1"/>

  <rect x="220" y="600" width="100" height="60" rx="5" fill="url(#barGrad)"/>
  <text x="270" y="593" font-family="Arial,sans-serif" font-size="12" fill="#9ca3af" text-anchor="middle">Q2 2025</text>
  <text x="270" y="682" font-family="Arial,sans-serif" font-size="11" fill="#6b7280" text-anchor="middle">~3K</text>

  <rect x="390" y="555" width="100" height="105" rx="5" fill="url(#barGrad)"/>
  <text x="440" y="548" font-family="Arial,sans-serif" font-size="12" fill="#9ca3af" text-anchor="middle">Q3 2025</text>
  <text x="440" y="682" font-family="Arial,sans-serif" font-size="11" fill="#6b7280" text-anchor="middle">~5K</text>

  <rect x="560" y="520" width="100" height="140" rx="5" fill="url(#barGrad)"/>
  <text x="610" y="513" font-family="Arial,sans-serif" font-size="12" fill="#9ca3af" text-anchor="middle">Q1 2026</text>
  <text x="610" y="682" font-family="Arial,sans-serif" font-size="11" fill="#6b7280" text-anchor="middle">~7K</text>

  <rect x="730" y="516" width="100" height="144" rx="5" fill="url(#barGrad2)"/>
  <text x="780" y="508" font-family="Arial,sans-serif" font-size="16" fill="#ef4444" text-anchor="middle">↑↑</text>
  <text x="780" y="499" font-family="Arial,sans-serif" font-size="12" fill="#ef4444" text-anchor="middle" font-weight="700">Q2 2026E</text>
  <text x="780" y="682" font-family="Arial,sans-serif" font-size="11" fill="#60a5fa" text-anchor="middle" font-weight="700">SURGE</text>

  <rect x="80" y="700" width="280" height="100" rx="12" fill="#0f172a" stroke="#7f1d1d" stroke-width="1.5"/>
  <text x="220" y="732" font-family="Arial,sans-serif" font-size="12" fill="#ef4444" text-anchor="middle">BACKLOG SPOTTED</text>
  <text x="220" y="764" font-family="Arial Black,sans-serif" font-size="26" font-weight="900" fill="#ef4444" text-anchor="middle">SPOTTED</text>
  <text x="220" y="788" font-family="Arial,sans-serif" font-size="11" fill="#6b7280" text-anchor="middle">Japan local delivery backlog</text>

  <rect x="400" y="700" width="280" height="100" rx="12" fill="#0f172a" stroke="#1e3a5f" stroke-width="1.5"/>
  <text x="540" y="732" font-family="Arial,sans-serif" font-size="12" fill="#60a5fa" text-anchor="middle">Q2 DELIVERY OUTLOOK</text>
  <text x="540" y="764" font-family="Arial Black,sans-serif" font-size="26" font-weight="900" fill="#60a5fa" text-anchor="middle">Q2 2026</text>
  <text x="540" y="788" font-family="Arial,sans-serif" font-size="11" fill="#6b7280" text-anchor="middle">Strong delivery expectations</text>

  <rect x="720" y="700" width="280" height="100" rx="12" fill="#0f172a" stroke="#14532d" stroke-width="1.5"/>
  <text x="860" y="732" font-family="Arial,sans-serif" font-size="12" fill="#4ade80" text-anchor="middle">APAC DEMAND</text>
  <text x="860" y="764" font-family="Arial Black,sans-serif" font-size="22" font-weight="900" fill="#4ade80" text-anchor="middle">CONFIRMED</text>
  <text x="860" y="788" font-family="Arial,sans-serif" font-size="11" fill="#6b7280" text-anchor="middle">Asia Pacific demand validated</text>

  <text x="540" y="850" font-family="Arial,sans-serif" font-size="13" fill="#374151" text-anchor="middle">Tesla Japan Delivery Backlog Surge · Q2 2026 Outlook · 2026.07.01</text>

  <rect x="0" y="1060" width="1080" height="20" fill="url(#redGrad)" opacity="0.4"/>
  <text x="540" y="1073" font-family="Arial,sans-serif" font-size="10" fill="#6b7280" text-anchor="middle" letter-spacing="2">INVESTUS · TSLA RESEARCH · NOT FINANCIAL ADVICE</text>
</svg>
