<svg width="800" height="430" viewBox="0 0 800 430" xmlns="http://www.w3.org/2000/svg">
  <rect width="800" height="430" fill="#07091a"/>
  <rect x="0" y="0" width="800" height="3" fill="#00e5a0"/>
  <text x="30" y="30" font-family="Arial,sans-serif" font-size="10" fill="#00e5a0" font-weight="700" letter-spacing="2">INVESTUS · TSLA REPORT</text>
  <text x="30" y="58" font-family="Arial,sans-serif" font-size="18" fill="white" font-weight="700">FSD 누적 2,670만 마일 돌파 · 주간 주행 +44% 급등</text>
  <text x="770" y="58" font-family="Arial,sans-serif" font-size="11" fill="#6b7280" text-anchor="end">2026.05.29</text>
  <line x1="30" y1="70" x2="770" y2="70" stroke="#1e2330" stroke-width="1"/>

  <!-- Big hero number -->
  <rect x="30" y="84" width="340" height="130" rx="8" fill="#071208" stroke="#00e5a0" stroke-width="2"/>
  <text x="200" y="120" font-family="Arial,sans-serif" font-size="11" fill="#6b7280" text-anchor="middle">FSD 누적 주행</text>
  <text x="200" y="168" font-family="Arial,sans-serif" font-size="38" fill="#00e5a0" font-weight="900" text-anchor="middle">2,670만</text>
  <text x="200" y="192" font-family="Arial,sans-serif" font-size="14" fill="white" font-weight="700" text-anchor="middle">마일 돌파</text>
  <text x="200" y="210" font-family="Arial,sans-serif" font-size="9" fill="#6b7280" text-anchor="middle">2026.05.29 기준</text>

  <!-- Right side stats -->
  <rect x="390" y="84" width="380" height="60" rx="8" fill="#071208" stroke="#00e5a0" stroke-width="1.2" stroke-opacity="0.6"/>
  <text x="580" y="108" font-family="Arial,sans-serif" font-size="11" fill="#6b7280" text-anchor="middle">주간 주행 증가율</text>
  <text x="580" y="136" font-family="Arial,sans-serif" font-size="30" fill="#00e5a0" font-weight="900" text-anchor="middle">+44%</text>

  <rect x="390" y="154" width="380" height="60" rx="8" fill="#071208" stroke="#00e5a0" stroke-width="1.2" stroke-opacity="0.6"/>
  <text x="580" y="178" font-family="Arial,sans-serif" font-size="11" fill="#6b7280" text-anchor="middle">실도로 AI 학습 데이터</text>
  <text x="580" y="206" font-family="Arial,sans-serif" font-size="24" fill="white" font-weight="900" text-anchor="middle">97.5억 마일+</text>

  <!-- Progress bar -->
  <rect x="30" y="230" width="740" height="56" rx="8" fill="#060b18" stroke="#00e5a0" stroke-width="1" stroke-opacity="0.3"/>
  <rect x="30" y="230" width="4" height="56" rx="2" fill="#00e5a0"/>
  <text x="50" y="252" font-family="Arial,sans-serif" font-size="10" fill="#6b7280">FSD 주간 주행 누적 성장</text>
  <rect x="50" y="262" width="440" height="10" rx="4" fill="#1e2330"/>
  <rect x="50" y="262" width="380" height="10" rx="4" fill="#00e5a0"/>
  <text x="442" y="272" font-family="Arial,sans-serif" font-size="9" fill="#00e5a0" font-weight="700"> 2,670만</text>
  <text x="636" y="272" font-family="Arial,sans-serif" font-size="9" fill="#6b7280">목표 3,000만</text>

  <!-- Impact cards -->
  <rect x="30" y="302" width="354" height="80" rx="6" fill="#0a0f1e" stroke="#1e2330" stroke-width="1"/>
  <rect x="30" y="302" width="4" height="80" rx="2" fill="#00e5a0"/>
  <text x="50" y="326" font-family="Arial,sans-serif" font-size="10" fill="#6b7280">학습 데이터 의미</text>
  <text x="50" y="350" font-family="Arial,sans-serif" font-size="12" fill="white" font-weight="700">Waymo 대비 AI 학습 1,000배+</text>
  <text x="50" y="368" font-family="Arial,sans-serif" font-size="10" fill="#9ca3af">실도로 엣지케이스 데이터 독점 축적</text>
  <text x="50" y="378" font-family="Arial,sans-serif" font-size="9" fill="#6b7280">경쟁사 진입 장벽 → 기하급수적 가속</text>

  <rect x="402" y="302" width="368" height="80" rx="6" fill="#0a0f1e" stroke="#1e2330" stroke-width="1"/>
  <rect x="402" y="302" width="4" height="80" rx="2" fill="#00e5a0"/>
  <text x="422" y="326" font-family="Arial,sans-serif" font-size="10" fill="#6b7280">수익화 경로</text>
  <text x="422" y="350" font-family="Arial,sans-serif" font-size="12" fill="#00e5a0" font-weight="700">FSD 구독 $99/월 → Robotaxi 전환</text>
  <text x="422" y="368" font-family="Arial,sans-serif" font-size="10" fill="#9ca3af">주행 거리 = AI 품질 = 수익 직결</text>
  <text x="422" y="378" font-family="Arial,sans-serif" font-size="9" fill="#6b7280">2,670만 마일 = 수익화 임계점 통과</text>

  <line x1="30" y1="396" x2="770" y2="396" stroke="#1e2330" stroke-width="1"/>
  <text x="30" y="412" font-family="Arial,sans-serif" font-size="8" fill="#374151">투자 참고용 · 투자 권유 아님</text>
  <text x="770" y="412" font-family="Arial,sans-serif" font-size="9" fill="#00e5a0" text-anchor="end" font-weight="700">SUNRYU Partners CIO</text>
</svg>
