<svg xmlns="http://www.w3.org/2000/svg" viewBox="0 0 800 440" width="800" height="440" style="background:#0d1117;font-family:'Apple SD Gothic Neo',sans-serif">
  <rect width="800" height="440" rx="12" fill="#0d1117"/>
  <text x="400" y="36" text-anchor="middle" fill="#00e5a0" font-size="13" font-weight="700">TSLA · Tesla</text>
  <text x="400" y="62" text-anchor="middle" fill="#e6edf3" font-size="20" font-weight="700">AMAZING ABUNDANCE 상표 출원 — 6/19</text>
  <text x="400" y="84" text-anchor="middle" fill="#7d8590" font-size="13">Tesla의 미래 비전 상표 · 풍요로운 에너지·AI 시대 선언</text>
  <line x1="40" y1="96" x2="760" y2="96" stroke="#21262d" stroke-width="1"/>

  <!-- Trademark document look -->
  <rect x="200" y="110" width="400" height="180" rx="10" fill="#161b22" stroke="#21262d" stroke-width="1.5"/>
  <text x="400" y="148" text-anchor="middle" fill="#7d8590" font-size="12">USPTO 상표 등록</text>
  <text x="400" y="182" text-anchor="middle" fill="#00e5a0" font-size="28" font-weight="800">AMAZING</text>
  <text x="400" y="216" text-anchor="middle" fill="#00e5a0" font-size="28" font-weight="800">ABUNDANCE</text>
  <rect x="310" y="226" width="180" height="2" fill="#21262d"/>
  <text x="400" y="250" text-anchor="middle" fill="#7d8590" font-size="11">출원일: 2026-06-19</text>
  <text x="400" y="268" text-anchor="middle" fill="#7d8590" font-size="11">상태: LIVE PENDING (일련번호 99894747)</text>

  <!-- Context cards -->
  <rect x="40" y="306" width="340" height="96" rx="8" fill="#161b22"/>
  <text x="210" y="332" text-anchor="middle" fill="#00e5a0" font-size="13" font-weight="600">상표 의미</text>
  <text x="210" y="354" text-anchor="middle" fill="#e6edf3" font-size="13">Tesla의 에너지 풍요 비전</text>
  <text x="210" y="374" text-anchor="middle" fill="#7d8590" font-size="12">청정에너지·AI가 만드는</text>
  <text x="210" y="392" text-anchor="middle" fill="#7d8590" font-size="12">풍요로운 미래 선언</text>

  <rect x="420" y="306" width="340" height="96" rx="8" fill="#161b22"/>
  <text x="590" y="332" text-anchor="middle" fill="#00e5a0" font-size="13" font-weight="600">활용 가능성</text>
  <text x="590" y="354" text-anchor="middle" fill="#e6edf3" font-size="13">제품·서비스·캠페인 브랜드</text>
  <text x="590" y="374" text-anchor="middle" fill="#7d8590" font-size="12">Tesla Energy·FSD·Optimus</text>
  <text x="590" y="392" text-anchor="middle" fill="#7d8590" font-size="12">통합 마케팅 메시지</text>

  <line x1="40" y1="414" x2="760" y2="414" stroke="#21262d" stroke-width="1"/>
  <text x="400" y="430" text-anchor="middle" fill="#444c56" font-size="10">출처: USPTO (일련번호 99894747) · investus.kr</text>
</svg>
