<svg xmlns="http://www.w3.org/2000/svg" viewBox="0 0 600 400" width="600" height="400">
  <defs>
    <linearGradient id="bg7" x1="0" y1="0" x2="0" y2="1">
      <stop offset="0%" stop-color="#0f1923"/>
      <stop offset="100%" stop-color="#0a1018"/>
    </linearGradient>
  </defs>
  <rect width="600" height="400" fill="url(#bg7)" rx="16"/>

  <!-- Header -->
  <rect x="20" y="18" width="90" height="26" rx="6" fill="#00e5a0" opacity="0.2"/>
  <text x="65" y="36" text-anchor="middle" font-family="Arial,sans-serif" font-size="13" font-weight="700" fill="#00e5a0">TSLA</text>
  <text x="122" y="36" font-family="Arial,sans-serif" font-size="13" fill="#94a3b8">FSD · 대만 🇹🇼</text>

  <!-- Title -->
  <text x="300" y="76" text-anchor="middle" font-family="Arial,sans-serif" font-size="18" font-weight="700" fill="#f1f5f9">Tesla FSD Supervised</text>
  <text x="300" y="100" text-anchor="middle" font-family="Arial,sans-serif" font-size="16" font-weight="700" fill="#00e5a0">대만 공식 규제 제출 완료</text>

  <rect x="40" y="114" width="520" height="1" fill="#00332a" opacity="0.8"/>

  <!-- Key facts checklist -->
  <rect x="40" y="130" width="520" height="24" rx="6" fill="#00e5a0" opacity="0.08"/>
  <text x="60" y="147" font-family="Arial,sans-serif" font-size="12" font-weight="700" fill="#00e5a0">✓  공식 규제 심사 절차 개시</text>

  <rect x="40" y="160" width="520" height="24" rx="6" fill="#00e5a0" opacity="0.06"/>
  <text x="60" y="177" font-family="Arial,sans-serif" font-size="12" font-weight="700" fill="#00e5a0">✓  SAI Level 2 — 운전자 주의 유지 의무 (감독 자율주행)</text>

  <rect x="40" y="190" width="520" height="24" rx="6" fill="#00e5a0" opacity="0.06"/>
  <text x="60" y="207" font-family="Arial,sans-serif" font-size="12" font-weight="700" fill="#00e5a0">✓  FSD 일회성 구매 종료: 2026년 6월 30일</text>

  <rect x="40" y="220" width="520" height="24" rx="6" fill="#475569" opacity="0.2"/>
  <text x="60" y="237" font-family="Arial,sans-serif" font-size="12" fill="#64748b">→  승인 후 대만 전체 Tesla 차량 FSD 활성화 가능</text>

  <!-- FSD Global map -->
  <rect x="40" y="260" width="520" height="1" fill="#1e293b"/>
  <text x="40" y="284" font-family="Arial,sans-serif" font-size="13" font-weight="700" fill="#64748b">FSD 글로벌 확산 현황</text>

  <rect x="40" y="296" width="4" height="16" rx="2" fill="#00e5a0"/>
  <text x="52" y="308" font-family="Arial,sans-serif" font-size="12" fill="#e2e8f0">미국: 상용화 진행 중 (가장 큰 시장, Cybercab 포함)</text>

  <rect x="40" y="316" width="4" height="16" rx="2" fill="#00e5a0"/>
  <text x="52" y="328" font-family="Arial,sans-serif" font-size="12" fill="#e2e8f0">중국: 보조주행 명칭 출시 완료 (5월)</text>

  <rect x="40" y="336" width="4" height="16" rx="2" fill="#60a5fa"/>
  <text x="52" y="348" font-family="Arial,sans-serif" font-size="12" fill="#e2e8f0">벨기에: v12.6.4.2 승인 완료 · 네덜란드: 실도로 테스트 중</text>

  <rect x="40" y="356" width="4" height="16" rx="2" fill="#fb923c"/>
  <text x="52" y="368" font-family="Arial,sans-serif" font-size="12" fill="#e2e8f0">대만: 공식 규제 제출 ← 오늘 (아시아 전략 핵심)</text>

  <text x="300" y="384" text-anchor="middle" font-family="Arial,sans-serif" font-size="11" fill="#475569">Source: Tesla News / SAI Regulatory Filing 2026.06.17</text>
</svg>
