<svg xmlns="http://www.w3.org/2000/svg" viewBox="0 0 600 440" width="600" height="440">
  <defs><linearGradient id="bge2" x1="0" y1="0" x2="0" y2="1"><stop offset="0%" stop-color="#0f1923"/><stop offset="100%" stop-color="#0a1018"/></linearGradient></defs>
  <rect width="600" height="440" fill="url(#bge2)" rx="16"/>
  <rect x="20" y="18" width="90" height="26" rx="6" fill="#00e5a0" opacity="0.2"/>
  <text x="65" y="36" text-anchor="middle" font-family="Arial,sans-serif" font-size="13" font-weight="700" fill="#00e5a0">TSLA</text>
  <text x="122" y="36" font-family="Arial,sans-serif" font-size="13" fill="#94a3b8">2026.06.16</text>
  <text x="300" y="76" text-anchor="middle" font-family="Arial,sans-serif" font-size="19" font-weight="700" fill="#f1f5f9">China-Made Model Y</text>
  <text x="300" y="100" text-anchor="middle" font-family="Arial,sans-serif" font-size="19" font-weight="700" fill="#00e5a0">#1 Import in Japan — May 2026</text>
  <rect x="40" y="114" width="520" height="1" fill="#1e3a2f" opacity="0.8"/>
  <rect x="220" y="126" width="160" height="70" rx="12" fill="#00e5a0" opacity="0.12"/>
  <rect x="220" y="126" width="160" height="70" rx="12" fill="none" stroke="#00e5a0" stroke-width="1" opacity="0.4"/>
  <text x="300" y="168" text-anchor="middle" font-family="Arial,sans-serif" font-size="46" font-weight="900" fill="#00e5a0">#1</text>
  <text x="300" y="186" text-anchor="middle" font-family="Arial,sans-serif" font-size="11" fill="#94a3b8">Import Sales Rank — Japan May 2026</text>
  <rect x="40" y="210" width="520" height="8" rx="4" fill="#dc2626" opacity="0.6"/>
  <text x="40" y="242" font-family="Arial,sans-serif" font-size="13" font-weight="700" fill="#64748b">Japan Import Vehicle Ranking — May 2026</text>
  <rect x="40" y="252" width="520" height="36" rx="6" fill="#00e5a0" opacity="0.1"/>
  <rect x="40" y="252" width="4" height="36" rx="2" fill="#00e5a0"/>
  <text x="55" y="276" font-family="Arial,sans-serif" font-size="15" font-weight="700" fill="#00e5a0">1st</text>
  <text x="95" y="276" font-family="Arial,sans-serif" font-size="14" font-weight="700" fill="#f1f5f9">Tesla Model Y (Made in China)</text>
  <rect x="40" y="296" width="520" height="36" rx="6" fill="#1e293b" opacity="0.5"/>
  <rect x="40" y="296" width="4" height="36" rx="2" fill="#475569"/>
  <text x="55" y="320" font-family="Arial,sans-serif" font-size="15" font-weight="700" fill="#475569">2nd+</text>
  <text x="95" y="320" font-family="Arial,sans-serif" font-size="14" fill="#94a3b8">Other Imported EVs / ICE</text>
  <rect x="40" y="348" width="4" height="16" rx="2" fill="#00e5a0"/>
  <text x="52" y="360" font-family="Arial,sans-serif" font-size="12" fill="#e2e8f0">First Chinese-made EV to top Japan import rankings</text>
  <rect x="40" y="372" width="4" height="16" rx="2" fill="#00e5a0"/>
  <text x="52" y="384" font-family="Arial,sans-serif" font-size="12" fill="#e2e8f0">Validates Giga Shanghai quality &amp; cost competitiveness</text>
  <rect x="40" y="396" width="4" height="16" rx="2" fill="#00e5a0"/>
  <text x="52" y="408" font-family="Arial,sans-serif" font-size="12" fill="#e2e8f0">Asia expansion accelerating — Korea, Australia, SEA momentum</text>
</svg>
