<svg xmlns="http://www.w3.org/2000/svg" viewBox="0 0 800 440" font-family="'Segoe UI',Arial,sans-serif">
  <rect width="800" height="440" fill="#0a0f1e"/>
  <rect x="0" y="0" width="800" height="52" fill="#111827"/>
  <text x="30" y="32" font-size="15" font-weight="700" fill="#ef4444">🇯🇵 Tesla Japan — 5월 판매 +182% YoY</text>
  <text x="30" y="47" font-size="10" fill="#6b7280">일본 시장 2026년 5월 데이터 · 2026.06.04</text>

  <!-- Big number -->
  <rect x="30" y="65" width="280" height="165" rx="12" fill="#1a0a0a" stroke="#ef4444" stroke-width="1.5"/>
  <text x="170" y="92" font-size="11" font-weight="700" fill="#ef4444" text-anchor="middle">5월 YoY 성장률</text>
  <text x="170" y="170" font-size="80" font-weight="900" fill="white" text-anchor="middle">+182%</text>
  <text x="170" y="195" font-size="10" fill="#9ca3af" text-anchor="middle">전년 동기 대비</text>
  <text x="170" y="215" font-size="12" font-weight="800" fill="#ef4444" text-anchor="middle">역대 최고 성장률</text>

  <!-- Units sold -->
  <rect x="325" y="65" width="210" height="165" rx="12" fill="#111827"/>
  <text x="430" y="92" font-size="11" font-weight="700" fill="#9ca3af" text-anchor="middle">5월 판매 대수</text>
  <text x="430" y="168" font-size="64" font-weight="900" fill="#ef4444" text-anchor="middle">1,996</text>
  <text x="430" y="193" font-size="10" fill="#9ca3af" text-anchor="middle">대 (2026년 5월)</text>
  <text x="430" y="215" font-size="9" fill="#6b7280" text-anchor="middle">🇯🇵 일본 EV 시장</text>

  <!-- Growth visual bar chart -->
  <rect x="550" y="65" width="220" height="165" rx="12" fill="#111827"/>
  <text x="660" y="92" font-size="10" font-weight="700" fill="#9ca3af" text-anchor="middle">월별 판매 추이 (추정)</text>
  <!-- Bar chart - last 6 months -->
  <text x="568" y="218" font-size="7" fill="#6b7280" text-anchor="middle">12월</text>
  <rect x="560" y="155" width="22" height="58" rx="3" fill="#ef4444" opacity="0.3"/>
  <text x="571" y="152" font-size="7" fill="#9ca3af" text-anchor="middle">~500</text>

  <text x="598" y="218" font-size="7" fill="#6b7280" text-anchor="middle">1월</text>
  <rect x="590" y="148" width="22" height="65" rx="3" fill="#ef4444" opacity="0.4"/>
  <text x="601" y="145" font-size="7" fill="#9ca3af" text-anchor="middle">~600</text>

  <text x="628" y="218" font-size="7" fill="#6b7280" text-anchor="middle">2월</text>
  <rect x="620" y="142" width="22" height="71" rx="3" fill="#ef4444" opacity="0.5"/>
  <text x="631" y="139" font-size="7" fill="#9ca3af" text-anchor="middle">~700</text>

  <text x="658" y="218" font-size="7" fill="#6b7280" text-anchor="middle">3월</text>
  <rect x="650" y="135" width="22" height="78" rx="3" fill="#ef4444" opacity="0.6"/>
  <text x="661" y="132" font-size="7" fill="#9ca3af" text-anchor="middle">~900</text>

  <text x="688" y="218" font-size="7" fill="#6b7280" text-anchor="middle">4월</text>
  <rect x="680" y="128" width="22" height="85" rx="3" fill="#ef4444" opacity="0.7"/>
  <text x="691" y="125" font-size="7" fill="#9ca3af" text-anchor="middle">~1.2K</text>

  <text x="718" y="218" font-size="7" fill="#6b7280" text-anchor="middle">5월</text>
  <rect x="710" y="100" width="22" height="113" rx="3" fill="#ef4444"/>
  <text x="721" y="97" font-size="7" fill="#ef4444" text-anchor="middle" font-weight="800">1,996</text>

  <!-- Trend line -->
  <polyline points="571,185 601,178 631,169 661,158 691,148 721,115"
            stroke="#ef4444" stroke-width="1.5" fill="none" stroke-dasharray="4 2"/>

  <!-- Context section -->
  <rect x="30" y="245" width="740" height="90" rx="12" fill="#111827"/>
  <text x="400" y="268" font-size="11" font-weight="700" fill="#c084fc" text-anchor="middle">일본 시장 분석</text>
  <!-- 3 columns -->
  <rect x="50" y="278" width="205" height="45" rx="8" fill="#1a0a0a"/>
  <text x="153" y="296" font-size="9" fill="#9ca3af" text-anchor="middle">일본 EV 시장 특성</text>
  <text x="153" y="312" font-size="10" font-weight="700" fill="#e2e8f0" text-anchor="middle">토요타·혼다 홈그라운드 돌파</text>

  <rect x="270" y="278" width="220" height="45" rx="8" fill="#1a0a0a"/>
  <text x="380" y="296" font-size="9" fill="#9ca3af" text-anchor="middle">성장 배경</text>
  <text x="380" y="312" font-size="10" font-weight="700" fill="#e2e8f0" text-anchor="middle">FSD 일본어 출시 + 충전망 확장</text>

  <rect x="505" y="278" width="245" height="45" rx="8" fill="#1a0a0a"/>
  <text x="628" y="296" font-size="9" fill="#9ca3af" text-anchor="middle">트위터 반응</text>
  <text x="628" y="312" font-size="10" font-weight="700" fill="#ef4444" text-anchor="middle">"파라볼릭 성장" — GOOD NEWS</text>

  <!-- Quote -->
  <rect x="30" y="350" width="740" height="60" rx="12" fill="#111827"/>
  <text x="400" y="374" font-size="10" fill="#9ca3af" text-anchor="middle">"Tesla is absolutely crushing it in Japan right now. May data shows a +182% increase Year-over-Year</text>
  <text x="400" y="392" font-size="10" fill="#9ca3af" text-anchor="middle">and the growth is parabolic. June will be the massive end-of-quarter push"</text>
  <text x="400" y="406" font-size="8" fill="#6b7280" text-anchor="middle">— GOOD NEWS (@GoodNewsForEV)</text>

  <text x="770" y="430" font-size="9" fill="#6b7280">investus.kr</text>
</svg>
