<svg xmlns="http://www.w3.org/2000/svg" width="1080" height="1080" viewBox="0 0 1080 1080">
  <defs>
    <linearGradient id="bg" x1="0%" y1="0%" x2="100%" y2="100%">
      <stop offset="0%" style="stop-color:#0d1117"/>
      <stop offset="100%" style="stop-color:#1a0a0a"/>
    </linearGradient>
    <linearGradient id="arrowGrad" x1="0%" y1="100%" x2="0%" y2="0%">
      <stop offset="0%" style="stop-color:#ef4444"/>
      <stop offset="100%" style="stop-color:#fca5a5"/>
    </linearGradient>
  </defs>
  <rect width="1080" height="1080" fill="url(#bg)"/>
  <!-- Header -->
  <rect width="1080" height="80" fill="#111318"/>
  <text x="540" y="30" font-family="Arial,sans-serif" font-size="13" fill="#9ca3af" text-anchor="middle">TSLA · Tesla CapEx Expansion</text>
  <text x="540" y="62" font-family="Arial,sans-serif" font-size="26" font-weight="bold" fill="#e5e7eb" text-anchor="middle">Elon: Substantially Increasing Investments</text>
  <!-- Accent line -->
  <rect y="80" width="1080" height="3" fill="#ef4444"/>
  <!-- HERO: Large upward arrow -->
  <g transform="translate(540, 280)">
    <rect x="-30" y="-130" width="60" height="200" fill="url(#arrowGrad)" rx="5"/>
    <polygon points="0,-200 -80,-110 80,-110" fill="url(#arrowGrad)"/>
  </g>
  <!-- CapEx text -->
  <text x="540" y="155" font-family="Arial,sans-serif" font-size="60" font-weight="bold" fill="#ef4444" text-anchor="middle">CapEx ↑↑</text>
  <circle cx="540" cy="280" r="160" fill="#ef4444" opacity="0.05"/>
  <!-- 5 Investment areas grid -->
  <text x="540" y="475" font-family="Arial,sans-serif" font-size="20" font-weight="bold" fill="#e5e7eb" text-anchor="middle">5 Key Investment Areas</text>
  <!-- Card 1: Battery -->
  <rect x="40" y="500" width="188" height="160" rx="12" fill="#1a1117" stroke="#ef4444" stroke-width="1.5"/>
  <rect x="100" y="520" width="68" height="34" rx="4" fill="none" stroke="#ef4444" stroke-width="2.5"/>
  <rect x="168" y="529" width="10" height="16" rx="2" fill="#ef4444"/>
  <rect x="104" y="524" width="20" height="8" fill="#ef4444"/>
  <rect x="128" y="524" width="20" height="8" fill="#ef4444"/>
  <rect x="152" y="524" width="10" height="8" fill="#ef4444"/>
  <text x="134" y="580" font-family="Arial,sans-serif" font-size="16" font-weight="bold" fill="#ef4444" text-anchor="middle">Battery</text>
  <text x="134" y="600" font-family="Arial,sans-serif" font-size="12" fill="#9ca3af" text-anchor="middle">4680 Cell</text>
  <text x="134" y="620" font-family="Arial,sans-serif" font-size="12" fill="#9ca3af" text-anchor="middle">Mass Production</text>
  <text x="134" y="645" font-family="Arial,sans-serif" font-size="13" fill="#4ade80" font-weight="bold" text-anchor="middle">↑ Core</text>
  <!-- Card 2: Powertrain -->
  <rect x="248" y="500" width="188" height="160" rx="12" fill="#1a1117" stroke="#ef4444" stroke-width="1.5"/>
  <circle cx="342" cy="543" r="18" fill="none" stroke="#ef4444" stroke-width="2.5"/>
  <circle cx="342" cy="543" r="8" fill="#ef4444"/>
  <rect x="338" y="520" width="8" height="10" rx="2" fill="#ef4444"/>
  <rect x="338" y="556" width="8" height="10" rx="2" fill="#ef4444"/>
  <rect x="320" y="539" width="10" height="8" rx="2" fill="#ef4444"/>
  <rect x="354" y="539" width="10" height="8" rx="2" fill="#ef4444"/>
  <text x="342" y="580" font-family="Arial,sans-serif" font-size="16" font-weight="bold" fill="#ef4444" text-anchor="middle">Powertrain</text>
  <text x="342" y="600" font-family="Arial,sans-serif" font-size="12" fill="#9ca3af" text-anchor="middle">Motor &amp;</text>
  <text x="342" y="620" font-family="Arial,sans-serif" font-size="12" fill="#9ca3af" text-anchor="middle">Drivetrain</text>
  <text x="342" y="645" font-family="Arial,sans-serif" font-size="13" fill="#4ade80" font-weight="bold" text-anchor="middle">↑ Expand</text>
  <!-- Card 3: AI Software -->
  <rect x="456" y="500" width="168" height="160" rx="12" fill="#1a1117" stroke="#ef4444" stroke-width="1.5"/>
  <circle cx="540" cy="543" r="22" fill="none" stroke="#ef4444" stroke-width="2"/>
  <text x="540" y="551" font-family="Arial,sans-serif" font-size="20" fill="#ef4444" text-anchor="middle">AI</text>
  <line x1="518" y1="543" x2="500" y2="535" stroke="#ef4444" stroke-width="1.5"/>
  <line x1="562" y1="543" x2="580" y2="535" stroke="#ef4444" stroke-width="1.5"/>
  <text x="540" y="580" font-family="Arial,sans-serif" font-size="14" font-weight="bold" fill="#ef4444" text-anchor="middle">AI Software</text>
  <text x="540" y="600" font-family="Arial,sans-serif" font-size="12" fill="#9ca3af" text-anchor="middle">FSD v14+</text>
  <text x="540" y="620" font-family="Arial,sans-serif" font-size="12" fill="#9ca3af" text-anchor="middle">Autopilot</text>
  <text x="540" y="645" font-family="Arial,sans-serif" font-size="13" fill="#4ade80" font-weight="bold" text-anchor="middle">↑ Core</text>
  <!-- Card 4: AI Training -->
  <rect x="644" y="500" width="188" height="160" rx="12" fill="#1a1117" stroke="#ef4444" stroke-width="1.5"/>
  <ellipse cx="738" cy="540" rx="22" ry="18" fill="none" stroke="#ef4444" stroke-width="2"/>
  <line x1="716" y1="540" x2="760" y2="540" stroke="#ef4444" stroke-width="1.5"/>
  <line x1="738" y1="522" x2="738" y2="558" stroke="#ef4444" stroke-width="1.5"/>
  <circle cx="726" cy="532" r="4" fill="#ef4444"/>
  <circle cx="750" cy="532" r="4" fill="#ef4444"/>
  <circle cx="726" cy="550" r="4" fill="#ef4444"/>
  <circle cx="750" cy="550" r="4" fill="#ef4444"/>
  <text x="738" y="580" font-family="Arial,sans-serif" font-size="14" font-weight="bold" fill="#ef4444" text-anchor="middle">AI Training</text>
  <text x="738" y="600" font-family="Arial,sans-serif" font-size="12" fill="#9ca3af" text-anchor="middle">Dojo</text>
  <text x="738" y="620" font-family="Arial,sans-serif" font-size="12" fill="#9ca3af" text-anchor="middle">Supercomputer</text>
  <text x="738" y="645" font-family="Arial,sans-serif" font-size="13" fill="#4ade80" font-weight="bold" text-anchor="middle">↑ Expand</text>
  <!-- Card 5: Chip Design -->
  <rect x="852" y="500" width="188" height="160" rx="12" fill="#1a1117" stroke="#ef4444" stroke-width="1.5"/>
  <rect x="913" y="522" width="50" height="40" rx="3" fill="none" stroke="#ef4444" stroke-width="2"/>
  <rect x="921" y="530" width="34" height="24" rx="2" fill="#ef4444" opacity="0.3"/>
  <line x1="913" y1="530" x2="900" y2="530" stroke="#ef4444" stroke-width="2"/>
  <line x1="913" y1="542" x2="900" y2="542" stroke="#ef4444" stroke-width="2"/>
  <line x1="963" y1="530" x2="976" y2="530" stroke="#ef4444" stroke-width="2"/>
  <line x1="963" y1="542" x2="976" y2="542" stroke="#ef4444" stroke-width="2"/>
  <line x1="925" y1="522" x2="925" y2="509" stroke="#ef4444" stroke-width="2"/>
  <line x1="938" y1="522" x2="938" y2="509" stroke="#ef4444" stroke-width="2"/>
  <text x="938" y="580" font-family="Arial,sans-serif" font-size="14" font-weight="bold" fill="#ef4444" text-anchor="middle">Chip Design</text>
  <text x="938" y="600" font-family="Arial,sans-serif" font-size="12" fill="#9ca3af" text-anchor="middle">FSD Chip</text>
  <text x="938" y="620" font-family="Arial,sans-serif" font-size="12" fill="#9ca3af" text-anchor="middle">AI Hardware</text>
  <text x="938" y="645" font-family="Arial,sans-serif" font-size="13" fill="#4ade80" font-weight="bold" text-anchor="middle">↑ New</text>
  <!-- Elon quote -->
  <rect x="40" y="690" width="1002" height="70" rx="10" fill="#1a1117" stroke="#ef4444" stroke-width="1"/>
  <text x="540" y="718" font-family="Arial,sans-serif" font-size="17" font-style="italic" fill="#e5e7eb" text-anchor="middle">"We are substantially increasing investments across all key areas"</text>
  <text x="540" y="743" font-family="Arial,sans-serif" font-size="14" fill="#9ca3af" text-anchor="middle">— Elon Musk, Tesla CapEx Expansion Announcement (2026.06.26)</text>
  <!-- Stats row -->
  <rect x="40" y="790" width="305" height="90" rx="10" fill="#161b22" stroke="#ef4444" stroke-width="1"/>
  <text x="192" y="825" font-family="Arial,sans-serif" font-size="13" fill="#9ca3af" text-anchor="middle">Investment Direction</text>
  <text x="192" y="862" font-family="Arial,sans-serif" font-size="24" font-weight="bold" fill="#ef4444" text-anchor="middle">Substantial Hike</text>
  <rect x="388" y="790" width="305" height="90" rx="10" fill="#161b22" stroke="#ef4444" stroke-width="1"/>
  <text x="540" y="825" font-family="Arial,sans-serif" font-size="13" fill="#9ca3af" text-anchor="middle">Key Sectors</text>
  <text x="540" y="862" font-family="Arial,sans-serif" font-size="24" font-weight="bold" fill="#ef4444" text-anchor="middle">5 Areas</text>
  <rect x="736" y="790" width="305" height="90" rx="10" fill="#161b22" stroke="#ef4444" stroke-width="1"/>
  <text x="888" y="825" font-family="Arial,sans-serif" font-size="13" fill="#9ca3af" text-anchor="middle">Market Reaction</text>
  <text x="888" y="862" font-family="Arial,sans-serif" font-size="24" font-weight="bold" fill="#4ade80" text-anchor="middle">Positive ↑</text>
  <!-- Footer -->
  <rect y="910" width="1080" height="80" fill="#111318"/>
  <rect y="910" width="1080" height="2" fill="#ef4444"/>
  <text x="540" y="955" font-family="Arial,sans-serif" font-size="16" font-weight="bold" fill="#e5e7eb" text-anchor="middle">Tesla's Aggressive Investment Strategy — AI, Battery, Chips All Expanding</text>
  <text x="540" y="978" font-family="Arial,sans-serif" font-size="12" fill="#9ca3af" text-anchor="middle">INVESTUS · 2026.06.26 · For Reference Only</text>
  <rect y="1000" width="1080" height="60" fill="#0d1117"/>
  <text x="270" y="1037" font-family="Arial,sans-serif" font-size="16" fill="#ef4444" text-anchor="middle">TSLA</text>
  <text x="540" y="1037" font-family="Arial,sans-serif" font-size="14" fill="#9ca3af" text-anchor="middle">CapEx Investment = Long-Term Growth Momentum</text>
  <text x="810" y="1037" font-family="Arial,sans-serif" font-size="16" fill="#4ade80" text-anchor="middle">BUY SIGNAL</text>
</svg>