<svg xmlns="http://www.w3.org/2000/svg" viewBox="0 0 600 400" width="600" height="400">
  <defs>
    <linearGradient id="bg7en" x1="0" y1="0" x2="0" y2="1">
      <stop offset="0%" stop-color="#0f1923"/>
      <stop offset="100%" stop-color="#0a1018"/>
    </linearGradient>
  </defs>
  <rect width="600" height="400" fill="url(#bg7en)" rx="16"/>
  <rect x="20" y="18" width="90" height="26" rx="6" fill="#00e5a0" opacity="0.2"/>
  <text x="65" y="36" text-anchor="middle" font-family="Arial,sans-serif" font-size="13" font-weight="700" fill="#00e5a0">TSLA</text>
  <text x="122" y="36" font-family="Arial,sans-serif" font-size="13" fill="#94a3b8">FSD · Taiwan</text>
  <text x="300" y="76" text-anchor="middle" font-family="Arial,sans-serif" font-size="18" font-weight="700" fill="#f1f5f9">Tesla FSD Supervised</text>
  <text x="300" y="100" text-anchor="middle" font-family="Arial,sans-serif" font-size="16" font-weight="700" fill="#00e5a0">Official Regulatory Submission in Taiwan</text>
  <rect x="40" y="114" width="520" height="1" fill="#00332a" opacity="0.8"/>
  <rect x="40" y="130" width="520" height="24" rx="6" fill="#00e5a0" opacity="0.08"/>
  <text x="60" y="147" font-family="Arial,sans-serif" font-size="12" font-weight="700" fill="#00e5a0">✓  Official regulatory review process initiated</text>
  <rect x="40" y="160" width="520" height="24" rx="6" fill="#00e5a0" opacity="0.06"/>
  <text x="60" y="177" font-family="Arial,sans-serif" font-size="12" font-weight="700" fill="#00e5a0">✓  SAI Level 2 — Driver attention required (supervised autonomy)</text>
  <rect x="40" y="190" width="520" height="24" rx="6" fill="#00e5a0" opacity="0.06"/>
  <text x="60" y="207" font-family="Arial,sans-serif" font-size="12" font-weight="700" fill="#00e5a0">✓  FSD one-time purchase ends: June 30, 2026</text>
  <rect x="40" y="220" width="520" height="24" rx="6" fill="#475569" opacity="0.2"/>
  <text x="60" y="237" font-family="Arial,sans-serif" font-size="12" fill="#64748b">→  After approval, all Taiwan Tesla vehicles can activate FSD</text>
  <rect x="40" y="260" width="520" height="1" fill="#1e293b"/>
  <text x="40" y="284" font-family="Arial,sans-serif" font-size="13" font-weight="700" fill="#64748b">FSD Global Expansion Status</text>
  <rect x="40" y="296" width="4" height="16" rx="2" fill="#00e5a0"/>
  <text x="52" y="308" font-family="Arial,sans-serif" font-size="12" fill="#e2e8f0">USA: Commercialization underway (largest market, incl. Cybercab)</text>
  <rect x="40" y="316" width="4" height="16" rx="2" fill="#00e5a0"/>
  <text x="52" y="328" font-family="Arial,sans-serif" font-size="12" fill="#e2e8f0">China: ADAS-named rollout complete (May)</text>
  <rect x="40" y="336" width="4" height="16" rx="2" fill="#60a5fa"/>
  <text x="52" y="348" font-family="Arial,sans-serif" font-size="12" fill="#e2e8f0">Belgium: v12.6.4.2 approved · Netherlands: real-road testing underway</text>
  <rect x="40" y="356" width="4" height="16" rx="2" fill="#fb923c"/>
  <text x="52" y="368" font-family="Arial,sans-serif" font-size="12" fill="#e2e8f0">Taiwan: Official regulatory filing today — key Asia strategy milestone</text>
  <text x="300" y="384" text-anchor="middle" font-family="Arial,sans-serif" font-size="11" fill="#475569">Source: Tesla News / SAI Regulatory Filing 2026.06.17</text>
</svg>
