<svg xmlns="http://www.w3.org/2000/svg" viewBox="0 0 1080 1080" width="1080" height="1080">
  <defs>
    <linearGradient id="bg" x1="0%" y1="0%" x2="100%" y2="100%">
      <stop offset="0%" style="stop-color:#0d1117"/>
      <stop offset="50%" style="stop-color:#111827"/>
      <stop offset="100%" style="stop-color:#0d1117"/>
    </linearGradient>
    <linearGradient id="redBlue" x1="0%" y1="0%" x2="100%" y2="0%">
      <stop offset="0%" style="stop-color:#ef4444"/>
      <stop offset="100%" style="stop-color:#60a5fa"/>
    </linearGradient>
    <linearGradient id="cardGrad" x1="0%" y1="0%" x2="0%" y2="100%">
      <stop offset="0%" style="stop-color:#1e293b"/>
      <stop offset="100%" style="stop-color:#0f172a"/>
    </linearGradient>
    <linearGradient id="arrowGrad" x1="0%" y1="0%" x2="100%" y2="0%">
      <stop offset="0%" style="stop-color:#ef4444"/>
      <stop offset="100%" style="stop-color:#60a5fa"/>
    </linearGradient>
  </defs>

  <!-- Background -->
  <rect width="1080" height="1080" fill="url(#bg)"/>

  <!-- Top accent line -->
  <rect x="0" y="0" width="1080" height="4" fill="url(#redBlue)"/>

  <!-- Header area -->
  <rect x="40" y="24" width="1000" height="90" rx="12" fill="#161b22" opacity="0.9"/>
  <text x="60" y="58" font-family="Arial Black, sans-serif" font-size="13" font-weight="900" fill="#60a5fa" letter-spacing="4">INVESTUS DAILY REPORT</text>
  <text x="60" y="100" font-family="Arial Black, sans-serif" font-size="26" font-weight="900" fill="white">TSLA · FSD V4.6 AC3 출시</text>
  <rect x="880" y="38" width="148" height="34" rx="17" fill="#ef4444" opacity="0.9"/>
  <text x="954" y="60" font-family="Arial, sans-serif" font-size="14" font-weight="700" fill="white" text-anchor="middle">2026.07.01</text>

  <!-- Version upgrade visual: V4.5 → V4.6 -->
  <rect x="40" y="135" width="460" height="160" rx="16" fill="url(#cardGrad)" stroke="#1e293b" stroke-width="1"/>
  <!-- Old version box -->
  <rect x="70" y="160" width="130" height="110" rx="12" fill="#1e293b" stroke="#374151" stroke-width="1"/>
  <text x="135" y="200" font-family="Arial Black, sans-serif" font-size="14" fill="#9ca3af" text-anchor="middle">FSD</text>
  <text x="135" y="234" font-family="Arial Black, sans-serif" font-size="30" font-weight="900" fill="#9ca3af" text-anchor="middle">V4.5</text>
  <text x="135" y="260" font-family="Arial, sans-serif" font-size="11" fill="#6b7280" text-anchor="middle">HW3 Base</text>
  <!-- Arrow -->
  <polygon points="218,215 258,200 258,210 318,210 318,220 258,220 258,230" fill="url(#arrowGrad)"/>
  <!-- New version box -->
  <rect x="330" y="155" width="140" height="120" rx="12" fill="#1e3a5f" stroke="#60a5fa" stroke-width="2"/>
  <text x="400" y="195" font-family="Arial Black, sans-serif" font-size="14" fill="#60a5fa" text-anchor="middle">FSD</text>
  <text x="400" y="234" font-family="Arial Black, sans-serif" font-size="30" font-weight="900" fill="white" text-anchor="middle">V4.6</text>
  <text x="400" y="260" font-family="Arial, sans-serif" font-size="11" fill="#93c5fd" text-anchor="middle">HW4 Standard</text>

  <!-- AC3 Early Access Badge -->
  <rect x="510" y="135" width="570" height="160" rx="16" fill="url(#cardGrad)" stroke="#ef4444" stroke-width="2"/>
  <rect x="540" y="155" width="220" height="50" rx="25" fill="#ef4444"/>
  <text x="650" y="187" font-family="Arial Black, sans-serif" font-size="18" font-weight="900" fill="white" text-anchor="middle">AC3 EARLY ACCESS</text>
  <text x="820" y="195" font-family="Arial Black, sans-serif" font-size="48" font-weight="900" fill="white" text-anchor="middle">AC3</text>
  <text x="820" y="228" font-family="Arial, sans-serif" font-size="14" fill="#60a5fa" text-anchor="middle">Advanced Compute 3</text>
  <text x="650" y="270" font-family="Arial, sans-serif" font-size="13" fill="#9ca3af" text-anchor="middle">Ashok Elluswamy 발표 · 고객 출시 완료</text>

  <!-- Car icon -->
  <g transform="translate(40, 315)">
    <rect width="460" height="80" rx="12" fill="#0f172a" stroke="#1e293b" stroke-width="1"/>
    <!-- Simple car silhouette -->
    <rect x="80" y="20" width="140" height="40" rx="6" fill="#374151"/>
    <rect x="60" y="35" width="180" height="30" rx="4" fill="#4b5563"/>
    <circle cx="90" cy="65" r="12" fill="#1f2937" stroke="#60a5fa" stroke-width="2"/>
    <circle cx="210" cy="65" r="12" fill="#1f2937" stroke="#60a5fa" stroke-width="2"/>
    <rect x="100" y="25" width="40" height="25" rx="3" fill="#60a5fa" opacity="0.4"/>
    <rect x="148" y="25" width="40" height="25" rx="3" fill="#60a5fa" opacity="0.4"/>
    <text x="310" y="35" font-family="Arial, sans-serif" font-size="13" fill="#9ca3af">HW4 기준으로</text>
    <text x="310" y="55" font-family="Arial Black, sans-serif" font-size="16" font-weight="900" fill="white">HW3 성능 향상</text>
  </g>

  <!-- Improvements grid - 5 items -->
  <text x="60" y="442" font-family="Arial Black, sans-serif" font-size="16" font-weight="900" fill="#9ca3af" letter-spacing="2">주요 개선 사항</text>

  <!-- Item 1: Merging -->
  <rect x="40" y="458" width="192" height="110" rx="12" fill="url(#cardGrad)" stroke="#1e293b" stroke-width="1"/>
  <text x="136" y="490" font-family="Arial, sans-serif" font-size="28" text-anchor="middle">🔀</text>
  <text x="136" y="520" font-family="Arial Black, sans-serif" font-size="13" font-weight="700" fill="white" text-anchor="middle">병합·갈림길</text>
  <text x="136" y="540" font-family="Arial, sans-serif" font-size="11" fill="#6b7280" text-anchor="middle">Merge &amp; Fork</text>
  <rect x="50" y="554" width="172" height="4" rx="2" fill="#ef4444"/>

  <!-- Item 2: Pedestrians -->
  <rect x="246" y="458" width="192" height="110" rx="12" fill="url(#cardGrad)" stroke="#1e293b" stroke-width="1"/>
  <text x="342" y="490" font-family="Arial, sans-serif" font-size="28" text-anchor="middle">🚶</text>
  <text x="342" y="520" font-family="Arial Black, sans-serif" font-size="13" font-weight="700" fill="white" text-anchor="middle">보행자 인식</text>
  <text x="342" y="540" font-family="Arial, sans-serif" font-size="11" fill="#6b7280" text-anchor="middle">Pedestrian</text>
  <rect x="256" y="554" width="172" height="4" rx="2" fill="#f97316"/>

  <!-- Item 3: Traffic lights -->
  <rect x="452" y="458" width="192" height="110" rx="12" fill="url(#cardGrad)" stroke="#1e293b" stroke-width="1"/>
  <text x="548" y="490" font-family="Arial, sans-serif" font-size="28" text-anchor="middle">🚦</text>
  <text x="548" y="520" font-family="Arial Black, sans-serif" font-size="13" font-weight="700" fill="white" text-anchor="middle">신호등 대응</text>
  <text x="548" y="540" font-family="Arial, sans-serif" font-size="11" fill="#6b7280" text-anchor="middle">Traffic Light</text>
  <rect x="462" y="554" width="172" height="4" rx="2" fill="#eab308"/>

  <!-- Item 4: Lane marking -->
  <rect x="658" y="458" width="192" height="110" rx="12" fill="url(#cardGrad)" stroke="#1e293b" stroke-width="1"/>
  <text x="754" y="490" font-family="Arial, sans-serif" font-size="28" text-anchor="middle">🛣️</text>
  <text x="754" y="520" font-family="Arial Black, sans-serif" font-size="13" font-weight="700" fill="white" text-anchor="middle">차선 끊김</text>
  <text x="754" y="540" font-family="Arial, sans-serif" font-size="11" fill="#6b7280" text-anchor="middle">Lane Break</text>
  <rect x="668" y="554" width="172" height="4" rx="2" fill="#22c55e"/>

  <!-- Item 5: Arrival + Speed -->
  <rect x="864" y="458" width="176" height="110" rx="12" fill="url(#cardGrad)" stroke="#60a5fa" stroke-width="1"/>
  <text x="952" y="490" font-family="Arial, sans-serif" font-size="24" text-anchor="middle">📍</text>
  <text x="952" y="517" font-family="Arial Black, sans-serif" font-size="12" font-weight="700" fill="#60a5fa" text-anchor="middle">Arrival Options</text>
  <text x="952" y="535" font-family="Arial, sans-serif" font-size="10" fill="#6b7280" text-anchor="middle">하차 지점 선택</text>
  <text x="952" y="553" font-family="Arial, sans-serif" font-size="10" fill="#60a5fa" text-anchor="middle">Speed Profiles ON</text>
  <rect x="874" y="554" width="156" height="4" rx="2" fill="#60a5fa"/>

  <!-- Stats row -->
  <rect x="40" y="590" width="1000" height="100" rx="14" fill="#0f172a" stroke="#1e293b" stroke-width="1"/>
  <!-- Stat 1 -->
  <text x="180" y="632" font-family="Arial Black, sans-serif" font-size="36" font-weight="900" fill="#ef4444" text-anchor="middle">V4.6</text>
  <text x="180" y="665" font-family="Arial, sans-serif" font-size="12" fill="#9ca3af" text-anchor="middle">최신 FSD 버전</text>
  <line x1="310" y1="610" x2="310" y2="680" stroke="#1e293b" stroke-width="1"/>
  <!-- Stat 2 -->
  <text x="440" y="632" font-family="Arial Black, sans-serif" font-size="36" font-weight="900" fill="white" text-anchor="middle">AC3</text>
  <text x="440" y="665" font-family="Arial, sans-serif" font-size="12" fill="#9ca3af" text-anchor="middle">컴퓨팅 레벨</text>
  <line x1="570" y1="610" x2="570" y2="680" stroke="#1e293b" stroke-width="1"/>
  <!-- Stat 3 -->
  <text x="700" y="632" font-family="Arial Black, sans-serif" font-size="36" font-weight="900" fill="#60a5fa" text-anchor="middle">5개</text>
  <text x="700" y="665" font-family="Arial, sans-serif" font-size="12" fill="#9ca3af" text-anchor="middle">핵심 개선 항목</text>
  <line x1="830" y1="610" x2="830" y2="680" stroke="#1e293b" stroke-width="1"/>
  <!-- Stat 4 -->
  <text x="960" y="628" font-family="Arial Black, sans-serif" font-size="24" font-weight="900" fill="#22c55e" text-anchor="middle">LIVE</text>
  <text x="960" y="650" font-family="Arial, sans-serif" font-size="13" fill="#22c55e" text-anchor="middle">출시 완료</text>
  <text x="960" y="668" font-family="Arial, sans-serif" font-size="11" fill="#9ca3af" text-anchor="middle">Early Access</text>

  <!-- Ashok quote bar -->
  <rect x="40" y="710" width="1000" height="60" rx="10" fill="#1e293b" stroke="#374151" stroke-width="1"/>
  <text x="60" y="735" font-family="Arial, sans-serif" font-size="12" fill="#60a5fa" font-style="italic">"FSD V4.6 AC3 early-access 고객에게 출시 — Ashok Elluswamy, Tesla AI Director</text>
  <text x="60" y="757" font-family="Arial, sans-serif" font-size="12" fill="#9ca3af">HW4 성능 기준으로 HW3 드라이빙 행동을 전면 개선 · Arrival Options + Speed Profiles 항상 활성화</text>

  <!-- Upgrade visual bar -->
  <rect x="40" y="790" width="1000" height="200" rx="16" fill="url(#cardGrad)" stroke="#1e293b" stroke-width="1"/>
  <text x="60" y="824" font-family="Arial Black, sans-serif" font-size="15" font-weight="700" fill="#9ca3af" letter-spacing="2">FSD 진화 타임라인</text>

  <!-- Timeline -->
  <line x1="80" y1="890" x2="1000" y2="890" stroke="#374151" stroke-width="2"/>
  <!-- Points -->
  <circle cx="120" cy="890" r="10" fill="#374151" stroke="#6b7280" stroke-width="2"/>
  <text x="120" y="920" font-family="Arial, sans-serif" font-size="11" fill="#6b7280" text-anchor="middle">V4.0</text>

  <circle cx="280" cy="890" r="10" fill="#374151" stroke="#6b7280" stroke-width="2"/>
  <text x="280" y="920" font-family="Arial, sans-serif" font-size="11" fill="#6b7280" text-anchor="middle">V4.2</text>

  <circle cx="460" cy="890" r="10" fill="#374151" stroke="#9ca3af" stroke-width="2"/>
  <text x="460" y="920" font-family="Arial, sans-serif" font-size="11" fill="#9ca3af" text-anchor="middle">V4.4 AC2</text>

  <circle cx="660" cy="890" r="12" fill="#374151" stroke="#9ca3af" stroke-width="2"/>
  <text x="660" y="920" font-family="Arial, sans-serif" font-size="11" fill="#9ca3af" text-anchor="middle">V4.5 AC2</text>
  <text x="660" y="870" font-family="Arial, sans-serif" font-size="10" fill="#6b7280" text-anchor="middle">이전</text>

  <circle cx="900" cy="890" r="16" fill="#ef4444" stroke="#ef4444" stroke-width="2"/>
  <text x="900" y="896" font-family="Arial Black, sans-serif" font-size="11" fill="white" text-anchor="middle" font-weight="900">V4.6</text>
  <text x="900" y="920" font-family="Arial Black, sans-serif" font-size="12" fill="#ef4444" text-anchor="middle" font-weight="900">AC3 NOW</text>
  <text x="900" y="864" font-family="Arial, sans-serif" font-size="11" fill="#60a5fa" text-anchor="middle">현재</text>

  <!-- Bottom footer -->
  <rect x="0" y="1044" width="1080" height="36" fill="#0f172a"/>
  <text x="540" y="1068" font-family="Arial, sans-serif" font-size="13" fill="#9ca3af" text-anchor="middle">FSD V4.6은 HW3 차량 성능의 새 기준 — AC3 Early Access 시대 개막 · INVESTUS · 2026.07.01 · 투자 참고용</text>
</svg>
