<svg viewBox="0 0 480 430" xmlns="http://www.w3.org/2000/svg" font-family="'Helvetica Neue',Arial,sans-serif">
  <defs>
    <linearGradient id="bg" x1="0" y1="0" x2="0" y2="1">
      <stop offset="0%" stop-color="#080f0a"/>
      <stop offset="100%" stop-color="#050809"/>
    </linearGradient>
  </defs>
  <rect width="480" height="430" fill="url(#bg)"/>
  <rect x="0" y="0" width="480" height="50" fill="#0d1a11"/>
  <rect x="0" y="48" width="480" height="2" fill="#00e5a0" opacity="0.7"/>
  <text x="24" y="20" font-size="9" fill="#00e5a0" font-weight="700" letter-spacing="2">INVESTUS REPORT</text>
  <text x="24" y="38" font-size="15" fill="#ffffff" font-weight="700">🚗 Tesla — TD Cowen BUY $490 · Model Y L</text>

  <!-- Analyst card -->
  <rect x="16" y="62" width="448" height="78" rx="12" fill="#0d2019" stroke="#00e5a0" stroke-width="1" stroke-opacity="0.5"/>
  <rect x="16" y="62" width="448" height="3" rx="1" fill="#00e5a0" opacity="0.8"/>
  <!-- BUY badge -->
  <rect x="28" y="76" width="44" height="22" rx="6" fill="#00e5a0"/>
  <text x="50" y="91" text-anchor="middle" font-size="11" fill="#000000" font-weight="800">BUY</text>
  <text x="84" y="90" font-size="14" fill="#ffffff" font-weight="800">TD Cowen — REITERATED</text>
  <text x="84" y="106" font-size="10" fill="#60b880">Ray Michaeli 애널리스트 · 2026.06.04</text>
  <!-- PT -->
  <text x="440" y="90" text-anchor="end" font-size="28" fill="#00e5a0" font-weight="900">$490</text>
  <text x="440" y="108" text-anchor="end" font-size="10" fill="#00b070">목표주가 MAINTAINED</text>
  <!-- Current price -->
  <text x="440" y="125" text-anchor="end" font-size="11" fill="#606060">현재가 $423.70</text>

  <!-- Price target visual -->
  <rect x="16" y="152" width="448" height="70" rx="10" fill="#081510"/>
  <!-- Current price bar -->
  <rect x="36" y="172" width="270" height="14" rx="4" fill="#1a4030"/>
  <rect x="36" y="172" width="270" height="14" rx="4" fill="#00a060" opacity="0.7"/>
  <text x="312" y="182" font-size="10" fill="#a0e8c0">$423.70</text>
  <!-- Target price bar -->
  <rect x="36" y="194" width="314" height="14" rx="4" fill="#1a4030"/>
  <rect x="36" y="194" width="314" height="14" rx="4" fill="#00e5a0" opacity="0.8"/>
  <text x="356" y="204" font-size="10" fill="#ffffff" font-weight="700">$490.00 목표</text>
  <!-- Upside label -->
  <text x="440" y="182" text-anchor="end" font-size="11" fill="#00e5a0" font-weight="700">+15.6%</text>
  <text x="440" y="197" text-anchor="end" font-size="9" fill="#608060">업사이드</text>

  <!-- Model Y L section -->
  <rect x="16" y="234" width="448" height="100" rx="12" fill="#0a1c12" stroke="#00e5a0" stroke-width="0.5" stroke-opacity="0.3"/>
  <text x="28" y="254" font-size="9" fill="#00e5a0" font-weight="700" letter-spacing="1">MODEL Y L (LONG-WHEELBASE 3ROW) — 핵심 분석</text>
  <!-- Stats -->
  <rect x="28" y="262" width="90" height="56" rx="8" fill="#081510"/>
  <text x="73" y="286" text-anchor="middle" font-size="22" fill="#00e5a0" font-weight="900">100K</text>
  <text x="73" y="300" text-anchor="middle" font-size="8" fill="#408060">미국 수요 잠재력</text>
  <text x="73" y="312" text-anchor="middle" font-size="7" fill="#305040">(추정)</text>

  <rect x="128" y="262" width="90" height="56" rx="8" fill="#081510"/>
  <text x="173" y="286" text-anchor="middle" font-size="22" fill="#00e5a0" font-weight="900">+30%</text>
  <text x="173" y="300" text-anchor="middle" font-size="8" fill="#408060">기존 Model Y 대비</text>
  <text x="173" y="312" text-anchor="middle" font-size="7" fill="#305040">TTM 판매량 초과</text>

  <rect x="228" y="262" width="90" height="56" rx="8" fill="#081510"/>
  <text x="273" y="286" text-anchor="middle" font-size="22" fill="#00e5a0" font-weight="900">3열</text>
  <text x="273" y="300" text-anchor="middle" font-size="8" fill="#408060">풀사이즈 SUV</text>
  <text x="273" y="312" text-anchor="middle" font-size="7" fill="#305040">3-row 시트 구성</text>

  <rect x="328" y="262" width="124" height="56" rx="8" fill="#081510"/>
  <text x="390" y="282" text-anchor="middle" font-size="10" fill="#a0d0b0">$50K+ 대형 SUV</text>
  <text x="390" y="298" text-anchor="middle" font-size="10" fill="#a0d0b0">Toyota · BMW · Ford</text>
  <text x="390" y="312" text-anchor="middle" font-size="8" fill="#608060">경쟁 시장 규모 ~1.3M</text>

  <!-- Key takeaways -->
  <rect x="16" y="346" width="448" height="72" rx="10" fill="#0a180e" stroke="#00e5a0" stroke-width="0.5" stroke-opacity="0.2"/>
  <text x="28" y="364" font-size="9" fill="#00e5a0" font-weight="700" letter-spacing="1">TD COWEN 핵심 포인트</text>
  <text x="28" y="380" font-size="10" fill="#90d8a8">• Rivian R2 출시에 영향 없음 — Model Y L ≠ Rivian 경쟁 구도</text>
  <text x="28" y="394" font-size="10" fill="#90d8a8">• 미국 EV 수요 회복 초기 신호 포착 — Model Y L 타이밍 최적</text>
  <text x="28" y="408" font-size="10" fill="#609870">• 60~135K 유닛 수요 범위 추정 · 출시 미정이나 수요 기반 탄탄</text>
</svg>
