<svg xmlns="http://www.w3.org/2000/svg" viewBox="0 0 800 440" width="800" height="440" style="background:#0d1117;font-family:'SF Pro Display',Arial,sans-serif">
  <rect width="800" height="440" rx="12" fill="#0d1117"/>
  <text x="400" y="36" text-anchor="middle" fill="#00e5a0" font-size="13" font-weight="700">TSLA · Tesla Optimus</text>
  <text x="400" y="62" text-anchor="middle" fill="#e6edf3" font-size="20" font-weight="700">Optimus: Final Stage — Mass Production Starting Next Year</text>
  <text x="400" y="84" text-anchor="middle" fill="#7d8590" font-size="13">Elon Musk official announcement · New robot design every year</text>
  <line x1="40" y1="96" x2="760" y2="96" stroke="#21262d" stroke-width="1"/>

  <rect x="40" y="116" width="218" height="130" rx="8" fill="#161b22"/>
  <rect x="40" y="116" width="218" height="4" rx="2" fill="#7d8590"/>
  <text x="149" y="146" text-anchor="middle" fill="#7d8590" font-size="13" font-weight="600">Now (2026)</text>
  <text x="149" y="172" text-anchor="middle" fill="#e6edf3" font-size="22" font-weight="800">Final Stage</text>
  <text x="149" y="198" text-anchor="middle" fill="#7d8590" font-size="12">Manufacturing optimization</text>
  <text x="149" y="218" text-anchor="middle" fill="#7d8590" font-size="12">Most advanced robot ever</text>
  <text x="149" y="238" text-anchor="middle" fill="#7d8590" font-size="11">Full indoor task execution</text>

  <polygon points="268,176 284,168 284,184" fill="#00e5a0"/>
  <line x1="258" y1="176" x2="284" y2="176" stroke="#00e5a0" stroke-width="2"/>

  <rect x="291" y="116" width="218" height="130" rx="8" fill="#0d2010"/>
  <rect x="291" y="116" width="218" height="4" rx="2" fill="#00e5a0"/>
  <text x="400" y="146" text-anchor="middle" fill="#00e5a0" font-size="13" font-weight="600">2027</text>
  <text x="400" y="172" text-anchor="middle" fill="#00e5a0" font-size="22" font-weight="800">Mass Prod.</text>
  <text x="400" y="198" text-anchor="middle" fill="#e6edf3" font-size="12">High-volume production begins</text>
  <text x="400" y="218" text-anchor="middle" fill="#e6edf3" font-size="12">New design annually</text>
  <text x="400" y="238" text-anchor="middle" fill="#7d8590" font-size="11">Tesla factory self-deployment</text>

  <polygon points="519,176 535,168 535,184" fill="#00e5a0"/>
  <line x1="509" y1="176" x2="535" y2="176" stroke="#00e5a0" stroke-width="2"/>

  <rect x="542" y="116" width="218" height="130" rx="8" fill="#161b22"/>
  <rect x="542" y="116" width="218" height="4" rx="2" fill="#60a5fa"/>
  <text x="651" y="146" text-anchor="middle" fill="#60a5fa" font-size="13" font-weight="600">Long-term</text>
  <text x="651" y="172" text-anchor="middle" fill="#e6edf3" font-size="22" font-weight="800">Ext. Sales</text>
  <text x="651" y="198" text-anchor="middle" fill="#7d8590" font-size="12">B2B robot sales launch</text>
  <text x="651" y="218" text-anchor="middle" fill="#7d8590" font-size="12">Home &amp; industrial markets</text>
  <text x="651" y="238" text-anchor="middle" fill="#7d8590" font-size="11">Target: ~$20K/unit</text>

  <rect x="40" y="260" width="720" height="60" rx="8" fill="#1a2a1a"/>
  <text x="400" y="284" text-anchor="middle" fill="#00e5a0" font-size="14" font-weight="600">"We're in the final stages of completion of Optimus"</text>
  <text x="400" y="305" text-anchor="middle" fill="#7d8590" font-size="12">— Elon Musk, June 2026 · "We'll try to release a new robot design every year"</text>

  <rect x="40" y="334" width="340" height="70" rx="8" fill="#161b22"/>
  <text x="210" y="360" text-anchor="middle" fill="#7d8590" font-size="12">vs Competition</text>
  <text x="210" y="382" text-anchor="middle" fill="#e6edf3" font-size="13">"Most advanced robot ever"</text>
  <text x="210" y="398" text-anchor="middle" fill="#7d8590" font-size="12">James U.: "No demos as good as Optimus"</text>

  <rect x="420" y="334" width="340" height="70" rx="8" fill="#161b22"/>
  <text x="590" y="360" text-anchor="middle" fill="#7d8590" font-size="12">Production Strategy</text>
  <text x="590" y="382" text-anchor="middle" fill="#e6edf3" font-size="13">Giga Texas robot production line</text>
  <text x="590" y="398" text-anchor="middle" fill="#7d8590" font-size="12">Optimus assembles → Optimus virtuous cycle</text>

  <line x1="40" y1="416" x2="760" y2="416" stroke="#21262d" stroke-width="1"/>
  <text x="400" y="432" text-anchor="middle" fill="#444c56" font-size="10">Source: Elon Musk / X · investus.kr</text>
</svg>
