<svg xmlns="http://www.w3.org/2000/svg" viewBox="0 0 600 420" width="600" height="420">
  <defs>
    <linearGradient id="bg6en" x1="0" y1="0" x2="0" y2="1">
      <stop offset="0%" stop-color="#0f1923"/>
      <stop offset="100%" stop-color="#0a1018"/>
    </linearGradient>
  </defs>
  <rect width="600" height="420" fill="url(#bg6en)" rx="16"/>
  <rect x="20" y="18" width="90" height="26" rx="6" fill="#00e5a0" opacity="0.2"/>
  <text x="65" y="36" text-anchor="middle" font-family="Arial,sans-serif" font-size="13" font-weight="700" fill="#00e5a0">TSLA</text>
  <text x="122" y="36" font-family="Arial,sans-serif" font-size="13" fill="#94a3b8">Goldman Q2 Forecast</text>
  <text x="300" y="76" text-anchor="middle" font-family="Arial,sans-serif" font-size="18" font-weight="700" fill="#f1f5f9">Goldman Sachs Tesla Q2 Delivery Forecast</text>
  <text x="300" y="100" text-anchor="middle" font-family="Arial,sans-serif" font-size="28" font-weight="900" fill="#00e5a0">420,000 ~ 430,000</text>
  <text x="300" y="120" text-anchor="middle" font-family="Arial,sans-serif" font-size="13" fill="#94a3b8">Above Consensus · Strong Q2 Expected</text>
  <rect x="40" y="134" width="520" height="1" fill="#00332a" opacity="0.8"/>
  <text x="40" y="158" font-family="Arial,sans-serif" font-size="13" font-weight="700" fill="#64748b">Quarterly Delivery Trend</text>
  <text x="40" y="186" font-family="Arial,sans-serif" font-size="12" fill="#64748b">Q2 2025</text>
  <rect x="130" y="174" width="154" height="18" rx="4" fill="#475569" opacity="0.4"/>
  <text x="520" y="186" text-anchor="end" font-family="Arial,sans-serif" font-size="12" fill="#64748b">384,358</text>
  <text x="40" y="214" font-family="Arial,sans-serif" font-size="12" fill="#64748b">Q3 2025</text>
  <rect x="130" y="202" width="165" height="18" rx="4" fill="#475569" opacity="0.45"/>
  <text x="520" y="214" text-anchor="end" font-family="Arial,sans-serif" font-size="12" fill="#64748b">462,890</text>
  <text x="40" y="242" font-family="Arial,sans-serif" font-size="12" fill="#64748b">Q4 2025</text>
  <rect x="130" y="230" width="142" height="18" rx="4" fill="#475569" opacity="0.4"/>
  <text x="520" y="242" text-anchor="end" font-family="Arial,sans-serif" font-size="12" fill="#64748b">495,570</text>
  <text x="40" y="270" font-family="Arial,sans-serif" font-size="12" fill="#94a3b8">Q1 2026</text>
  <rect x="130" y="258" width="84" height="18" rx="4" fill="#475569" opacity="0.35"/>
  <text x="520" y="270" text-anchor="end" font-family="Arial,sans-serif" font-size="12" fill="#94a3b8">336,681</text>
  <text x="40" y="298" font-family="Arial,sans-serif" font-size="12" fill="#00e5a0" font-weight="700">Q2 2026 (Goldman)</text>
  <rect x="130" y="286" width="172" height="18" rx="4" fill="#00e5a0" opacity="0.7"/>
  <text x="520" y="298" text-anchor="end" font-family="Arial,sans-serif" font-size="12" font-weight="700" fill="#00e5a0">420,000~430,000</text>
  <rect x="40" y="316" width="520" height="1" fill="#1e293b"/>
  <rect x="40" y="326" width="4" height="16" rx="2" fill="#00e5a0"/>
  <text x="52" y="338" font-family="Arial,sans-serif" font-size="12" fill="#e2e8f0">New Model Y deliveries ramping — 80,000 bonus orders being fulfilled</text>
  <rect x="40" y="350" width="4" height="16" rx="2" fill="#00e5a0"/>
  <text x="52" y="362" font-family="Arial,sans-serif" font-size="12" fill="#e2e8f0">Giga Shanghai May production hit record high — strong Q2 supply</text>
  <rect x="40" y="374" width="4" height="16" rx="2" fill="#00e5a0"/>
  <text x="52" y="386" font-family="Arial,sans-serif" font-size="12" fill="#e2e8f0">Delivery surprise → margin guidance upgrade expected at July earnings</text>
  <text x="300" y="404" text-anchor="middle" font-family="Arial,sans-serif" font-size="11" fill="#475569">Source: Goldman Sachs Research 2026.06.17</text>
</svg>
