<svg xmlns="http://www.w3.org/2000/svg" viewBox="0 0 480 440" style="font-family:Syne,sans-serif">
  <rect width="480" height="440" fill="#0a0c10"/>
  <rect x="0" y="0" width="480" height="56" fill="#0a1f14"/>
  <text x="240" y="28" text-anchor="middle" fill="#00e5a0" font-size="12" font-weight="700" letter-spacing="2">TESLA FSD 유럽 확산</text>
  <text x="240" y="46" text-anchor="middle" fill="#94a3b8" font-size="10">덴마크 · 벨기에 FSD Supervised 공식 승인</text>

  <!-- Two country approval boxes -->
  <rect x="20" y="68" width="208" height="110" rx="14" fill="#0a1f14"/>
  <rect x="20" y="68" width="208" height="4" rx="2" fill="#00e5a0"/>
  <text x="124" y="96" text-anchor="middle" fill="#ffffff" font-size="20">🇩🇰</text>
  <text x="124" y="116" text-anchor="middle" fill="#e2e8f0" font-size="14" font-weight="700">덴마크 승인</text>
  <text x="124" y="132" text-anchor="middle" fill="#00e5a0" font-size="11">FSD Supervised ✅</text>
  <text x="124" y="148" text-anchor="middle" fill="#64748b" font-size="9">CEO Mads Rørvig 확인</text>
  <text x="124" y="162" text-anchor="middle" fill="#64748b" font-size="9">2026.06.11 승인</text>
  <text x="124" y="174" text-anchor="middle" fill="#94a3b8" font-size="9">유럽 FSD 허용 2번째 국가</text>

  <rect x="252" y="68" width="208" height="110" rx="14" fill="#0a1f14"/>
  <rect x="252" y="68" width="208" height="4" rx="2" fill="#00e5a0"/>
  <text x="356" y="96" text-anchor="middle" fill="#ffffff" font-size="20">🇧🇪</text>
  <text x="356" y="116" text-anchor="middle" fill="#e2e8f0" font-size="14" font-weight="700">벨기에 승인</text>
  <text x="356" y="132" text-anchor="middle" fill="#00e5a0" font-size="11">FSD Supervised ✅</text>
  <text x="356" y="148" text-anchor="middle" fill="#64748b" font-size="9">장관 Annick De Wäcker 확인</text>
  <text x="356" y="162" text-anchor="middle" fill="#64748b" font-size="9">2026.06.11 공식 승인</text>
  <text x="356" y="174" text-anchor="middle" fill="#94a3b8" font-size="9">"100% 자율주행 기능" 인정</text>

  <!-- Europe expansion tracker -->
  <rect x="20" y="192" width="440" height="114" rx="12" fill="#0a1f14"/>
  <text x="240" y="212" text-anchor="middle" fill="#94a3b8" font-size="10">유럽 FSD 허용 현황</text>

  <text x="36" y="232" fill="#00e5a0" font-size="11">✅  네덜란드 — FSD 실데이터 공개 (충돌 3.5배↓)</text>
  <text x="36" y="250" fill="#00e5a0" font-size="11">✅  덴마크 — FSD Supervised 승인 (2026.06.11)</text>
  <text x="36" y="268" fill="#00e5a0" font-size="11">✅  벨기에 — FSD Supervised 승인 (2026.06.11)</text>
  <text x="36" y="286" fill="#64748b" font-size="11">⏳  독일 · 프랑스 · 스페인 — 검토 중</text>
  <text x="36" y="300" fill="#64748b" font-size="11">⏳  EU 전역 규제 완화 — 안전 데이터 기반 논거 형성</text>

  <!-- Quote from Belgium minister -->
  <rect x="20" y="320" width="440" height="66" rx="12" fill="#0f172a"/>
  <rect x="20" y="320" width="440" height="3" rx="2" fill="#00e5a0" opacity="0.5"/>
  <text x="36" y="342" fill="#94a3b8" font-size="10">벨기에 장관 Annick De Wäcker 발언:</text>
  <text x="36" y="358" fill="#e2e8f0" font-size="11">"기능적으로 이 시스템은 100% 자율주행입니다."</text>
  <text x="36" y="374" fill="#64748b" font-size="10">"단, 운전자가 법적 책임을 지는 구조는 유지됩니다."</text>

  <!-- FSD EU revenue implication -->
  <rect x="20" y="398" width="440" height="30" rx="8" fill="#0a1f14"/>
  <text x="240" y="418" text-anchor="middle" fill="#00e5a0" font-size="10" font-weight="700">→ EU FSD 구독 수익화 가속 — 유럽 4.7억 인구 시장</text>

  <text x="240" y="433" text-anchor="middle" fill="#334155" font-size="9">investus.kr · 2026.06.11</text>
</svg>
