<svg xmlns="http://www.w3.org/2000/svg" viewBox="0 0 1080 1080" width="1080" height="1080">
  <defs>
    <linearGradient id="bg" x1="0%" y1="0%" x2="100%" y2="100%">
      <stop offset="0%" style="stop-color:#0d1117"/>
      <stop offset="100%" style="stop-color:#0f1923"/>
    </linearGradient>
    <linearGradient id="redGrad" x1="0%" y1="0%" x2="100%" y2="0%">
      <stop offset="0%" style="stop-color:#ef4444"/>
      <stop offset="100%" style="stop-color:#dc2626"/>
    </linearGradient>
    <linearGradient id="barGrad1" x1="0%" y1="0%" x2="0%" y2="100%">
      <stop offset="0%" style="stop-color:#ef4444"/>
      <stop offset="100%" style="stop-color:#7f1d1d"/>
    </linearGradient>
    <linearGradient id="barGrad2" x1="0%" y1="0%" x2="0%" y2="100%">
      <stop offset="0%" style="stop-color:#60a5fa"/>
      <stop offset="100%" style="stop-color:#1e3a8a"/>
    </linearGradient>
    <filter id="softGlow">
      <feGaussianBlur stdDeviation="10" result="coloredBlur"/>
      <feMerge><feMergeNode in="coloredBlur"/><feMergeNode in="SourceGraphic"/></feMerge>
    </filter>
  </defs>

  <rect width="1080" height="1080" fill="url(#bg)"/>
  <rect width="1080" height="1080" fill="none" stroke="#1f2937" stroke-width="2"/>
  <rect x="0" y="0" width="1080" height="4" fill="url(#redGrad)"/>

  <text x="540" y="62" font-family="Arial,sans-serif" font-size="14" font-weight="700" fill="#6b7280" text-anchor="middle" letter-spacing="3">INVESTUS DAILY REPORT</text>
  <text x="540" y="105" font-family="Arial,sans-serif" font-size="30" font-weight="900" fill="#f9fafb" text-anchor="middle">TSLA · Malaysia 15,000 Units Milestone</text>

  <rect x="396" y="120" width="288" height="34" rx="17" fill="#1f2937" stroke="#374151" stroke-width="1"/>
  <text x="540" y="142" font-family="Arial,sans-serif" font-size="14" font-weight="600" fill="#9ca3af" text-anchor="middle" letter-spacing="2">2026.07.01</text>

  <text x="540" y="300" font-family="Arial Black,Arial,sans-serif" font-size="140" font-weight="900" fill="#ef4444" text-anchor="middle" filter="url(#softGlow)" opacity="0.12">15,000</text>
  <text x="540" y="300" font-family="Arial Black,Arial,sans-serif" font-size="140" font-weight="900" fill="#ef4444" text-anchor="middle">15,000</text>
  <text x="540" y="340" font-family="Arial,sans-serif" font-size="22" fill="#9ca3af" text-anchor="middle" letter-spacing="3">VEHICLES DELIVERED · MALAYSIA</text>

  <g transform="translate(440, 355)" opacity="0.6">
    <path d="M60,0 L100,10 L120,30 L110,60 L90,90 L80,110 L70,120 L50,115 L30,100 L10,70 L0,40 L15,15 Z" fill="#ef4444" opacity="0.3" stroke="#ef4444" stroke-width="1.5"/>
    <path d="M140,20 L200,15 L220,30 L210,55 L180,60 L150,50 L135,35 Z" fill="#60a5fa" opacity="0.3" stroke="#60a5fa" stroke-width="1.5"/>
    <polygon points="60,65 63,73 72,73 65,78 68,87 60,82 52,87 55,78 48,73 57,73" fill="#f59e0b"/>
  </g>

  <text x="540" y="500" font-family="Arial,sans-serif" font-size="13" fill="#6b7280" text-anchor="middle" letter-spacing="1">SOUTHEAST ASIA EV EXPANSION MILESTONE</text>

  <text x="160" y="545" font-family="Arial,sans-serif" font-size="14" font-weight="700" fill="#6b7280" letter-spacing="2">MALAYSIA EV DELIVERY GROWTH</text>

  <line x1="160" y1="730" x2="900" y2="730" stroke="#374151" stroke-width="1"/>
  <line x1="160" y1="565" x2="160" y2="730" stroke="#374151" stroke-width="1"/>

  <rect x="215" y="680" width="90" height="50" rx="4" fill="url(#barGrad1)"/>
  <text x="260" y="675" font-family="Arial,sans-serif" font-size="13" fill="#9ca3af" text-anchor="middle">2022</text>
  <text x="260" y="752" font-family="Arial,sans-serif" font-size="11" fill="#6b7280" text-anchor="middle">1.2K</text>

  <rect x="365" y="650" width="90" height="80" rx="4" fill="url(#barGrad1)"/>
  <text x="410" y="645" font-family="Arial,sans-serif" font-size="13" fill="#9ca3af" text-anchor="middle">2023</text>
  <text x="410" y="752" font-family="Arial,sans-serif" font-size="11" fill="#6b7280" text-anchor="middle">3.8K</text>

  <rect x="515" y="610" width="90" height="120" rx="4" fill="url(#barGrad1)"/>
  <text x="560" y="605" font-family="Arial,sans-serif" font-size="13" fill="#9ca3af" text-anchor="middle">2024</text>
  <text x="560" y="752" font-family="Arial,sans-serif" font-size="11" fill="#6b7280" text-anchor="middle">8.5K</text>

  <rect x="665" y="568" width="90" height="162" rx="4" fill="url(#barGrad2)"/>
  <text x="710" y="563" font-family="Arial,sans-serif" font-size="13" fill="#60a5fa" text-anchor="middle" font-weight="700">2025</text>
  <text x="710" y="752" font-family="Arial,sans-serif" font-size="11" fill="#60a5fa" text-anchor="middle" font-weight="700">15K ★</text>

  <rect x="340" y="770" width="400" height="60" rx="30" fill="#1f2937" stroke="#ef4444" stroke-width="2"/>
  <text x="540" y="796" font-family="Arial,sans-serif" font-size="14" fill="#ef4444" text-anchor="middle" letter-spacing="1">MILESTONE ACHIEVED</text>
  <text x="540" y="818" font-family="Arial,sans-serif" font-size="13" fill="#9ca3af" text-anchor="middle">Southeast Asia EV Market Expansion</text>

  <rect x="80" y="858" width="260" height="80" rx="10" fill="#0f172a" stroke="#1e3a5f" stroke-width="1.5"/>
  <text x="210" y="890" font-family="Arial,sans-serif" font-size="12" fill="#60a5fa" text-anchor="middle">ASIA PACIFIC</text>
  <text x="210" y="916" font-family="Arial Black,sans-serif" font-size="22" font-weight="900" fill="#60a5fa" text-anchor="middle">EXPAND</text>

  <rect x="410" y="858" width="260" height="80" rx="10" fill="#0f172a" stroke="#374151" stroke-width="1.5"/>
  <text x="540" y="890" font-family="Arial,sans-serif" font-size="12" fill="#f59e0b" text-anchor="middle">EV Market Share</text>
  <text x="540" y="916" font-family="Arial Black,sans-serif" font-size="22" font-weight="900" fill="#f59e0b" text-anchor="middle">GROWING</text>

  <rect x="740" y="858" width="260" height="80" rx="10" fill="#0f172a" stroke="#14532d" stroke-width="1.5"/>
  <text x="870" y="890" font-family="Arial,sans-serif" font-size="12" fill="#4ade80" text-anchor="middle">Strategy</text>
  <text x="870" y="916" font-family="Arial Black,sans-serif" font-size="22" font-weight="900" fill="#4ade80" text-anchor="middle">ACCELERATE</text>

  <text x="540" y="975" font-family="Arial,sans-serif" font-size="13" fill="#374151" text-anchor="middle">Tesla Malaysia 15,000th Vehicle Delivery Milestone · 2026.07.01</text>

  <rect x="0" y="1060" width="1080" height="20" fill="url(#redGrad)" opacity="0.4"/>
  <text x="540" y="1073" font-family="Arial,sans-serif" font-size="10" fill="#6b7280" text-anchor="middle" letter-spacing="2">INVESTUS · TSLA RESEARCH · NOT FINANCIAL ADVICE</text>
</svg>
