<svg xmlns="http://www.w3.org/2000/svg" viewBox="0 0 1080 1080" width="1080" height="1080">
  <defs>
    <linearGradient id="bg" x1="0%" y1="0%" x2="100%" y2="100%">
      <stop offset="0%" style="stop-color:#0d1117"/>
      <stop offset="100%" style="stop-color:#111827"/>
    </linearGradient>
    <linearGradient id="redBlue" x1="0%" y1="0%" x2="100%" y2="0%">
      <stop offset="0%" style="stop-color:#ef4444"/>
      <stop offset="100%" style="stop-color:#60a5fa"/>
    </linearGradient>
    <linearGradient id="cardGrad" x1="0%" y1="0%" x2="0%" y2="100%">
      <stop offset="0%" style="stop-color:#1e293b"/>
      <stop offset="100%" style="stop-color:#0f172a"/>
    </linearGradient>
    <filter id="glow">
      <feGaussianBlur stdDeviation="3" result="coloredBlur"/>
      <feMerge><feMergeNode in="coloredBlur"/><feMergeNode in="SourceGraphic"/></feMerge>
    </filter>
  </defs>

  <rect width="1080" height="1080" fill="url(#bg)"/>
  <rect x="0" y="0" width="1080" height="4" fill="url(#redBlue)"/>

  <!-- Header -->
  <rect x="40" y="24" width="1000" height="90" rx="12" fill="#161b22" opacity="0.9"/>
  <text x="60" y="58" font-family="Arial Black, sans-serif" font-size="13" font-weight="900" fill="#60a5fa" letter-spacing="4">INVESTUS DAILY REPORT</text>
  <text x="60" y="100" font-family="Arial Black, sans-serif" font-size="26" font-weight="900" fill="white">TSLA · Terafab 핵심 인력 영입</text>
  <rect x="880" y="38" width="148" height="34" rx="17" fill="#60a5fa" opacity="0.9"/>
  <text x="954" y="60" font-family="Arial, sans-serif" font-size="14" font-weight="700" fill="white" text-anchor="middle">2026.07.01</text>

  <!-- Terafab intro card -->
  <rect x="40" y="135" width="1000" height="70" rx="12" fill="#1e3a5f" stroke="#60a5fa" stroke-width="1"/>
  <text x="540" y="163" font-family="Arial Black, sans-serif" font-size="18" fill="#60a5fa" text-anchor="middle" font-weight="900">TERAFAB = Tesla 자체 반도체 팹 (Austin, TX)</text>
  <text x="540" y="191" font-family="Arial, sans-serif" font-size="14" fill="#9ca3af" text-anchor="middle">Tesla In-House Semiconductor Fab · Chip Manufacturing Capability</text>

  <!-- Flow diagram: Intel → Tesla Terafab -->
  <text x="60" y="250" font-family="Arial Black, sans-serif" font-size="16" fill="#9ca3af" font-weight="700" letter-spacing="2">채용 플로우 다이어그램</text>

  <!-- Intel box -->
  <rect x="40" y="265" width="300" height="200" rx="16" fill="url(#cardGrad)" stroke="#3b82f6" stroke-width="2"/>
  <text x="190" y="300" font-family="Arial Black, sans-serif" font-size="22" fill="#3b82f6" text-anchor="middle" font-weight="900">INTEL</text>
  <text x="190" y="325" font-family="Arial, sans-serif" font-size="14" fill="#6b7280" text-anchor="middle">Corporation</text>
  <!-- Chip icon -->
  <rect x="145" y="345" width="90" height="70" rx="6" fill="#1e293b" stroke="#3b82f6" stroke-width="1"/>
  <rect x="155" y="355" width="70" height="50" rx="3" fill="#111827"/>
  <!-- Chip pins -->
  <rect x="135" y="360" width="10" height="4" rx="1" fill="#374151"/>
  <rect x="135" y="372" width="10" height="4" rx="1" fill="#374151"/>
  <rect x="135" y="384" width="10" height="4" rx="1" fill="#374151"/>
  <rect x="235" y="360" width="10" height="4" rx="1" fill="#374151"/>
  <rect x="235" y="372" width="10" height="4" rx="1" fill="#374151"/>
  <rect x="235" y="384" width="10" height="4" rx="1" fill="#374151"/>
  <rect x="160" y="335" width="4" height="10" rx="1" fill="#374151"/>
  <rect x="172" y="335" width="4" height="10" rx="1" fill="#374151"/>
  <rect x="184" y="335" width="4" height="10" rx="1" fill="#374151"/>
  <rect x="196" y="335" width="4" height="10" rx="1" fill="#374151"/>
  <text x="190" y="385" font-family="Arial Black, sans-serif" font-size="13" fill="#60a5fa" text-anchor="middle" font-weight="700">18A</text>
  <text x="190" y="400" font-family="Arial, sans-serif" font-size="10" fill="#6b7280" text-anchor="middle">Angstrom Process</text>
  <text x="190" y="455" font-family="Arial, sans-serif" font-size="12" fill="#6b7280" text-anchor="middle">최첨단 반도체 공정</text>

  <!-- Arrow -->
  <polygon points="355,360 400,345 400,355 430,355 430,365 400,365 400,375" fill="#22c55e" opacity="0.9"/>
  <text x="392" y="340" font-family="Arial, sans-serif" font-size="12" fill="#22c55e" text-anchor="middle">영입</text>

  <!-- Person 1: Gary Jiang -->
  <rect x="445" y="265" width="280" height="200" rx="16" fill="url(#cardGrad)" stroke="#22c55e" stroke-width="2"/>
  <circle cx="585" cy="320" r="40" fill="#1e293b" stroke="#22c55e" stroke-width="2"/>
  <!-- Person icon -->
  <circle cx="585" cy="306" r="15" fill="#374151"/>
  <ellipse cx="585" cy="345" rx="22" ry="15" fill="#374151"/>
  <text x="585" y="312" font-family="Arial, sans-serif" font-size="16" fill="#9ca3af" text-anchor="middle">GJ</text>
  <text x="585" y="380" font-family="Arial Black, sans-serif" font-size="16" fill="white" text-anchor="middle" font-weight="900">Gary Jiang</text>
  <text x="585" y="400" font-family="Arial, sans-serif" font-size="13" fill="#22c55e" text-anchor="middle">Director, Tera Fab</text>
  <text x="585" y="420" font-family="Arial, sans-serif" font-size="11" fill="#6b7280" text-anchor="middle">Tesla (Jun 2026~)</text>
  <text x="585" y="440" font-family="Arial, sans-serif" font-size="11" fill="#3b82f6" text-anchor="middle">前 Intel 18A Factory Mgr</text>
  <text x="585" y="458" font-family="Arial, sans-serif" font-size="10" fill="#6b7280" text-anchor="middle">Dec 2024 ~ Jun 2026</text>

  <!-- Arrow 2 -->
  <polygon points="740,360 785,345 785,355 815,355 815,365 785,365 785,375" fill="#60a5fa" opacity="0.9"/>
  <text x="777" y="340" font-family="Arial, sans-serif" font-size="12" fill="#60a5fa" text-anchor="middle">합류</text>

  <!-- Person 2: Lara Park -->
  <rect x="830" y="265" width="210" height="200" rx="16" fill="url(#cardGrad)" stroke="#60a5fa" stroke-width="2"/>
  <circle cx="935" cy="320" r="35" fill="#1e293b" stroke="#60a5fa" stroke-width="2"/>
  <circle cx="935" cy="307" r="13" fill="#374151"/>
  <ellipse cx="935" cy="342" rx="19" ry="13" fill="#374151"/>
  <text x="935" y="313" font-family="Arial, sans-serif" font-size="14" fill="#9ca3af" text-anchor="middle">LP</text>
  <text x="935" y="375" font-family="Arial Black, sans-serif" font-size="14" fill="white" text-anchor="middle" font-weight="900">Lara Park</text>
  <text x="935" y="395" font-family="Arial, sans-serif" font-size="12" fill="#60a5fa" text-anchor="middle">반도체 제조 디렉터</text>
  <text x="935" y="413" font-family="Arial, sans-serif" font-size="11" fill="#6b7280" text-anchor="middle">Tesla 7년+ 경력</text>
  <text x="935" y="430" font-family="Arial, sans-serif" font-size="11" fill="#9ca3af" text-anchor="middle">반도체 분야 전문</text>
  <text x="935" y="448" font-family="Arial, sans-serif" font-size="10" fill="#6b7280" text-anchor="middle">Semiconductor Expert</text>
  <text x="935" y="462" font-family="Arial, sans-serif" font-size="10" fill="#60a5fa" text-anchor="middle">Tesla 칩 역량 강화</text>

  <!-- What is 18A -->
  <rect x="40" y="490" width="390" height="120" rx="14" fill="#0f172a" stroke="#3b82f6" stroke-width="1"/>
  <text x="60" y="520" font-family="Arial Black, sans-serif" font-size="14" fill="#3b82f6" font-weight="700">Intel 18A란?</text>
  <text x="60" y="545" font-family="Arial, sans-serif" font-size="13" fill="#9ca3af">· 인텔 최첨단 반도체 공정 (1.8nm급)</text>
  <text x="60" y="565" font-family="Arial, sans-serif" font-size="13" fill="#9ca3af">· GAA 트랜지스터 기술 (RibbonFET)</text>
  <text x="60" y="585" font-family="Arial, sans-serif" font-size="13" fill="#9ca3af">· 업계 최고 수준의 파운드리 공정</text>
  <text x="60" y="603" font-family="Arial, sans-serif" font-size="12" fill="#6b7280">Gary Jiang이 직접 관리한 공정</text>

  <!-- Tesla Terafab destination -->
  <rect x="450" y="490" width="590" height="120" rx="14" fill="#0f172a" stroke="#22c55e" stroke-width="1"/>
  <text x="470" y="520" font-family="Arial Black, sans-serif" font-size="14" fill="#22c55e" font-weight="700">Tesla Terafab 목표</text>
  <text x="470" y="545" font-family="Arial, sans-serif" font-size="13" fill="#9ca3af">· Tesla 자체 AI 칩 제조 (D1 등)</text>
  <text x="470" y="565" font-family="Arial, sans-serif" font-size="13" fill="#9ca3af">· TSMC 의존도 감소 → 공급망 자립</text>
  <text x="470" y="585" font-family="Arial, sans-serif" font-size="13" fill="#9ca3af">· Optimus·FSD·Dojo 칩 내재화</text>
  <text x="470" y="603" font-family="Arial, sans-serif" font-size="12" fill="#6b7280">Austin, TX · 건설 진행 중</text>

  <!-- Significance cards -->
  <text x="60" y="648" font-family="Arial Black, sans-serif" font-size="16" fill="#9ca3af" font-weight="700" letter-spacing="2">영입 의의</text>

  <rect x="40" y="665" width="480" height="120" rx="14" fill="url(#cardGrad)" stroke="#22c55e" stroke-width="1"/>
  <text x="60" y="698" font-family="Arial, sans-serif" font-size="28" text-anchor="start">💡</text>
  <text x="105" y="700" font-family="Arial Black, sans-serif" font-size="16" fill="#22c55e" font-weight="700">최첨단 공정 경험</text>
  <text x="60" y="724" font-family="Arial, sans-serif" font-size="13" fill="#9ca3af">Intel 18A (업계 최고 수준) 직접 운영 경력</text>
  <text x="60" y="744" font-family="Arial, sans-serif" font-size="13" fill="#9ca3af">Tesla 자체 반도체 팹 구축에 즉시 기여 가능</text>
  <text x="60" y="764" font-family="Arial, sans-serif" font-size="12" fill="#6b7280">Terafab 핵심 인재 확보</text>

  <rect x="540" y="665" width="500" height="120" rx="14" fill="url(#cardGrad)" stroke="#60a5fa" stroke-width="1"/>
  <text x="560" y="698" font-family="Arial, sans-serif" font-size="28" text-anchor="start">⚙️</text>
  <text x="605" y="700" font-family="Arial Black, sans-serif" font-size="16" fill="#60a5fa" font-weight="700">반도체 자립 가속화</text>
  <text x="560" y="724" font-family="Arial, sans-serif" font-size="13" fill="#9ca3af">Lara Park 7년+ Tesla 반도체 경력 시너지</text>
  <text x="560" y="744" font-family="Arial, sans-serif" font-size="13" fill="#9ca3af">FSD·Optimus·Dojo 칩 내재화 로드맵 실행</text>
  <text x="560" y="764" font-family="Arial, sans-serif" font-size="12" fill="#6b7280">공급망 자립 + 비용 절감</text>

  <!-- Chip visual bottom -->
  <rect x="40" y="805" width="1000" height="200" rx="16" fill="#0a0f1a" stroke="#1e293b" stroke-width="1"/>
  <text x="60" y="835" font-family="Arial Black, sans-serif" font-size="14" fill="#9ca3af" letter-spacing="2">Terafab 칩 내재화 로드맵</text>
  <!-- Chip diagram -->
  <rect x="100" y="860" width="160" height="120" rx="10" fill="#1e293b" stroke="#374151" stroke-width="2"/>
  <rect x="115" y="875" width="130" height="90" rx="6" fill="#111827"/>
  <text x="180" y="915" font-family="Arial, sans-serif" font-size="14" fill="#374151" text-anchor="middle">현재</text>
  <text x="180" y="935" font-family="Arial, sans-serif" font-size="11" fill="#6b7280" text-anchor="middle">TSMC 위탁</text>
  <text x="180" y="950" font-family="Arial, sans-serif" font-size="11" fill="#6b7280" text-anchor="middle">Foundry</text>

  <polygon points="280,920 330,905 330,915 370,915 370,925 330,925 330,935" fill="#22c55e" opacity="0.7"/>

  <rect x="390" y="855" width="200" height="130" rx="10" fill="#1e3a5f" stroke="#60a5fa" stroke-width="2"/>
  <rect x="405" y="870" width="170" height="100" rx="6" fill="#0a0f1a"/>
  <text x="490" y="912" font-family="Arial, sans-serif" font-size="13" fill="#60a5fa" text-anchor="middle">Terafab</text>
  <text x="490" y="930" font-family="Arial, sans-serif" font-size="11" fill="#9ca3af" text-anchor="middle">자체 생산</text>
  <text x="490" y="948" font-family="Arial, sans-serif" font-size="11" fill="#9ca3af" text-anchor="middle">Austin, TX</text>
  <text x="490" y="966" font-family="Arial, sans-serif" font-size="10" fill="#22c55e" text-anchor="middle">진행 중</text>

  <polygon points="610,920 660,905 660,915 700,915 700,925 660,925 660,935" fill="#22c55e" opacity="0.7"/>

  <rect x="720" y="855" width="280" height="130" rx="10" fill="#1e3a5f" stroke="#22c55e" stroke-width="2" filter="url(#glow)"/>
  <rect x="735" y="870" width="250" height="100" rx="6" fill="#0a0f1a"/>
  <text x="860" y="908" font-family="Arial Black, sans-serif" font-size="14" fill="#22c55e" text-anchor="middle" font-weight="900">D1 · FSD · Dojo</text>
  <text x="860" y="928" font-family="Arial, sans-serif" font-size="12" fill="#9ca3af" text-anchor="middle">완전 자립 칩 생태계</text>
  <text x="860" y="946" font-family="Arial, sans-serif" font-size="12" fill="#9ca3af" text-anchor="middle">Optimus 칩 포함</text>
  <text x="860" y="966" font-family="Arial, sans-serif" font-size="11" fill="#22c55e" text-anchor="middle">목표</text>

  <!-- Footer -->
  <rect x="0" y="1044" width="1080" height="36" fill="#0f172a"/>
  <text x="540" y="1068" font-family="Arial, sans-serif" font-size="13" fill="#9ca3af" text-anchor="middle">Intel 18A 전문가 Gary Jiang 영입 — Tesla 반도체 자립(Terafab) 본격화 · INVESTUS · 2026.07.01 · 투자 참고용</text>
</svg>
