<svg xmlns="http://www.w3.org/2000/svg" viewBox="0 0 800 480" width="800" height="480" style="background:#0d1117;font-family:'Apple SD Gothic Neo',sans-serif">
  <rect width="800" height="480" rx="12" fill="#0d1117"/>
  <text x="400" y="36" text-anchor="middle" fill="#00e5a0" font-size="13" font-weight="700">TSLA · Tesla</text>
  <text x="400" y="62" text-anchor="middle" fill="#e6edf3" font-size="20" font-weight="700">Jefferies 목표주가 $375 상향</text>
  <text x="400" y="84" text-anchor="middle" fill="#7d8590" font-size="13">기존 $350 → $375 · 로보택시·Optimus·FSD 강세 전망</text>
  <line x1="40" y1="96" x2="760" y2="96" stroke="#21262d" stroke-width="1"/>

  <!-- Arrow from $350 → $375 -->
  <rect x="80" y="116" width="240" height="100" rx="10" fill="#161b22"/>
  <text x="200" y="148" text-anchor="middle" fill="#7d8590" font-size="13">기존 목표주가</text>
  <text x="200" y="196" text-anchor="middle" fill="#7d8590" font-size="42" font-weight="800">$350</text>

  <!-- Big arrow -->
  <line x1="340" y1="166" x2="420" y2="166" stroke="#00e5a0" stroke-width="3"/>
  <polygon points="420,158 440,166 420,174" fill="#00e5a0"/>
  <text x="390" y="156" text-anchor="middle" fill="#00e5a0" font-size="11">+7.1%</text>

  <rect x="460" y="116" width="300" height="100" rx="10" fill="#0d1f14" stroke="#00e5a0" stroke-width="1.5"/>
  <text x="610" y="148" text-anchor="middle" fill="#00e5a0" font-size="13">신규 목표주가</text>
  <text x="610" y="196" text-anchor="middle" fill="#00e5a0" font-size="46" font-weight="800">$375</text>

  <!-- Justification -->
  <rect x="40" y="234" width="720" height="130" rx="8" fill="#161b22"/>
  <rect x="40" y="234" width="720" height="4" rx="2" fill="#00e5a0"/>
  <text x="400" y="260" text-anchor="middle" fill="#00e5a0" font-size="13" font-weight="600">상향 근거</text>
  <text x="60" y="284" fill="#e6edf3" font-size="12">Robotaxi 플릿 확장 속도 예상 상회 — Cybercab EPA 인증 완료</text>
  <text x="60" y="306" fill="#e6edf3" font-size="12">Optimus 양산 타임라인 구체화 — 프리몬트 7~8월 생산 시작</text>
  <text x="60" y="328" fill="#7d8590" font-size="11">FSD 구독자 142만 돌파 → 소프트웨어 매출 급성장</text>
  <text x="60" y="346" fill="#7d8590" font-size="11">Tesla Energy(MEGAPOD) + AI 포지션 재평가</text>

  <!-- Analyst summary -->
  <rect x="40" y="378" width="720" height="56" rx="8" fill="#1c1026"/>
  <text x="60" y="402" fill="#7d8590" font-size="11" font-style="italic">Jefferies: "Tesla is no longer just an automaker. Robotaxi+Robot+Energy+FSD</text>
  <text x="60" y="420" fill="#7d8590" font-size="11" font-style="italic">combine to create a multi-vertical AI platform — valuation re-rate justified."</text>

  <line x1="40" y1="444" x2="760" y2="444" stroke="#21262d" stroke-width="1"/>
  <text x="400" y="460" text-anchor="middle" fill="#444c56" font-size="10">출처: Jefferies 애널리스트 노트 · investus.kr</text>
</svg>
