<svg xmlns="http://www.w3.org/2000/svg" viewBox="0 0 800 440" width="800" height="440" style="background:#0d1117;font-family:'Apple SD Gothic Neo',sans-serif">
  <rect width="800" height="440" rx="12" fill="#0d1117"/>
  <text x="400" y="36" text-anchor="middle" fill="#00e5a0" font-size="13" font-weight="700">TSLA · Tesla FSD</text>
  <text x="400" y="62" text-anchor="middle" fill="#e6edf3" font-size="20" font-weight="700">스페인 FSD 감독 플릿 275,471km — 중대 사고 제로</text>
  <text x="400" y="84" text-anchor="middle" fill="#7d8590" font-size="13">스페인 교통청(DGT) 공인 데이터 · 2025년 11월부터 운행</text>
  <line x1="40" y1="96" x2="760" y2="96" stroke="#21262d" stroke-width="1"/>

  <!-- Hero metric -->
  <rect x="200" y="112" width="400" height="100" rx="10" fill="#0d2010"/>
  <rect x="200" y="112" width="400" height="4" rx="2" fill="#00e5a0"/>
  <text x="400" y="160" text-anchor="middle" fill="#00e5a0" font-size="38" font-weight="800">275,471 km</text>
  <text x="400" y="185" text-anchor="middle" fill="#e6edf3" font-size="16" font-weight="600">중대 사고 ZERO</text>
  <text x="400" y="205" text-anchor="middle" fill="#7d8590" font-size="12">Since November 2025 · Spain DGT Official Data</text>

  <!-- Stats row -->
  <rect x="40" y="228" width="218" height="90" rx="8" fill="#161b22"/>
  <text x="149" y="256" text-anchor="middle" fill="#7d8590" font-size="12">운행 기간</text>
  <text x="149" y="282" text-anchor="middle" fill="#e6edf3" font-size="20" font-weight="700">7개월+</text>
  <text x="149" y="302" text-anchor="middle" fill="#7d8590" font-size="11">2025.11 ~ 2026.06</text>

  <rect x="291" y="228" width="218" height="90" rx="8" fill="#161b22"/>
  <text x="400" y="256" text-anchor="middle" fill="#7d8590" font-size="12">공인 기관</text>
  <text x="400" y="282" text-anchor="middle" fill="#00e5a0" font-size="18" font-weight="700">DGT 스페인</text>
  <text x="400" y="302" text-anchor="middle" fill="#7d8590" font-size="11">Direction General de Trafico</text>

  <rect x="542" y="228" width="218" height="90" rx="8" fill="#161b22"/>
  <text x="651" y="256" text-anchor="middle" fill="#7d8590" font-size="12">사고 기록</text>
  <text x="651" y="282" text-anchor="middle" fill="#00e5a0" font-size="20" font-weight="700">0건</text>
  <text x="651" y="302" text-anchor="middle" fill="#7d8590" font-size="11">중대(Serious) 기준</text>

  <!-- Context -->
  <rect x="40" y="330" width="720" height="70" rx="8" fill="#1a2a1a"/>
  <text x="400" y="357" text-anchor="middle" fill="#00e5a0" font-size="13" font-weight="600">EU 확산 신호탄</text>
  <text x="400" y="376" text-anchor="middle" fill="#e6edf3" font-size="13">스페인 DGT 공식 데이터 → EU 전역 FSD 규제 완화 압박</text>
  <text x="400" y="393" text-anchor="middle" fill="#7d8590" font-size="12">네덜란드·벨기에 이미 승인 · 독일·프랑스 순차 진행 예상</text>

  <line x1="40" y1="414" x2="760" y2="414" stroke="#21262d" stroke-width="1"/>
  <text x="400" y="430" text-anchor="middle" fill="#444c56" font-size="10">출처: Mario Nawfal / @TSLA_Truth / Spain DGT · investus.kr</text>
</svg>
